<?xml version="1.0" encoding="UTF-8"?>
<!--Generator: Apple Native CoreSVG 148-->
<!DOCTYPE svg
PUBLIC "-//W3C//DTD SVG 1.1//EN"
       "http://www.w3.org/Graphics/SVG/1.1/DTD/svg11.dtd">
<svg version="1.1" xmlns="http://www.w3.org/2000/svg" xmlns:xlink="http://www.w3.org/1999/xlink" width="3300" height="2200">
 <!--glyph: "uni1002EF.medium", point size: 100.000000, font version: "Version 16.0d11e1", template writer version: "8"-->
 <g id="Notes">
  <rect height="2200" id="artboard" style="fill:white;opacity:1" width="3300" x="0" y="0"/>
  <line id="" style="fill:none;stroke:black;opacity:1;stroke-width:0.5;" x1="263" x2="3036" y1="292" y2="292"/>
  <text style="stroke:none;fill:black;font-family:-apple-system,&quot;SF Pro Display&quot;,&quot;SF Pro Text&quot;,Helvetica,sans-serif;font-weight:bold;" transform="matrix(1 0 0 1 263 322)">Weight/Scale Variations</text>
  <text style="stroke:none;fill:black;font-family:-apple-system,&quot;SF Pro Display&quot;,&quot;SF Pro Text&quot;,Helvetica,sans-serif;text-anchor:middle;" transform="matrix(1 0 0 1 559.711 322)">Ultralight</text>
  <text style="stroke:none;fill:black;font-family:-apple-system,&quot;SF Pro Display&quot;,&quot;SF Pro Text&quot;,Helvetica,sans-serif;text-anchor:middle;" transform="matrix(1 0 0 1 856.422 322)">Thin</text>
  <text style="stroke:none;fill:black;font-family:-apple-system,&quot;SF Pro Display&quot;,&quot;SF Pro Text&quot;,Helvetica,sans-serif;text-anchor:middle;" transform="matrix(1 0 0 1 1153.13 322)">Light</text>
  <text style="stroke:none;fill:black;font-family:-apple-system,&quot;SF Pro Display&quot;,&quot;SF Pro Text&quot;,Helvetica,sans-serif;text-anchor:middle;" transform="matrix(1 0 0 1 1449.84 322)">Regular</text>
  <text style="stroke:none;fill:black;font-family:-apple-system,&quot;SF Pro Display&quot;,&quot;SF Pro Text&quot;,Helvetica,sans-serif;text-anchor:middle;" transform="matrix(1 0 0 1 1746.56 322)">Medium</text>
  <text style="stroke:none;fill:black;font-family:-apple-system,&quot;SF Pro Display&quot;,&quot;SF Pro Text&quot;,Helvetica,sans-serif;text-anchor:middle;" transform="matrix(1 0 0 1 2043.27 322)">Semibold</text>
  <text style="stroke:none;fill:black;font-family:-apple-system,&quot;SF Pro Display&quot;,&quot;SF Pro Text&quot;,Helvetica,sans-serif;text-anchor:middle;" transform="matrix(1 0 0 1 2339.98 322)">Bold</text>
  <text style="stroke:none;fill:black;font-family:-apple-system,&quot;SF Pro Display&quot;,&quot;SF Pro Text&quot;,Helvetica,sans-serif;text-anchor:middle;" transform="matrix(1 0 0 1 2636.69 322)">Heavy</text>
  <text style="stroke:none;fill:black;font-family:-apple-system,&quot;SF Pro Display&quot;,&quot;SF Pro Text&quot;,Helvetica,sans-serif;text-anchor:middle;" transform="matrix(1 0 0 1 2933.4 322)">Black</text>
  <line id="" style="fill:none;stroke:black;opacity:1;stroke-width:0.5;" x1="263" x2="3036" y1="1903" y2="1903"/>
  <g id="" transform="matrix(1 0 0 1 263 1933)">
   <path d="M 9.24805 0.830078 C 13.5547 0.830078 17.1387 -2.74414 17.1387 -7.05078 C 17.1387 -11.3574 13.5449 -14.9316 9.23828 -14.9316 C 4.94141 -14.9316 1.36719 -11.3574 1.36719 -7.05078 C 1.36719 -2.74414 4.95117 0.830078 9.24805 0.830078 Z M 9.24805 -0.654297 C 5.70312 -0.654297 2.87109 -3.49609 2.87109 -7.05078 C 2.87109 -10.6055 5.69336 -13.4473 9.23828 -13.4473 C 12.793 -13.4473 15.6348 -10.6055 15.6445 -7.05078 C 15.6543 -3.49609 12.8027 -0.654297 9.24805 -0.654297 Z M 9.22852 -3.62305 C 9.69727 -3.62305 9.9707 -3.93555 9.9707 -4.45312 L 9.9707 -6.31836 L 12.002 -6.31836 C 12.5 -6.31836 12.832 -6.57227 12.832 -7.04102 C 12.832 -7.51953 12.5195 -7.7832 12.002 -7.7832 L 9.9707 -7.7832 L 9.9707 -9.81445 C 9.9707 -10.332 9.69727 -10.6543 9.22852 -10.6543 C 8.75977 -10.6543 8.50586 -10.3125 8.50586 -9.81445 L 8.50586 -7.7832 L 6.49414 -7.7832 C 5.97656 -7.7832 5.64453 -7.51953 5.64453 -7.04102 C 5.64453 -6.57227 5.99609 -6.31836 6.49414 -6.31836 L 8.50586 -6.31836 L 8.50586 -4.45312 C 8.50586 -3.95508 8.75977 -3.62305 9.22852 -3.62305 Z"/>
  </g>
  <g id="" transform="matrix(1 0 0 1 281.506 1933)">
   <path d="M 11.709 2.91016 C 17.1582 2.91016 21.6699 -1.61133 21.6699 -7.05078 C 21.6699 -12.5 17.1484 -17.0117 11.6992 -17.0117 C 6.25977 -17.0117 1.74805 -12.5 1.74805 -7.05078 C 1.74805 -1.61133 6.26953 2.91016 11.709 2.91016 Z M 11.709 1.25 C 7.09961 1.25 3.41797 -2.44141 3.41797 -7.05078 C 3.41797 -11.6602 7.08984 -15.3516 11.6992 -15.3516 C 16.3086 -15.3516 20 -11.6602 20.0098 -7.05078 C 20.0195 -2.44141 16.3184 1.25 11.709 1.25 Z M 11.6797 -2.66602 C 12.207 -2.66602 12.5098 -3.01758 12.5098 -3.59375 L 12.5098 -6.23047 L 15.3223 -6.23047 C 15.8691 -6.23047 16.25 -6.51367 16.25 -7.03125 C 16.25 -7.55859 15.8887 -7.86133 15.3223 -7.86133 L 12.5098 -7.86133 L 12.5098 -10.6836 C 12.5098 -11.25 12.207 -11.6113 11.6797 -11.6113 C 11.1621 -11.6113 10.8789 -11.2305 10.8789 -10.6836 L 10.8789 -7.86133 L 8.07617 -7.86133 C 7.50977 -7.86133 7.13867 -7.55859 7.13867 -7.03125 C 7.13867 -6.51367 7.5293 -6.23047 8.07617 -6.23047 L 10.8789 -6.23047 L 10.8789 -3.59375 C 10.8789 -3.03711 11.1621 -2.66602 11.6797 -2.66602 Z"/>
  </g>
  <g id="" transform="matrix(1 0 0 1 304.924 1933)">
   <path d="M 14.9707 5.66406 C 21.9336 5.66406 27.6953 -0.0976562 27.6953 -7.05078 C 27.6953 -14.0137 21.9238 -19.7754 14.9609 -19.7754 C 8.00781 -19.7754 2.25586 -14.0137 2.25586 -7.05078 C 2.25586 -0.0976562 8.01758 5.66406 14.9707 5.66406 Z M 14.9707 3.84766 C 8.93555 3.84766 4.08203 -1.01562 4.08203 -7.05078 C 4.08203 -13.0957 8.92578 -17.9492 14.9609 -17.9492 C 21.0059 -17.9492 25.8594 -13.0957 25.8691 -7.05078 C 25.8789 -1.01562 21.0156 3.84766 14.9707 3.84766 Z M 14.9414 -1.38672 C 15.5176 -1.38672 15.8594 -1.77734 15.8594 -2.38281 L 15.8594 -6.13281 L 19.7754 -6.13281 C 20.3711 -6.13281 20.7812 -6.46484 20.7812 -7.02148 C 20.7812 -7.59766 20.3906 -7.93945 19.7754 -7.93945 L 15.8594 -7.93945 L 15.8594 -11.8652 C 15.8594 -12.4805 15.5176 -12.8711 14.9414 -12.8711 C 14.375 -12.8711 14.0527 -12.4609 14.0527 -11.8652 L 14.0527 -7.93945 L 10.1465 -7.93945 C 9.53125 -7.93945 9.13086 -7.59766 9.13086 -7.02148 C 9.13086 -6.46484 9.55078 -6.13281 10.1465 -6.13281 L 14.0527 -6.13281 L 14.0527 -2.38281 C 14.0527 -1.79688 14.375 -1.38672 14.9414 -1.38672 Z"/>
  </g>
  <text style="stroke:none;fill:black;font-family:-apple-system,&quot;SF Pro Display&quot;,&quot;SF Pro Text&quot;,Helvetica,sans-serif;font-weight:bold;" transform="matrix(1 0 0 1 263 1953)">Design Variations</text>
  <text style="stroke:none;fill:black;font-family:-apple-system,&quot;SF Pro Display&quot;,&quot;SF Pro Text&quot;,Helvetica,sans-serif;" transform="matrix(1 0 0 1 263 1971)">Symbols are supported in up to nine weights and three scales.</text>
  <text style="stroke:none;fill:black;font-family:-apple-system,&quot;SF Pro Display&quot;,&quot;SF Pro Text&quot;,Helvetica,sans-serif;" transform="matrix(1 0 0 1 263 1989)">For optimal layout with text and other symbols, vertically align</text>
  <text style="stroke:none;fill:black;font-family:-apple-system,&quot;SF Pro Display&quot;,&quot;SF Pro Text&quot;,Helvetica,sans-serif;" transform="matrix(1 0 0 1 263 2007)">symbols with the adjacent text.</text>
  <line id="" style="fill:none;stroke:#00AEEF;stroke-width:0.5;opacity:1.0;" x1="776" x2="776" y1="1919" y2="1933"/>
  <g id="" transform="matrix(1 0 0 1 776 1933)">
   <path d="M 3.31055 0.126953 C 3.82812 0.126953 4.08203 -0.0683594 4.26758 -0.605469 L 5.52734 -4.0625 L 11.2891 -4.0625 L 12.5488 -0.605469 C 12.7344 -0.0683594 12.9883 0.126953 13.4961 0.126953 C 14.0137 0.126953 14.3457 -0.185547 14.3457 -0.673828 C 14.3457 -0.839844 14.3164 -0.986328 14.2383 -1.20117 L 9.6582 -13.3887 C 9.43359 -13.9941 9.0332 -14.2871 8.4082 -14.2871 C 7.80273 -14.2871 7.39258 -13.9941 7.17773 -13.3984 L 2.59766 -1.19141 C 2.51953 -0.976562 2.49023 -0.830078 2.49023 -0.664062 C 2.49023 -0.175781 2.80273 0.126953 3.31055 0.126953 Z M 6.00586 -5.53711 L 8.37891 -12.1094 L 8.42773 -12.1094 L 10.8008 -5.53711 Z"/>
  </g>
  <line id="" style="fill:none;stroke:#00AEEF;stroke-width:0.5;opacity:1.0;" x1="792.836" x2="792.836" y1="1919" y2="1933"/>
  <text style="stroke:none;fill:black;font-family:-apple-system,&quot;SF Pro Display&quot;,&quot;SF Pro Text&quot;,Helvetica,sans-serif;font-weight:bold;" transform="matrix(1 0 0 1 776 1953)">Margins</text>
  <text style="stroke:none;fill:black;font-family:-apple-system,&quot;SF Pro Display&quot;,&quot;SF Pro Text&quot;,Helvetica,sans-serif;" transform="matrix(1 0 0 1 776 1971)">Leading and trailing margins on the left and right side of each symbol</text>
  <text style="stroke:none;fill:black;font-family:-apple-system,&quot;SF Pro Display&quot;,&quot;SF Pro Text&quot;,Helvetica,sans-serif;" transform="matrix(1 0 0 1 776 1989)">can be adjusted by modifying the x-location of the margin guidelines.</text>
  <text style="stroke:none;fill:black;font-family:-apple-system,&quot;SF Pro Display&quot;,&quot;SF Pro Text&quot;,Helvetica,sans-serif;" transform="matrix(1 0 0 1 776 2007)">Modifications are automatically applied proportionally to all</text>
  <text style="stroke:none;fill:black;font-family:-apple-system,&quot;SF Pro Display&quot;,&quot;SF Pro Text&quot;,Helvetica,sans-serif;" transform="matrix(1 0 0 1 776 2025)">scales and weights.</text>
  <g id="" transform="matrix(1 0 0 1 1289 1933)">
   <path d="M 2.8418 1.86523 L 4.54102 3.57422 C 5.40039 4.44336 6.38672 4.38477 7.31445 3.35938 L 17.4902 -7.85156 C 17.7539 -7.76367 18.0273 -7.7832 18.3398 -7.8418 L 19.4043 -8.03711 L 20.0684 -7.36328 L 20.0293 -6.80664 C 19.9902 -6.30859 20.1172 -5.92773 20.6055 -5.44922 L 21.3672 -4.70703 C 21.8457 -4.22852 22.4609 -4.19922 22.9297 -4.66797 L 25.8398 -7.58789 C 26.3086 -8.05664 26.2891 -8.65234 25.8105 -9.13086 L 25.0391 -9.89258 C 24.5605 -10.3711 24.1895 -10.5273 23.7109 -10.4883 L 23.1348 -10.4395 L 22.4902 -11.0742 L 22.7344 -12.1973 C 22.8613 -12.7637 22.7051 -13.2031 22.1191 -13.7891 L 19.9219 -15.9766 C 16.582 -19.2969 12.1484 -19.2188 9.25781 -16.3281 C 8.83789 -15.918 8.80859 -15.3418 9.04297 -14.9512 C 9.27734 -14.5898 9.73633 -14.3555 10.3809 -14.5215 C 11.8457 -14.8633 13.3691 -14.9219 14.7949 -13.9844 L 14.209 -12.5293 C 14.0137 -12.0508 13.9844 -11.6504 14.1113 -11.2891 L 3.04688 -0.898438 C 2.06055 0.0195312 1.98242 0.996094 2.8418 1.86523 Z M 10.752 -15.957 C 13.1836 -17.7344 16.4746 -17.4316 18.7012 -15.2051 L 21.1328 -12.793 C 21.3672 -12.5586 21.4062 -12.373 21.3379 -12.0312 L 21.0156 -10.5469 L 22.5195 -9.0625 L 23.5059 -9.12109 C 23.7598 -9.13086 23.8379 -9.11133 24.0332 -8.91602 L 24.6094 -8.33984 L 22.168 -5.89844 L 21.5918 -6.47461 C 21.3965 -6.66992 21.3672 -6.74805 21.377 -7.01172 L 21.4453 -7.98828 L 19.9512 -9.47266 L 18.4277 -9.21875 C 18.1055 -9.15039 17.959 -9.17969 17.7148 -9.41406 L 15.7129 -11.416 C 15.459 -11.6504 15.4297 -11.8164 15.5859 -12.1875 L 16.4648 -14.2773 C 14.9023 -15.7324 12.8711 -16.3574 10.8398 -15.7617 C 10.6836 -15.7227 10.625 -15.8496 10.752 -15.957 Z M 5.27344 2.30469 L 4.10156 1.14258 C 3.63281 0.683594 3.74023 0.341797 4.14062 -0.0195312 L 14.9512 -10.1953 L 16.416 -8.71094 L 6.42578 2.27539 C 6.07422 2.67578 5.74219 2.77344 5.27344 2.30469 Z"/>
  </g>
  <text style="stroke:none;fill:black;font-family:-apple-system,&quot;SF Pro Display&quot;,&quot;SF Pro Text&quot;,Helvetica,sans-serif;font-weight:bold;" transform="matrix(1 0 0 1 1289 1953)">Exporting</text>
  <text style="stroke:none;fill:black;font-family:-apple-system,&quot;SF Pro Display&quot;,&quot;SF Pro Text&quot;,Helvetica,sans-serif;" transform="matrix(1 0 0 1 1289 1971)">Symbols should be outlined when exporting to ensure the</text>
  <text style="stroke:none;fill:black;font-family:-apple-system,&quot;SF Pro Display&quot;,&quot;SF Pro Text&quot;,Helvetica,sans-serif;" transform="matrix(1 0 0 1 1289 1989)">design is preserved when submitting to Xcode.</text>
  <text id="template-version" style="stroke:none;fill:black;font-family:-apple-system,&quot;SF Pro Display&quot;,&quot;SF Pro Text&quot;,Helvetica,sans-serif;text-anchor:end;" transform="matrix(1 0 0 1 3036 1933)">Template v.2.0</text>
  <text style="stroke:none;fill:black;font-family:-apple-system,&quot;SF Pro Display&quot;,&quot;SF Pro Text&quot;,Helvetica,sans-serif;text-anchor:end;" transform="matrix(1 0 0 1 3036 1951)">Requires Xcode 12 or greater</text>
  <text style="stroke:none;fill:black;font-family:-apple-system,&quot;SF Pro Display&quot;,&quot;SF Pro Text&quot;,Helvetica,sans-serif;text-anchor:end;" transform="matrix(1 0 0 1 3036 1969)">Generated from eye.slash</text>
  <text style="stroke:none;fill:black;font-family:-apple-system,&quot;SF Pro Display&quot;,&quot;SF Pro Text&quot;,Helvetica,sans-serif;text-anchor:end;" transform="matrix(1 0 0 1 3036 1987)">Typeset at 100 points</text>
  <text style="stroke:none;fill:black;font-family:-apple-system,&quot;SF Pro Display&quot;,&quot;SF Pro Text&quot;,Helvetica,sans-serif;" transform="matrix(1 0 0 1 263 726)">Small</text>
  <text style="stroke:none;fill:black;font-family:-apple-system,&quot;SF Pro Display&quot;,&quot;SF Pro Text&quot;,Helvetica,sans-serif;" transform="matrix(1 0 0 1 263 1156)">Medium</text>
  <text style="stroke:none;fill:black;font-family:-apple-system,&quot;SF Pro Display&quot;,&quot;SF Pro Text&quot;,Helvetica,sans-serif;" transform="matrix(1 0 0 1 263 1586)">Large</text>
 </g>
 <g id="Guides">
  <g id="H-reference" style="fill:#27AAE1;stroke:none;" transform="matrix(1 0 0 1 339 696)">
   <path d="M 0.976562 0 L 3.66211 0 L 12.9883 -24.4629 L 45.7031 -24.4629 L 55.0781 0 L 57.7148 0 L 30.6152 -70.459 L 28.125 -70.459 Z M 29.2969 -67.1387 L 29.3945 -67.1387 L 44.873 -26.709 L 13.8672 -26.709 Z"/>
  </g>
  <line id="Baseline-S" style="fill:none;stroke:#27AAE1;opacity:1;stroke-width:0.5;" x1="263" x2="3036" y1="696" y2="696"/>
  <line id="Capline-S" style="fill:none;stroke:#27AAE1;opacity:1;stroke-width:0.5;" x1="263" x2="3036" y1="625.541" y2="625.541"/>
  <g id="H-reference" style="fill:#27AAE1;stroke:none;" transform="matrix(1 0 0 1 339 1126)">
   <path d="M 0.976562 0 L 3.66211 0 L 12.9883 -24.4629 L 45.7031 -24.4629 L 55.0781 0 L 57.7148 0 L 30.6152 -70.459 L 28.125 -70.459 Z M 29.2969 -67.1387 L 29.3945 -67.1387 L 44.873 -26.709 L 13.8672 -26.709 Z"/>
  </g>
  <line id="Baseline-M" style="fill:none;stroke:#27AAE1;opacity:1;stroke-width:0.5;" x1="263" x2="3036" y1="1126" y2="1126"/>
  <line id="Capline-M" style="fill:none;stroke:#27AAE1;opacity:1;stroke-width:0.5;" x1="263" x2="3036" y1="1055.54" y2="1055.54"/>
  <g id="H-reference" style="fill:#27AAE1;stroke:none;" transform="matrix(1 0 0 1 339 1556)">
   <path d="M 0.976562 0 L 3.66211 0 L 12.9883 -24.4629 L 45.7031 -24.4629 L 55.0781 0 L 57.7148 0 L 30.6152 -70.459 L 28.125 -70.459 Z M 29.2969 -67.1387 L 29.3945 -67.1387 L 44.873 -26.709 L 13.8672 -26.709 Z"/>
  </g>
  <line id="Baseline-L" style="fill:none;stroke:#27AAE1;opacity:1;stroke-width:0.5;" x1="263" x2="3036" y1="1556" y2="1556"/>
  <line id="Capline-L" style="fill:none;stroke:#27AAE1;opacity:1;stroke-width:0.5;" x1="263" x2="3036" y1="1485.54" y2="1485.54"/>
  <line id="left-margin" style="fill:none;stroke:#00AEEF;stroke-width:0.5;opacity:1.0;" x1="1373.16" x2="1373.16" y1="1030.79" y2="1150.12"/>
  <line id="right-margin" style="fill:none;stroke:#00AEEF;stroke-width:0.5;opacity:1.0;" x1="1526.53" x2="1526.53" y1="1030.79" y2="1150.12"/>
 </g>
 <g id="Symbols">
  <g id="Black-L" transform="matrix(1 0 0 1 2832.11 1556)">
   <path d="M 152.832 23.9258 C 155.127 26.2207 158.74 26.2695 160.986 23.9258 C 163.232 21.6309 163.232 18.0664 160.986 15.8203 L 49.9023 -95.166 C 47.6562 -97.4121 43.9453 -97.4121 41.6992 -95.166 C 39.502 -93.0176 39.502 -89.209 41.6992 -87.0605 Z M 101.27 -91.5039 C 90.332 -91.5039 80.2734 -89.6973 71.0938 -86.8164 L 87.5 -70.3613 C 91.8945 -71.2402 96.5332 -71.7773 101.27 -71.7773 C 137.158 -71.7773 163.965 -41.8945 163.965 -35.1074 C 163.965 -30.8105 156.738 -21.0938 144.775 -12.793 L 159.863 2.44141 C 179.004 -10.9375 189.697 -27.832 189.697 -35.1074 C 189.697 -48.1445 155.664 -91.5039 101.27 -91.5039 Z M 101.27 21.2891 C 112.5 21.2891 122.9 19.5312 132.227 16.5039 L 115.869 0 C 111.23 0.976562 106.348 1.5625 101.27 1.5625 C 65.332 1.5625 38.623 -26.7578 38.623 -35.1074 C 38.623 -38.6719 46.2402 -48.8281 58.7891 -57.4707 L 43.4082 -72.8516 C 24.0234 -59.4238 12.8906 -42.4805 12.8906 -35.1074 C 12.8906 -22.1191 47.8027 21.2891 101.27 21.2891 Z M 129.932 -28.8086 C 130.469 -30.8105 130.762 -32.959 130.762 -35.2051 C 130.762 -51.4648 117.725 -64.5508 101.318 -64.5508 C 99.0723 -64.5508 97.0215 -64.2578 94.9707 -63.7207 Z M 101.27 -5.66406 C 103.857 -5.66406 106.25 -6.10352 108.496 -6.78711 L 72.9492 -42.334 C 72.2168 -40.0879 71.8262 -37.6953 71.8262 -35.0586 C 71.8262 -19.1406 84.9609 -5.66406 101.27 -5.66406 Z"/>
  </g>
  <g id="Heavy-L" transform="matrix(1 0 0 1 2536.15 1556)">
   <path d="M 151.66 22.9004 C 153.76 25 157.178 25.0488 159.229 22.9004 C 161.377 20.7031 161.377 17.3828 159.229 15.2832 L 49.3164 -94.5801 C 47.2168 -96.6797 43.75 -96.6797 41.6504 -94.5801 C 39.6484 -92.5293 39.6484 -89.0137 41.6504 -86.9629 Z M 100.537 -90.8691 C 89.502 -90.8691 79.3945 -89.0137 70.166 -85.9863 L 84.375 -71.7285 C 89.502 -72.998 94.8242 -73.7793 100.537 -73.7793 C 137.939 -73.7793 166.26 -42.2363 166.26 -35.1562 C 166.26 -30.6152 158.057 -19.7266 144.629 -10.791 L 157.764 2.39258 C 177.1 -10.8398 188.184 -27.832 188.184 -35.1562 C 188.184 -48.0957 153.906 -90.8691 100.537 -90.8691 Z M 100.537 20.6055 C 111.914 20.6055 122.412 18.75 131.885 15.5762 L 117.676 1.26953 C 112.256 2.68555 106.543 3.51562 100.537 3.51562 C 63.0859 3.51562 34.8145 -26.6113 34.8145 -35.1562 C 34.8145 -38.9648 43.4082 -50.3418 57.4707 -59.6191 L 44.1406 -72.998 C 24.3652 -59.668 12.8906 -42.5781 12.8906 -35.1562 C 12.8906 -22.168 47.9492 20.6055 100.537 20.6055 Z M 129.883 -26.8066 C 130.859 -29.3945 131.396 -32.2266 131.396 -35.2051 C 131.396 -52.2949 117.676 -65.918 100.586 -65.918 C 97.5586 -65.918 94.7754 -65.4297 92.1875 -64.502 Z M 100.537 -4.29688 C 103.857 -4.29688 106.982 -4.98047 109.863 -6.15234 L 71.4844 -44.5312 C 70.3125 -41.6504 69.6777 -38.5254 69.6777 -35.1074 C 69.6777 -18.4082 83.3984 -4.29688 100.537 -4.29688 Z"/>
  </g>
  <g id="Bold-L" transform="matrix(1 0 0 1 2240.32 1556)">
   <path d="M 150.293 21.6797 C 152.246 23.6328 155.371 23.6816 157.324 21.6797 C 159.326 19.6289 159.277 16.6016 157.324 14.6973 L 48.6816 -93.8965 C 46.7773 -95.8008 43.6035 -95.8496 41.6016 -93.8965 C 39.7461 -91.9922 39.7461 -88.7695 41.6016 -86.8652 Z M 99.6582 -90.1855 C 88.5254 -90.1855 78.4668 -88.2324 69.1406 -85.1074 L 80.9082 -73.291 C 86.8652 -75 92.9688 -75.9766 99.6582 -75.9766 C 138.818 -75.9766 168.799 -42.5781 168.799 -35.1562 C 168.799 -30.3223 159.521 -18.2129 144.482 -8.54492 L 155.371 2.39258 C 175.049 -10.7422 186.426 -27.7832 186.426 -35.1562 C 186.426 -48.0469 151.953 -90.1855 99.6582 -90.1855 Z M 99.6582 19.873 C 111.279 19.873 121.875 17.8711 131.494 14.5508 L 119.727 2.73438 C 113.428 4.58984 106.836 5.66406 99.6582 5.66406 C 60.5469 5.66406 30.5176 -26.416 30.5176 -35.1562 C 30.5176 -39.3066 40.2344 -52.0508 56.0547 -62.0605 L 44.9707 -73.0957 C 24.7559 -59.9121 12.8906 -42.627 12.8906 -35.1562 C 12.8906 -22.2656 48.0957 19.873 99.6582 19.873 Z M 129.834 -24.5117 C 131.299 -27.7832 132.08 -31.3965 132.08 -35.2051 C 132.08 -53.1738 117.627 -67.4805 99.707 -67.4805 C 95.8496 -67.4805 92.2852 -66.748 89.0137 -65.332 Z M 99.6582 -2.7832 C 103.906 -2.7832 107.861 -3.75977 111.377 -5.41992 L 69.873 -46.9727 C 68.1641 -43.4082 67.2363 -39.4531 67.2363 -35.1074 C 67.2852 -17.5781 81.6406 -2.7832 99.6582 -2.7832 Z"/>
  </g>
  <g id="Semibold-L" transform="matrix(1 0 0 1 1944.19 1556)">
   <path d="M 149.365 20.8496 C 151.221 22.7051 154.15 22.7539 156.006 20.8496 C 157.91 18.8965 157.812 16.1133 156.006 14.2578 L 48.2422 -93.4082 C 46.4355 -95.2148 43.457 -95.2637 41.6016 -93.4082 C 39.8438 -91.6504 39.8438 -88.5742 41.6016 -86.8164 Z M 99.0723 -89.6973 C 87.8418 -89.6973 77.832 -87.6953 68.4082 -84.4727 L 78.5156 -74.4141 C 85.0098 -76.3672 91.6504 -77.5391 99.0723 -77.5391 C 139.404 -77.5391 170.557 -42.7734 170.557 -35.1562 C 170.557 -30.1758 160.547 -17.1875 144.385 -7.03125 L 153.711 2.39258 C 173.584 -10.6445 185.254 -27.7832 185.254 -35.1562 C 185.254 -47.998 150.586 -89.6973 99.0723 -89.6973 Z M 99.0723 19.3359 C 110.84 19.3359 121.484 17.2852 131.201 13.8672 L 121.143 3.75977 C 114.258 5.9082 106.982 7.17773 99.0723 7.17773 C 58.7891 7.17773 27.5879 -26.3184 27.5879 -35.1562 C 27.5879 -39.5508 38.0371 -53.2227 55.0293 -63.7207 L 45.5566 -73.1934 C 25 -60.1074 12.8906 -42.6758 12.8906 -35.1562 C 12.8906 -22.3633 48.2422 19.3359 99.0723 19.3359 Z M 129.785 -22.9492 C 131.592 -26.6602 132.568 -30.8594 132.568 -35.2051 C 132.568 -53.8086 117.627 -68.5547 99.1211 -68.5547 C 94.6777 -68.5547 90.5762 -67.627 86.8164 -65.918 Z M 99.0723 -1.75781 C 103.906 -1.75781 108.447 -2.92969 112.451 -4.93164 L 68.75 -48.6816 C 66.6992 -44.6289 65.5762 -40.0879 65.5762 -35.1562 C 65.625 -16.9922 80.4688 -1.75781 99.0723 -1.75781 Z"/>
  </g>
  <g id="Medium-L" transform="matrix(1 0 0 1 1647.95 1556)">
   <path d="M 148.682 20.2637 C 150.439 21.9727 153.223 22.0703 154.98 20.2637 C 156.836 18.3594 156.738 15.6738 154.98 13.9648 L 47.9492 -93.0664 C 46.1914 -94.7754 43.3594 -94.8242 41.6016 -93.0664 C 39.8926 -91.3574 39.8926 -88.4277 41.6016 -86.7676 Z M 98.6328 -89.3066 C 87.3535 -89.3066 77.3438 -87.3047 67.8711 -84.0332 L 76.6602 -75.1953 C 83.6426 -77.3926 90.6738 -78.7109 98.6328 -78.7109 C 139.893 -78.7109 171.875 -42.9688 171.875 -35.1562 C 171.875 -30.0293 161.279 -16.3574 144.287 -5.85938 L 152.49 2.34375 C 172.51 -10.5957 184.326 -27.7344 184.326 -35.1562 C 184.326 -47.998 149.512 -89.3066 98.6328 -89.3066 Z M 98.6328 18.9453 C 110.498 18.9453 121.191 16.7969 131.006 13.3301 L 122.217 4.54102 C 114.844 6.88477 107.129 8.30078 98.6328 8.30078 C 57.4219 8.30078 25.3418 -26.2207 25.3418 -35.1562 C 25.3418 -39.7461 36.377 -54.1016 54.2969 -64.9902 L 45.9961 -73.291 C 25.1953 -60.2051 12.8906 -42.7246 12.8906 -35.1562 C 12.8906 -22.4121 48.291 18.9453 98.6328 18.9453 Z M 129.785 -21.7773 C 131.787 -25.7812 132.91 -30.4199 132.91 -35.2051 C 132.91 -54.248 117.578 -69.3848 98.6328 -69.3848 C 93.7988 -69.3848 89.2578 -68.3105 85.1562 -66.3574 Z M 98.6328 -0.976562 C 103.906 -0.976562 108.887 -2.29492 113.281 -4.58984 L 67.8711 -49.9512 C 65.5762 -45.5566 64.3066 -40.5762 64.3066 -35.1562 C 64.3555 -16.5527 79.541 -0.976562 98.6328 -0.976562 Z"/>
  </g>
  <g id="Regular-L" transform="matrix(1 0 0 1 1351.82 1556)">
   <path d="M 147.754 19.4336 C 149.414 21.0449 152.002 21.1426 153.662 19.4336 C 155.42 17.627 155.273 15.1855 153.662 13.5254 L 47.5098 -92.5781 C 45.8984 -94.1895 43.2129 -94.2383 41.5527 -92.5781 C 39.9902 -91.0156 39.9902 -88.2812 41.5527 -86.6699 Z M 98.0469 -88.8184 C 86.7188 -88.8184 76.709 -86.7676 67.1875 -83.3984 L 74.3164 -76.2695 C 81.8359 -78.7109 89.4043 -80.2246 98.0469 -80.2246 C 140.479 -80.2246 173.633 -43.2129 173.633 -35.2051 C 173.633 -29.834 162.305 -15.332 144.189 -4.3457 L 150.879 2.34375 C 171.045 -10.5469 183.154 -27.7344 183.154 -35.2051 C 183.154 -47.9492 148.193 -88.8184 98.0469 -88.8184 Z M 98.0469 18.457 C 110.01 18.457 120.801 16.2109 130.762 12.6465 L 123.633 5.51758 C 115.674 8.1543 107.275 9.81445 98.0469 9.81445 C 55.7129 9.81445 22.4121 -26.0742 22.4121 -35.2051 C 22.4121 -39.9902 34.2285 -55.2246 53.2715 -66.6504 L 46.5332 -73.3887 C 25.4883 -60.4004 12.8906 -42.8223 12.8906 -35.2051 C 12.8906 -22.4609 48.4375 18.457 98.0469 18.457 Z M 129.736 -20.2148 C 132.08 -24.707 133.398 -29.834 133.398 -35.2051 C 133.398 -54.8828 117.578 -70.4102 98.0469 -70.4102 C 92.627 -70.4102 87.5488 -69.1895 83.0078 -66.9434 Z M 98.0469 0.0488281 C 103.955 0.0488281 109.473 -1.46484 114.307 -4.10156 L 66.748 -51.6602 C 64.1113 -46.7773 62.6465 -41.2109 62.6465 -35.2051 C 62.6953 -16.0156 78.3691 0.0488281 98.0469 0.0488281 Z"/>
  </g>
  <g id="Light-L" transform="matrix(1 0 0 1 1056.38 1556)">
   <path d="M 147.51 19.4824 C 148.779 20.752 150.781 20.8008 152.051 19.4824 C 153.418 18.0664 153.32 16.2109 152.051 14.9414 L 44.7754 -92.334 C 43.5547 -93.5547 41.5039 -93.6523 40.1855 -92.334 C 38.9648 -91.0645 38.9648 -89.0137 40.1855 -87.7441 Z M 96.7773 -88.3301 C 84.8633 -88.3301 74.7559 -85.9863 64.8926 -82.2754 L 70.4102 -76.7578 C 78.7109 -79.6875 86.9141 -81.543 96.7773 -81.543 C 140.479 -81.543 173.096 -43.8965 173.096 -35.2051 C 173.096 -29.541 161.328 -13.9648 142.285 -2.49023 L 147.51 2.73438 C 168.115 -10.1562 180.615 -27.6855 180.615 -35.2051 C 180.615 -47.7539 145.801 -88.3301 96.7773 -88.3301 Z M 96.7773 17.9688 C 109.082 17.9688 119.922 15.5273 130.078 11.7188 L 124.512 6.10352 C 115.918 9.17969 106.934 11.1328 96.7773 11.1328 C 53.2227 11.1328 20.4102 -25.7812 20.4102 -35.2051 C 20.4102 -40.5273 32.373 -56.543 52.0996 -68.2617 L 46.875 -73.4863 C 25.6348 -60.5469 12.8906 -42.7734 12.8906 -35.2051 C 12.8906 -22.6562 48.0469 17.9688 96.7773 17.9688 Z M 127.588 -18.6035 C 130.469 -23.4863 132.08 -29.1992 132.08 -35.2051 C 132.08 -54.834 116.162 -70.4102 96.7773 -70.4102 C 90.6738 -70.4102 85.0098 -68.8477 80.0781 -66.0645 Z M 96.7773 0 C 103.076 0 109.033 -1.75781 114.111 -4.78516 L 66.1133 -52.7832 C 63.0859 -47.6562 61.377 -41.6504 61.377 -35.2051 C 61.4746 -16.0156 77.1484 0 96.7773 0 Z"/>
  </g>
  <g id="Thin-L" transform="matrix(1 0 0 1 761.378 1556)">
   <path d="M 147.119 19.5801 C 147.9 20.3125 149.17 20.3613 149.902 19.5801 C 150.781 18.7012 150.684 17.5293 149.902 16.748 L 41.1621 -91.9922 C 40.4785 -92.6758 39.209 -92.8223 38.3789 -91.9922 C 37.5977 -91.2109 37.5977 -89.9414 38.3789 -89.1602 Z M 95.0684 -87.6953 C 82.4707 -87.6953 72.2168 -85.0098 61.8652 -80.7617 L 65.2344 -77.3926 C 74.6094 -81.0059 83.6426 -83.3008 95.0684 -83.3008 C 140.527 -83.3008 172.412 -44.8242 172.412 -35.2051 C 172.412 -29.1016 160.059 -12.1094 139.795 -0.0976562 L 143.115 3.22266 C 164.16 -9.61914 177.197 -27.6367 177.197 -35.2051 C 177.197 -47.4609 142.627 -87.6953 95.0684 -87.6953 Z M 95.0684 17.334 C 107.812 17.334 118.799 14.5996 129.248 10.4004 L 125.732 6.88477 C 116.309 10.5469 106.445 12.8418 95.0684 12.8418 C 49.9512 12.8418 17.7246 -25.3906 17.7246 -35.2051 C 17.7246 -41.2109 29.9316 -58.3008 50.5371 -70.4102 L 47.2656 -73.6816 C 25.8789 -60.791 12.8906 -42.7734 12.8906 -35.2051 C 12.8906 -22.9004 47.5098 17.334 95.0684 17.334 Z M 124.707 -16.4551 C 128.32 -21.875 130.371 -28.3203 130.371 -35.2051 C 130.371 -54.7363 114.307 -70.3613 95.0684 -70.3613 C 88.1348 -70.3613 81.6406 -68.3594 76.2207 -64.9414 Z M 95.0684 -0.0488281 C 101.953 -0.0488281 108.447 -2.09961 113.867 -5.66406 L 65.2832 -54.248 C 61.7188 -48.7793 59.7168 -42.2852 59.7168 -35.2051 C 59.8633 -16.0645 75.4883 -0.0488281 95.0684 -0.0488281 Z"/>
  </g>
  <g id="Ultralight-L" transform="matrix(1 0 0 1 465.546 1556)">
   <path d="M 146.924 19.5801 C 147.461 20.1172 148.34 20.1172 148.828 19.5801 C 149.414 18.9941 149.365 18.2129 148.828 17.6758 L 39.3555 -91.7969 C 38.916 -92.2363 38.0859 -92.4316 37.4512 -91.7969 C 36.9141 -91.2598 36.9141 -90.4297 37.4512 -89.8926 Z M 94.1895 -87.4023 C 81.2012 -87.4023 70.8984 -84.4727 60.3027 -80.0293 L 62.5977 -77.7344 C 72.5098 -81.6895 81.9824 -84.1797 94.1895 -84.1797 C 140.527 -84.1797 172.021 -45.3125 172.021 -35.2051 C 172.021 -28.9062 159.424 -11.1816 138.525 1.12305 L 140.869 3.4668 C 162.158 -9.32617 175.439 -27.6367 175.439 -35.2051 C 175.439 -47.3633 141.016 -87.4023 94.1895 -87.4023 Z M 94.1895 16.9922 C 107.129 16.9922 118.213 14.1113 128.809 9.76562 L 126.318 7.32422 C 116.504 11.2305 106.201 13.7207 94.1895 13.7207 C 48.291 13.7207 16.3086 -25.1953 16.3086 -35.2051 C 16.3086 -41.5527 28.7109 -59.1797 49.7559 -71.4844 L 47.5098 -73.7305 C 25.9766 -60.8887 12.8906 -42.7246 12.8906 -35.2051 C 12.8906 -23.0469 47.2656 16.9922 94.1895 16.9922 Z M 123.242 -15.3809 C 127.197 -21.0449 129.492 -27.8809 129.492 -35.2051 C 129.492 -54.7363 113.379 -70.3125 94.1895 -70.3125 C 86.8164 -70.3125 79.9316 -68.1152 74.2676 -64.3555 Z M 94.1895 -0.0488281 C 101.416 -0.0488281 108.105 -2.29492 113.77 -6.15234 L 64.8926 -55.0293 C 61.0352 -49.3652 58.8867 -42.5781 58.8867 -35.2051 C 59.0332 -16.0645 74.6582 -0.0488281 94.1895 -0.0488281 Z"/>
  </g>
  <g id="Black-M" transform="matrix(1 0 0 1 2854.57 1126)">
   <path d="M 119.873 12.1094 C 121.631 13.8672 124.512 13.8672 126.172 12.1094 C 127.881 10.3516 127.93 7.56836 126.172 5.81055 L 37.9395 -82.373 C 36.1816 -84.1309 33.3496 -84.1309 31.5918 -82.373 C 29.9316 -80.7129 29.9316 -77.7832 31.5918 -76.0742 Z M 78.8086 -79.4434 C 70.166 -79.4434 62.2559 -77.9785 55.0781 -75.6836 L 69.9219 -60.791 C 72.7051 -61.2793 75.7324 -61.5723 78.8086 -61.5723 C 105.225 -61.5723 123.682 -40.3809 123.682 -35.1562 C 123.682 -31.9824 119.141 -25.3906 111.377 -19.5801 L 125 -5.81055 C 139.6 -16.3086 147.705 -29.541 147.705 -35.1562 C 147.705 -45.166 121.729 -79.4434 78.8086 -79.4434 Z M 78.8086 9.22852 C 87.4512 9.22852 95.4102 7.86133 102.588 5.56641 L 87.7441 -9.375 C 84.9121 -8.93555 81.8848 -8.64258 78.8086 -8.64258 C 52.3438 -8.64258 33.9844 -28.7109 33.9844 -35.1562 C 33.9844 -37.7441 38.623 -44.4336 46.6309 -50.4395 L 32.7637 -64.3066 C 18.2129 -53.7598 9.96094 -40.7227 9.96094 -35.1562 C 9.96094 -25.0488 36.6211 9.22852 78.8086 9.22852 Z M 99.5605 -32.1289 C 99.707 -33.1055 99.7559 -34.1309 99.7559 -35.2051 C 99.7559 -46.6797 90.4785 -56.0547 78.8574 -56.0547 C 77.7832 -56.0547 76.8555 -56.0059 75.8301 -55.8105 Z M 78.8086 -14.1602 C 79.9805 -14.1602 81.0547 -14.2578 82.0801 -14.4043 L 58.1543 -38.3789 C 58.0078 -37.3047 57.9102 -36.2305 57.9102 -35.0586 C 57.9102 -23.7305 67.2363 -14.1602 78.8086 -14.1602 Z"/>
  </g>
  <g id="Heavy-M" transform="matrix(1 0 0 1 2558.37 1126)">
   <path d="M 118.652 10.9375 C 120.361 12.5977 123.096 12.6465 124.707 10.9375 C 126.367 9.22852 126.416 6.54297 124.707 4.83398 L 38.0371 -81.7871 C 36.377 -83.4473 33.5938 -83.4473 31.9336 -81.7871 C 30.2734 -80.127 30.2734 -77.3438 31.9336 -75.6836 Z M 78.3203 -78.8574 C 69.7266 -78.8574 61.8652 -77.4414 54.6875 -75.0977 L 67.5293 -62.207 C 70.9473 -62.9395 74.5117 -63.4277 78.3203 -63.4277 C 106.055 -63.4277 126.318 -40.5273 126.318 -35.1562 C 126.318 -31.7871 120.85 -24.2676 111.719 -17.8711 L 123.535 -5.95703 C 138.33 -16.3086 146.68 -29.4922 146.68 -35.1562 C 146.68 -45.166 120.41 -78.8574 78.3203 -78.8574 Z M 78.3203 8.64258 C 87.0605 8.64258 95.1172 7.17773 102.393 4.83398 L 89.5508 -8.10547 C 85.9863 -7.32422 82.2266 -6.83594 78.3203 -6.83594 C 50.5371 -6.83594 30.3223 -28.6133 30.3223 -35.1562 C 30.3223 -37.9395 35.9863 -45.752 45.5078 -52.3438 L 33.4961 -64.4043 C 18.5547 -53.9551 9.96094 -40.8203 9.96094 -35.1562 C 9.96094 -25.0977 36.8652 8.64258 78.3203 8.64258 Z M 100.049 -30.3223 C 100.537 -31.8359 100.781 -33.4961 100.781 -35.2051 C 100.781 -47.6074 90.8203 -57.5684 78.3691 -57.5684 C 76.6113 -57.5684 75.0488 -57.373 73.4863 -56.8848 Z M 78.3203 -12.6953 C 80.2246 -12.6953 81.9824 -12.9883 83.6426 -13.5254 L 56.6895 -40.4785 C 56.1523 -38.8184 55.8594 -37.0605 55.8594 -35.1074 C 55.8594 -22.9492 65.8691 -12.6953 78.3203 -12.6953 Z"/>
  </g>
  <g id="Bold-M" transform="matrix(1 0 0 1 2262.22 1126)">
   <path d="M 117.285 9.61914 C 118.896 11.2305 121.484 11.2793 123.096 9.61914 C 124.707 7.91016 124.707 5.41992 123.096 3.80859 L 38.1348 -81.1035 C 36.5234 -82.7148 33.8867 -82.7148 32.2754 -81.1035 C 30.7129 -79.541 30.7129 -76.8555 32.2754 -75.293 Z M 77.7344 -78.2227 C 69.1895 -78.2227 61.377 -76.8066 54.1992 -74.4629 L 64.8438 -63.7695 C 68.9453 -64.8438 73.1934 -65.4785 77.7344 -65.4785 C 107.031 -65.4785 129.248 -40.6738 129.248 -35.1562 C 129.248 -31.5918 122.705 -22.998 112.061 -15.918 L 121.875 -6.05469 C 136.914 -16.3086 145.557 -29.4922 145.557 -35.1562 C 145.557 -45.166 118.945 -78.2227 77.7344 -78.2227 Z M 77.7344 7.95898 C 86.6211 7.95898 94.7754 6.44531 102.148 4.00391 L 91.5039 -6.68945 C 87.1582 -5.56641 82.6172 -4.83398 77.7344 -4.83398 C 48.4375 -4.83398 26.2207 -28.5156 26.2207 -35.1562 C 26.2207 -38.1836 33.1055 -47.2168 44.2871 -54.541 L 34.3262 -64.502 C 18.8965 -54.1992 9.96094 -40.918 9.96094 -35.1562 C 9.96094 -25.1465 37.1582 7.95898 77.7344 7.95898 Z M 100.635 -28.3203 C 101.465 -30.4199 101.953 -32.7637 101.953 -35.2051 C 101.953 -48.584 91.2109 -59.2773 77.7832 -59.2773 C 75.3418 -59.2773 73.0469 -58.8867 70.8984 -58.0566 Z M 77.7344 -11.0352 C 80.4688 -11.0352 83.0566 -11.5723 85.4004 -12.5488 L 55.127 -42.8223 C 54.1016 -40.4785 53.5645 -37.9395 53.5645 -35.1562 C 53.5645 -22.0215 64.3066 -11.0352 77.7344 -11.0352 Z"/>
  </g>
  <g id="Semibold-M" transform="matrix(1 0 0 1 1965.9 1126)">
   <path d="M 116.309 8.69141 C 117.871 10.2539 120.361 10.3027 121.973 8.69141 C 123.584 7.03125 123.486 4.63867 121.973 3.07617 L 38.1836 -80.6152 C 36.6699 -82.1777 34.082 -82.1777 32.5195 -80.6152 C 31.0059 -79.1016 31.0059 -76.5137 32.5195 -75 Z M 77.3438 -77.7832 C 68.8477 -77.7832 61.084 -76.3672 53.9062 -73.9746 L 62.9883 -64.8926 C 67.5781 -66.1133 72.2656 -66.8457 77.3438 -66.8457 C 107.666 -66.8457 131.299 -40.8203 131.299 -35.1562 C 131.299 -31.4453 124.023 -22.1191 112.354 -14.5996 L 120.752 -6.15234 C 135.938 -16.3086 144.775 -29.4434 144.775 -35.1562 C 144.775 -45.2148 117.92 -77.7832 77.3438 -77.7832 Z M 77.3438 7.4707 C 86.3281 7.4707 94.5312 5.95703 101.953 3.41797 L 92.8711 -5.71289 C 87.9883 -4.29688 82.8613 -3.4668 77.3438 -3.4668 C 47.0215 -3.4668 23.4375 -28.4668 23.4375 -35.1562 C 23.4375 -38.3301 31.0547 -48.2422 43.457 -56.0059 L 34.8633 -64.5996 C 19.1895 -54.3457 9.96094 -40.9668 9.96094 -35.1562 C 9.96094 -25.1953 37.3535 7.4707 77.3438 7.4707 Z M 101.025 -26.9531 C 102.148 -29.4434 102.734 -32.2754 102.734 -35.2051 C 102.734 -49.2676 91.4551 -60.4492 77.3926 -60.4492 C 74.4141 -60.4492 71.6797 -59.9121 69.0918 -58.8867 Z M 77.3438 -9.86328 C 80.6641 -9.86328 83.7891 -10.5957 86.5723 -11.8652 L 54.0039 -44.4824 C 52.6855 -41.6504 52.002 -38.5254 52.002 -35.1562 C 52.002 -21.3867 63.2812 -9.86328 77.3438 -9.86328 Z"/>
  </g>
  <g id="Medium-M" transform="matrix(1 0 0 1 1669.5 1126)">
   <path d="M 115.576 8.00781 C 117.139 9.52148 119.531 9.61914 121.094 8.00781 C 122.705 6.34766 122.607 4.00391 121.094 2.49023 L 38.2812 -80.2734 C 36.7676 -81.7871 34.2285 -81.8359 32.7148 -80.2734 C 31.25 -78.8086 31.25 -76.2695 32.7148 -74.8047 Z M 77.0996 -77.4902 C 68.5547 -77.4902 60.8398 -76.0254 53.6621 -73.6328 L 61.5723 -65.7227 C 66.5039 -67.0898 71.582 -67.9199 77.0996 -67.9199 C 108.154 -67.9199 132.812 -40.918 132.812 -35.2051 C 132.812 -31.3477 125 -21.4355 112.549 -13.623 L 119.873 -6.25 C 135.205 -16.3086 144.141 -29.4434 144.141 -35.2051 C 144.141 -45.2148 117.188 -77.4902 77.0996 -77.4902 Z M 77.0996 7.12891 C 86.084 7.12891 94.3359 5.56641 101.807 2.97852 L 93.8965 -4.93164 C 88.623 -3.36914 83.0566 -2.44141 77.0996 -2.44141 C 45.9473 -2.44141 21.2891 -28.3691 21.2891 -35.2051 C 21.2891 -38.4766 29.541 -48.9746 42.7734 -57.1777 L 35.3027 -64.6484 C 19.3848 -54.4922 9.96094 -41.0156 9.96094 -35.2051 C 9.96094 -25.1953 37.5 7.12891 77.0996 7.12891 Z M 101.367 -25.8789 C 102.637 -28.7109 103.32 -31.9336 103.32 -35.2051 C 103.32 -49.8047 91.6504 -61.377 77.0996 -61.377 C 73.7305 -61.377 70.6055 -60.6934 67.7246 -59.5215 Z M 77.0996 -8.98438 C 80.8105 -8.98438 84.3262 -9.86328 87.5 -11.377 L 53.1738 -45.7031 C 51.6113 -42.5293 50.7812 -38.9648 50.7812 -35.1562 C 50.8301 -20.9473 62.4512 -8.98438 77.0996 -8.98438 Z"/>
  </g>
  <g id="Regular-M" transform="matrix(1 0 0 1 1373.16 1126)">
   <path d="M 114.648 7.08008 C 116.113 8.59375 118.457 8.69141 119.971 7.08008 C 121.533 5.46875 121.436 3.27148 119.971 1.75781 L 38.3301 -79.834 C 36.8652 -81.2988 34.4238 -81.2988 32.959 -79.834 C 31.543 -78.418 31.543 -75.9277 32.959 -74.5117 Z M 76.709 -77.0508 C 68.2129 -77.0508 60.498 -75.5859 53.3203 -73.1934 L 59.7656 -66.7969 C 65.1367 -68.4082 70.6543 -69.3359 76.709 -69.3359 C 108.838 -69.3359 134.863 -41.0156 134.863 -35.2051 C 134.863 -31.25 126.318 -20.6055 112.793 -12.3047 L 118.799 -6.29883 C 134.229 -16.3086 143.408 -29.4434 143.408 -35.2051 C 143.408 -45.2148 116.162 -77.0508 76.709 -77.0508 Z M 76.709 6.64062 C 85.791 6.64062 94.0918 5.0293 101.66 2.44141 L 95.2637 -3.95508 C 89.4531 -2.14844 83.3008 -1.07422 76.709 -1.07422 C 44.5312 -1.07422 18.5059 -28.3203 18.5059 -35.2051 C 18.5059 -38.623 27.5391 -50 41.9434 -58.6426 L 35.8887 -64.6973 C 19.6289 -54.6387 9.96094 -41.1133 9.96094 -35.2051 C 9.96094 -25.2441 37.7441 6.64062 76.709 6.64062 Z M 101.758 -24.5117 C 103.271 -27.7832 104.102 -31.4453 104.102 -35.2051 C 104.102 -50.4883 91.8945 -62.5488 76.709 -62.5488 C 72.8516 -62.5488 69.2383 -61.7188 65.9668 -60.3027 Z M 76.709 -7.86133 C 81.0059 -7.86133 85.0586 -8.93555 88.6719 -10.6934 L 52.0508 -47.3145 C 50.2441 -43.7012 49.2188 -39.5996 49.2188 -35.2051 C 49.2676 -20.3125 61.4258 -7.86133 76.709 -7.86133 Z"/>
  </g>
  <g id="Light-M" transform="matrix(1 0 0 1 1077.62 1126)">
   <path d="M 114.404 7.12891 C 115.527 8.30078 117.334 8.34961 118.506 7.12891 C 119.775 5.85938 119.678 4.15039 118.506 3.02734 L 35.8887 -79.5898 C 34.7656 -80.7129 32.9102 -80.7617 31.7383 -79.5898 C 30.6152 -78.4668 30.6152 -76.5625 31.7383 -75.4395 Z M 75.5371 -76.6113 C 66.5527 -76.6113 58.7891 -74.9023 51.2695 -72.168 L 56.2988 -67.1875 C 62.3535 -69.2871 68.457 -70.5078 75.5371 -70.5078 C 108.838 -70.5078 134.375 -41.6504 134.375 -35.2051 C 134.375 -30.957 125.439 -19.3359 111.084 -10.6934 L 115.771 -6.00586 C 131.592 -15.9668 141.064 -29.3945 141.064 -35.2051 C 141.064 -45.0195 114.014 -76.6113 75.5371 -76.6113 Z M 75.5371 6.20117 C 84.9121 6.20117 93.3105 4.39453 101.074 1.5625 L 96.0938 -3.4668 C 89.6973 -1.26953 83.0078 0.0976562 75.5371 0.0976562 C 42.334 0.0976562 16.6992 -28.0273 16.6992 -35.2051 C 16.6992 -39.1113 25.8789 -51.1719 40.8691 -60.1074 L 36.1328 -64.8438 C 19.7754 -54.7852 9.96094 -41.1133 9.96094 -35.2051 C 9.96094 -25.3906 37.3535 6.20117 75.5371 6.20117 Z M 99.8047 -23.0957 C 101.807 -26.6602 102.93 -30.8594 102.93 -35.2051 C 102.93 -50.4395 90.625 -62.5 75.5371 -62.5 C 71.1426 -62.5 66.9922 -61.4258 63.3301 -59.5215 Z M 75.5371 -7.91016 C 80.2734 -7.91016 84.668 -9.17969 88.4766 -11.3281 L 51.5137 -48.291 C 49.3164 -44.4824 48.0957 -39.9902 48.0957 -35.2051 C 48.1934 -20.3125 60.3027 -7.91016 75.5371 -7.91016 Z"/>
  </g>
  <g id="Thin-M" transform="matrix(1 0 0 1 782.423 1126)">
   <path d="M 114.062 7.22656 C 114.795 7.91016 115.918 7.95898 116.602 7.22656 C 117.383 6.44531 117.334 5.37109 116.602 4.6875 L 32.666 -79.2969 C 32.0312 -79.9316 30.8594 -80.0293 30.127 -79.2969 C 29.3945 -78.5645 29.3945 -77.4414 30.127 -76.709 Z M 74.0234 -76.0254 C 64.4043 -76.0254 56.4941 -74.0234 48.584 -70.8496 L 51.6602 -67.7734 C 58.6914 -70.4102 65.4785 -72.1191 74.0234 -72.1191 C 108.838 -72.1191 133.74 -42.4805 133.74 -35.2051 C 133.74 -30.5664 124.316 -17.7246 108.838 -8.54492 L 111.865 -5.56641 C 128.027 -15.4785 138.037 -29.3457 138.037 -35.2051 C 138.037 -44.7754 111.182 -76.0254 74.0234 -76.0254 Z M 74.0234 5.66406 C 83.7891 5.66406 92.2852 3.56445 100.342 0.439453 L 97.168 -2.73438 C 90.0391 -0.0488281 82.5684 1.66016 74.0234 1.66016 C 39.4043 1.66016 14.2578 -27.6855 14.2578 -35.2051 C 14.2578 -39.6973 23.7305 -52.7344 39.4531 -62.0117 L 36.5234 -64.9902 C 19.9707 -54.9805 9.96094 -41.0645 9.96094 -35.2051 C 9.96094 -25.6348 36.9141 5.66406 74.0234 5.66406 Z M 97.2168 -21.1426 C 99.8535 -25.2441 101.367 -30.0781 101.367 -35.2051 C 101.367 -50.3906 88.9648 -62.4512 74.0234 -62.4512 C 68.7988 -62.4512 63.9648 -60.9863 59.9121 -58.4961 Z M 74.0234 -7.95898 C 79.248 -7.95898 84.1309 -9.47266 88.2812 -12.1094 L 50.7812 -49.6582 C 48.0957 -45.5078 46.6309 -40.5273 46.6309 -35.2051 C 46.7285 -20.3613 58.8379 -7.95898 74.0234 -7.95898 Z"/>
  </g>
  <g id="Ultralight-M" transform="matrix(1 0 0 1 486.493 1126)">
   <path d="M 113.916 7.22656 C 114.404 7.71484 115.186 7.71484 115.625 7.22656 C 116.211 6.68945 116.113 6.00586 115.625 5.51758 L 31.0059 -79.1016 C 30.6152 -79.541 29.834 -79.6875 29.2969 -79.1016 C 28.8086 -78.6621 28.8086 -77.8809 29.2969 -77.3926 Z M 73.2422 -75.7324 C 63.2812 -75.7324 55.3223 -73.5352 47.168 -70.166 L 49.2676 -68.0664 C 56.7871 -71.0449 64.0137 -72.9004 73.2422 -72.9004 C 108.887 -72.9004 133.398 -42.9199 133.398 -35.2051 C 133.398 -30.3711 123.73 -16.8457 107.715 -7.42188 L 109.814 -5.32227 C 126.221 -15.2344 136.475 -29.3457 136.475 -35.2051 C 136.475 -44.6777 109.766 -75.7324 73.2422 -75.7324 Z M 73.2422 5.37109 C 83.2031 5.37109 91.748 3.17383 99.9023 -0.146484 L 97.7051 -2.39258 C 90.1855 0.585938 82.373 2.44141 73.2422 2.44141 C 37.8906 2.44141 13.0371 -27.5391 13.0371 -35.2051 C 13.0371 -40.0391 22.6074 -53.5156 38.7695 -63.0371 L 36.7188 -65.0391 C 20.0684 -55.0781 9.96094 -41.0645 9.96094 -35.2051 C 9.96094 -25.7324 36.6699 5.37109 73.2422 5.37109 Z M 95.9473 -20.166 C 98.877 -24.4629 100.586 -29.6875 100.586 -35.2051 C 100.586 -50.3418 88.0859 -62.4512 73.2422 -62.4512 C 67.627 -62.4512 62.4512 -60.791 58.1055 -57.959 Z M 73.2422 -7.95898 C 78.7109 -7.95898 83.8379 -9.66797 88.1836 -12.5488 L 50.3906 -50.3418 C 47.5098 -46.0449 45.8496 -40.8203 45.8496 -35.2051 C 45.9961 -20.3613 58.0566 -7.95898 73.2422 -7.95898 Z"/>
  </g>
  <g id="Black-S" transform="matrix(1 0 0 1 2871.66 696)">
   <path d="M 93.8477 1.75781 C 95.2148 3.125 97.4609 3.125 98.7793 1.75781 C 100.098 0.390625 100.146 -1.80664 98.7793 -3.17383 L 29.7852 -72.1191 C 28.418 -73.4863 26.1719 -73.4863 24.8047 -72.1191 C 23.4863 -70.8008 23.4863 -68.5059 24.8047 -67.1875 Z M 61.7188 -69.8242 C 54.9805 -69.8242 48.7793 -68.7012 43.1641 -66.8945 L 54.6387 -55.3711 C 56.8848 -55.7617 59.2773 -56.0059 61.7188 -56.0059 C 82.5195 -56.0059 97.1191 -39.2578 97.1191 -35.1562 C 97.1191 -32.666 93.5059 -27.4414 87.3047 -22.8516 L 97.8516 -12.207 C 109.326 -20.4102 115.674 -30.7617 115.674 -35.1562 C 115.674 -43.0176 95.3125 -69.8242 61.7188 -69.8242 Z M 61.7188 -0.439453 C 68.5059 -0.439453 74.7559 -1.51367 80.3711 -3.32031 L 68.8965 -14.8926 C 66.6016 -14.502 64.209 -14.2578 61.7188 -14.2578 C 40.918 -14.2578 26.3672 -30.127 26.3672 -35.1562 C 26.3672 -37.207 30.0781 -42.5293 36.4746 -47.2656 L 25.7324 -58.0078 C 14.3066 -49.7559 7.8125 -39.5508 7.8125 -35.1562 C 7.8125 -27.2461 28.7109 -0.439453 61.7188 -0.439453 Z M 78.0762 -32.666 C 78.2227 -33.4961 78.2715 -34.3262 78.2715 -35.2051 C 78.2715 -44.2871 70.9473 -51.6602 61.7676 -51.6602 C 60.8887 -51.6602 60.1074 -51.6113 59.2773 -51.4648 Z M 61.7188 -18.6035 C 62.6953 -18.6035 63.5742 -18.7012 64.4531 -18.8477 L 45.459 -37.8418 C 45.3125 -36.9629 45.2148 -36.084 45.2148 -35.1074 C 45.2148 -26.1719 52.5879 -18.6035 61.7188 -18.6035 Z"/>
  </g>
  <g id="Heavy-S" transform="matrix(1 0 0 1 2575.21 696)">
   <path d="M 92.9199 0.830078 C 94.2871 2.19727 96.4844 2.24609 97.8027 0.830078 C 99.1699 -0.537109 99.1699 -2.68555 97.8027 -4.05273 L 30.127 -71.6797 C 28.7598 -73.0469 26.5625 -73.0469 25.1953 -71.6797 C 23.877 -70.3613 23.877 -68.1152 25.1953 -66.7969 Z M 61.4746 -69.4336 C 54.7852 -69.4336 48.6816 -68.3594 43.0664 -66.5527 L 53.1738 -56.3965 C 55.8105 -56.9336 58.5938 -57.2754 61.4746 -57.2754 C 83.1543 -57.2754 99.1699 -39.3066 99.1699 -35.1562 C 99.1699 -32.5684 94.873 -26.709 87.7441 -21.7285 L 97.0703 -12.3535 C 108.643 -20.459 115.137 -30.7617 115.137 -35.1562 C 115.137 -43.0664 94.5312 -69.4336 61.4746 -69.4336 Z M 61.4746 -0.878906 C 68.3105 -0.878906 74.6094 -1.95312 80.2734 -3.80859 L 70.166 -13.9648 C 67.3828 -13.3789 64.502 -13.0371 61.4746 -13.0371 C 39.7461 -13.0371 23.7793 -30.0781 23.7793 -35.1562 C 23.7793 -37.3047 28.2715 -43.4082 35.7422 -48.584 L 26.2695 -58.0566 C 14.5508 -49.9023 7.8125 -39.5996 7.8125 -35.1562 C 7.8125 -27.2461 28.9551 -0.878906 61.4746 -0.878906 Z M 78.6621 -31.4453 C 79.0039 -32.666 79.1992 -33.8867 79.1992 -35.2051 C 79.1992 -44.9707 71.3379 -52.832 61.5234 -52.832 C 60.2051 -52.832 58.9844 -52.6855 57.7637 -52.3438 Z M 61.4746 -17.4805 C 62.9883 -17.4805 64.3555 -17.7246 65.6738 -18.1152 L 44.4336 -39.3555 C 43.9941 -38.0371 43.7988 -36.6211 43.7988 -35.1074 C 43.7988 -25.5371 51.6602 -17.4805 61.4746 -17.4805 Z"/>
  </g>
  <g id="Bold-S" transform="matrix(1 0 0 1 2278.8 696)">
   <path d="M 91.8945 -0.146484 C 93.2617 1.17188 95.4102 1.2207 96.7285 -0.146484 C 98.0957 -1.5625 98.0957 -3.66211 96.7285 -5.0293 L 30.5176 -71.1914 C 29.1504 -72.5586 26.9531 -72.5586 25.6348 -71.1914 C 24.3164 -69.9219 24.3164 -67.6758 25.6348 -66.3574 Z M 61.1816 -68.9941 C 54.5898 -68.9941 48.5352 -67.9199 42.9688 -66.1621 L 51.5625 -57.5684 C 54.6387 -58.252 57.8613 -58.6914 61.1816 -58.6914 C 83.8867 -58.6914 101.514 -39.3555 101.514 -35.2051 C 101.514 -32.4707 96.4355 -25.9277 88.2324 -20.459 L 96.1914 -12.4512 C 107.91 -20.5078 114.551 -30.7129 114.551 -35.2051 C 114.551 -43.0664 93.7012 -68.9941 61.1816 -68.9941 Z M 61.1816 -1.31836 C 68.0664 -1.31836 74.4141 -2.44141 80.1758 -4.29688 L 71.582 -12.9395 C 68.2617 -12.1582 64.8438 -11.6699 61.1816 -11.6699 C 38.4277 -11.6699 20.8984 -30.0293 20.8984 -35.2051 C 20.8984 -37.4512 26.2207 -44.3848 34.9121 -50.0488 L 26.8555 -58.1543 C 14.7949 -50.0488 7.8125 -39.6973 7.8125 -35.2051 C 7.8125 -27.2949 29.1992 -1.31836 61.1816 -1.31836 Z M 79.3457 -30.127 C 79.9316 -31.6895 80.2246 -33.4473 80.2246 -35.2051 C 80.2246 -45.752 71.7773 -54.1504 61.2305 -54.1504 C 59.4238 -54.1504 57.7148 -53.9062 56.1035 -53.3691 Z M 61.1816 -16.2109 C 63.2812 -16.2109 65.1855 -16.6016 66.9922 -17.2852 L 43.2617 -41.0156 C 42.5781 -39.209 42.1875 -37.2559 42.1875 -35.1562 C 42.1875 -24.8535 50.6348 -16.2109 61.1816 -16.2109 Z"/>
  </g>
  <g id="Semibold-S" transform="matrix(1 0 0 1 1982.28 696)">
   <path d="M 91.2109 -0.878906 C 92.5293 0.488281 94.6289 0.537109 95.9961 -0.878906 C 97.3633 -2.29492 97.3145 -4.3457 95.9961 -5.66406 L 30.7617 -70.8496 C 29.4434 -72.2168 27.2461 -72.2168 25.9277 -70.8496 C 24.6094 -69.5801 24.6094 -67.334 25.9277 -66.0645 Z M 60.9863 -68.7012 C 54.4922 -68.7012 48.4375 -67.6758 42.9199 -65.918 L 50.4883 -58.3496 C 53.8086 -59.1797 57.3242 -59.668 60.9863 -59.668 C 84.375 -59.668 103.076 -39.4043 103.076 -35.2051 C 103.076 -32.373 97.5098 -25.3418 88.5742 -19.5801 L 95.5566 -12.5488 C 107.373 -20.5566 114.16 -30.7129 114.16 -35.2051 C 114.16 -43.1152 93.0664 -68.7012 60.9863 -68.7012 Z M 60.9863 -1.66016 C 67.9199 -1.66016 74.3164 -2.7832 80.0781 -4.6875 L 72.5586 -12.2559 C 68.8965 -11.2793 65.0391 -10.6934 60.9863 -10.6934 C 37.5488 -10.6934 18.8965 -29.9805 18.8965 -35.2051 C 18.8965 -37.5 24.8535 -45.0684 34.375 -51.0742 L 27.2461 -58.2031 C 14.9902 -50.1953 7.8125 -39.7461 7.8125 -35.2051 C 7.8125 -27.2949 29.3945 -1.66016 60.9863 -1.66016 Z M 79.834 -29.1992 C 80.5176 -31.0547 80.9082 -33.1055 80.9082 -35.2051 C 80.9082 -46.2891 72.0703 -55.0293 61.0352 -55.0293 C 58.8867 -55.0293 56.8848 -54.6875 54.9805 -54.0527 Z M 60.9863 -15.332 C 63.4766 -15.332 65.8203 -15.8203 67.9199 -16.6992 L 42.4805 -42.1875 C 41.5527 -40.0391 41.0645 -37.6953 41.0645 -35.1562 C 41.0645 -24.3652 49.9023 -15.332 60.9863 -15.332 Z"/>
  </g>
  <g id="Medium-S" transform="matrix(1 0 0 1 1685.72 696)">
   <path d="M 90.6738 -1.41602 C 91.9922 -0.0976562 94.0918 0 95.4102 -1.41602 C 96.8262 -2.83203 96.7773 -4.83398 95.4102 -6.20117 L 30.957 -70.6055 C 29.6387 -71.9238 27.4414 -71.9238 26.123 -70.6055 C 24.8535 -69.3359 24.8535 -67.0898 26.123 -65.8203 Z M 60.8398 -68.5059 C 54.3945 -68.5059 48.3398 -67.4316 42.8711 -65.7227 L 49.6094 -58.9355 C 53.2227 -59.8633 56.9336 -60.4004 60.8398 -60.4004 C 84.7656 -60.4004 104.297 -39.4043 104.297 -35.2051 C 104.297 -32.3242 98.3398 -24.9023 88.8672 -18.9453 L 95.1172 -12.6465 C 106.982 -20.5566 113.867 -30.7129 113.867 -35.2051 C 113.867 -43.1152 92.627 -68.5059 60.8398 -68.5059 Z M 60.8398 -1.9043 C 67.7734 -1.9043 74.2188 -3.02734 80.0293 -4.93164 L 73.291 -11.7188 C 69.3359 -10.6445 65.2344 -9.96094 60.8398 -9.96094 C 36.8652 -9.96094 17.3828 -29.9805 17.3828 -35.2051 C 17.3828 -37.5977 23.7793 -45.5566 33.9355 -51.8555 L 27.5879 -58.2031 C 15.1367 -50.2441 7.8125 -39.7949 7.8125 -35.2051 C 7.8125 -27.2949 29.541 -1.9043 60.8398 -1.9043 Z M 80.1758 -28.4668 C 81.0059 -30.5664 81.4453 -32.8613 81.4453 -35.2051 C 81.4453 -46.6797 72.3145 -55.7617 60.8398 -55.7617 C 58.4473 -55.7617 56.2012 -55.3223 54.1016 -54.5898 Z M 60.8398 -14.6484 C 63.623 -14.6484 66.2598 -15.2344 68.6523 -16.2598 L 41.8457 -43.0664 C 40.7715 -40.6738 40.2344 -38.0371 40.2344 -35.2051 C 40.2344 -24.0234 49.3652 -14.6484 60.8398 -14.6484 Z"/>
  </g>
  <g id="Regular-S" transform="matrix(1 0 0 1 1389.2 696)">
   <path d="M 89.9414 -2.09961 C 91.2598 -0.78125 93.3594 -0.683594 94.6777 -2.09961 C 96.0938 -3.56445 95.9961 -5.51758 94.6777 -6.83594 L 31.2012 -70.2637 C 29.8828 -71.582 27.7344 -71.582 26.416 -70.2637 C 25.1465 -68.9941 25.1465 -66.7969 26.416 -65.5273 Z M 60.6445 -68.2129 C 54.248 -68.2129 48.2422 -67.1875 42.7734 -65.4785 L 48.5352 -59.7168 C 52.3926 -60.791 56.4453 -61.377 60.6445 -61.377 C 85.2539 -61.377 105.859 -39.4531 105.859 -35.2051 C 105.859 -32.2266 99.3652 -24.3652 89.209 -18.0664 L 94.5312 -12.7441 C 106.494 -20.6055 113.477 -30.7129 113.477 -35.2051 C 113.477 -43.1152 92.041 -68.2129 60.6445 -68.2129 Z M 60.6445 -2.19727 C 67.627 -2.19727 74.1211 -3.36914 79.9316 -5.32227 L 74.2676 -10.9863 C 69.9707 -9.76562 65.4297 -9.0332 60.6445 -9.0332 C 35.9863 -9.0332 15.3809 -29.9316 15.3809 -35.2051 C 15.3809 -37.6465 22.4121 -46.2402 33.3984 -52.8809 L 27.9785 -58.252 C 15.2832 -50.3418 7.8125 -39.8438 7.8125 -35.2051 C 7.8125 -27.3438 29.7363 -2.19727 60.6445 -2.19727 Z M 80.6641 -27.5391 C 81.5918 -29.9316 82.1289 -32.5195 82.1289 -35.2051 C 82.1289 -47.2168 72.6074 -56.6406 60.6445 -56.6406 C 57.9102 -56.6406 55.3711 -56.1523 52.9785 -55.2734 Z M 60.6445 -13.7695 C 63.8672 -13.7695 66.8457 -14.502 69.5312 -15.7227 L 41.0645 -44.1895 C 39.7949 -41.4551 39.1113 -38.4277 39.1113 -35.2051 C 39.1602 -23.5352 48.6328 -13.7695 60.6445 -13.7695 Z"/>
  </g>
  <g id="Light-S" transform="matrix(1 0 0 1 1093.51 696)">
   <path d="M 89.7461 -2.05078 C 90.7715 -1.02539 92.3828 -0.976562 93.4082 -2.05078 C 94.5312 -3.17383 94.4336 -4.73633 93.4082 -5.76172 L 29.0527 -70.0684 C 28.0762 -71.0938 26.3672 -71.0938 25.3418 -70.0684 C 24.3652 -69.0918 24.3652 -67.3828 25.3418 -66.3574 Z M 59.6191 -67.8223 C 52.7832 -67.8223 46.7285 -66.6016 40.9668 -64.5508 L 45.459 -60.1074 C 49.9512 -61.5723 54.4922 -62.4023 59.6191 -62.4023 C 85.2539 -62.4023 105.469 -39.9902 105.469 -35.2051 C 105.469 -31.9824 98.6328 -23.291 87.6953 -16.6016 L 91.8457 -12.4512 C 104.102 -20.2637 111.426 -30.6641 111.426 -35.2051 C 111.426 -42.9688 90.1367 -67.8223 59.6191 -67.8223 Z M 59.6191 -2.58789 C 66.8945 -2.58789 73.3887 -3.90625 79.4434 -6.05469 L 74.9512 -10.5469 C 70.166 -8.98438 65.1367 -8.00781 59.6191 -8.00781 C 34.0332 -8.00781 13.7695 -29.6875 13.7695 -35.2051 C 13.7695 -38.0859 20.9473 -47.2656 32.4219 -54.1504 L 28.2227 -58.3496 C 15.4297 -50.4883 7.8125 -39.8438 7.8125 -35.2051 C 7.8125 -27.4902 29.4434 -2.58789 59.6191 -2.58789 Z M 78.9551 -26.2695 C 80.3223 -28.9551 81.1035 -32.0312 81.1035 -35.2051 C 81.1035 -47.168 71.4844 -56.5918 59.6191 -56.5918 C 56.3965 -56.5918 53.3691 -55.8594 50.6348 -54.541 Z M 59.6191 -13.8184 C 63.1836 -13.8184 66.5039 -14.6973 69.3848 -16.2598 L 40.5762 -45.1172 C 39.0137 -42.1875 38.1348 -38.8184 38.1348 -35.2051 C 38.1836 -23.5352 47.6562 -13.8184 59.6191 -13.8184 Z"/>
  </g>
  <g id="Thin-S" transform="matrix(1 0 0 1 798.146 696)">
   <path d="M 89.4531 -2.00195 C 90.0879 -1.36719 91.1133 -1.31836 91.748 -2.00195 C 92.4316 -2.68555 92.3828 -3.66211 91.748 -4.29688 L 26.2207 -69.8242 C 25.6348 -70.4102 24.5605 -70.459 23.9258 -69.8242 C 23.291 -69.1895 23.291 -68.1152 23.9258 -67.4805 Z M 58.3008 -67.334 C 50.8789 -67.334 44.6777 -65.7715 38.5742 -63.3789 L 41.3574 -60.5957 C 46.6797 -62.5977 51.9043 -63.8184 58.3008 -63.8184 C 85.3027 -63.8184 104.883 -40.7227 104.883 -35.2051 C 104.883 -31.6406 97.6074 -21.8262 85.7422 -14.7461 L 88.3789 -12.0605 C 100.977 -19.873 108.74 -30.6641 108.74 -35.2051 C 108.74 -42.7734 87.6465 -67.334 58.3008 -67.334 Z M 58.3008 -3.07617 C 65.8691 -3.07617 72.5098 -4.63867 78.7598 -7.08008 L 75.9277 -9.91211 C 70.459 -7.91016 64.7949 -6.64062 58.3008 -6.64062 C 31.4453 -6.64062 11.6699 -29.3945 11.6699 -35.2051 C 11.6699 -38.623 18.9941 -48.6328 31.2012 -55.8594 L 28.5645 -58.4961 C 15.625 -50.6836 7.8125 -39.7949 7.8125 -35.2051 C 7.8125 -27.6367 29.0039 -3.07617 58.3008 -3.07617 Z M 76.6602 -24.5605 C 78.6133 -27.6855 79.7363 -31.3477 79.7363 -35.2051 C 79.7363 -47.1191 70.0195 -56.5918 58.3008 -56.5918 C 54.3457 -56.5918 50.6836 -55.5176 47.6074 -53.6621 Z M 58.3008 -13.8184 C 62.3047 -13.8184 66.0156 -14.9902 69.2383 -16.9922 L 39.9414 -46.2891 C 37.9395 -43.0664 36.8164 -39.3066 36.8164 -35.2051 C 36.9141 -23.584 46.3867 -13.8184 58.3008 -13.8184 Z"/>
  </g>
  <g id="Ultralight-S" transform="matrix(1 0 0 1 502.143 696)">
   <path d="M 89.3066 -1.95312 C 89.7461 -1.51367 90.4297 -1.51367 90.8691 -1.95312 C 91.3574 -2.44141 91.3086 -3.125 90.8691 -3.56445 L 24.7559 -69.6777 C 24.3652 -70.0684 23.6328 -70.166 23.1445 -69.6777 C 22.7539 -69.2383 22.7539 -68.5059 23.1445 -68.0664 Z M 57.5684 -67.041 C 49.9023 -67.041 43.6523 -65.3809 37.3535 -62.793 L 39.2578 -60.8887 C 45.0195 -63.1348 50.5371 -64.5508 57.5684 -64.5508 C 85.3027 -64.5508 104.59 -41.1133 104.59 -35.2051 C 104.59 -31.4941 97.0703 -21.0938 84.7168 -13.7695 L 86.5723 -11.8652 C 99.4141 -19.6289 107.324 -30.6152 107.324 -35.2051 C 107.324 -42.6758 86.377 -67.041 57.5684 -67.041 Z M 57.5684 -3.36914 C 65.332 -3.36914 72.0215 -5.0293 78.418 -7.61719 L 76.416 -9.57031 C 70.6055 -7.37305 64.5996 -5.9082 57.5684 -5.9082 C 30.0781 -5.9082 10.5469 -29.248 10.5469 -35.2051 C 10.5469 -38.916 18.0176 -49.3652 30.5664 -56.7383 L 28.7109 -58.5938 C 15.7227 -50.7812 7.8125 -39.7949 7.8125 -35.2051 C 7.8125 -27.7832 28.8086 -3.36914 57.5684 -3.36914 Z M 75.4883 -23.6816 C 77.7344 -27.002 79.0039 -31.0059 79.0039 -35.2051 C 79.0039 -47.0703 69.2871 -56.543 57.5684 -56.543 C 53.3203 -56.543 49.3164 -55.3223 45.9961 -53.1738 Z M 57.5684 -13.8672 C 61.8164 -13.8672 65.7715 -15.1367 69.0918 -17.334 L 39.5996 -46.875 C 37.4023 -43.5547 36.1328 -39.5508 36.1328 -35.2051 C 36.2305 -23.584 45.7031 -13.8672 57.5684 -13.8672 Z"/>
  </g>
 </g>
</svg>
