<?xml version="1.0" encoding="UTF-8"?>
<!--Generator: Apple Native CoreSVG 175-->
<!DOCTYPE svg
PUBLIC "-//W3C//DTD SVG 1.1//EN"
       "http://www.w3.org/Graphics/SVG/1.1/DTD/svg11.dtd">
<svg version="1.1" xmlns="http://www.w3.org/2000/svg" xmlns:xlink="http://www.w3.org/1999/xlink" width="3300" height="2200">
 <!--glyph: "uni1009F1.medium", point size: 100.0, font version: "17.0d12e1", template writer version: "65.1"-->
 <style>.hierarchical-0:secondary {fill:#4D4D4D}
.hierarchical-1:primary {fill:#212121}

.SFSymbolsPreview212121 {fill:#212121;opacity:1.0}
.SFSymbolsPreview4D4D4D {fill:#4D4D4D;opacity:1.0}
</style>
 <g id="Notes">
  <rect height="2200" id="artboard" style="fill:white;opacity:1" width="3300" x="0" y="0"/>
  <line style="fill:none;stroke:black;opacity:1;stroke-width:0.5;" x1="263" x2="3036" y1="292" y2="292"/>
  <text style="stroke:none;fill:black;font-family:sans-serif;font-size:13;font-weight:bold;" transform="matrix(1 0 0 1 263 322)">Weight/Scale Variations</text>
  <text style="stroke:none;fill:black;font-family:sans-serif;font-size:13;text-anchor:middle;" transform="matrix(1 0 0 1 559.711 322)">Ultralight</text>
  <text style="stroke:none;fill:black;font-family:sans-serif;font-size:13;text-anchor:middle;" transform="matrix(1 0 0 1 856.422 322)">Thin</text>
  <text style="stroke:none;fill:black;font-family:sans-serif;font-size:13;text-anchor:middle;" transform="matrix(1 0 0 1 1153.13 322)">Light</text>
  <text style="stroke:none;fill:black;font-family:sans-serif;font-size:13;text-anchor:middle;" transform="matrix(1 0 0 1 1449.84 322)">Regular</text>
  <text style="stroke:none;fill:black;font-family:sans-serif;font-size:13;text-anchor:middle;" transform="matrix(1 0 0 1 1746.56 322)">Medium</text>
  <text style="stroke:none;fill:black;font-family:sans-serif;font-size:13;text-anchor:middle;" transform="matrix(1 0 0 1 2043.27 322)">Semibold</text>
  <text style="stroke:none;fill:black;font-family:sans-serif;font-size:13;text-anchor:middle;" transform="matrix(1 0 0 1 2339.98 322)">Bold</text>
  <text style="stroke:none;fill:black;font-family:sans-serif;font-size:13;text-anchor:middle;" transform="matrix(1 0 0 1 2636.69 322)">Heavy</text>
  <text style="stroke:none;fill:black;font-family:sans-serif;font-size:13;text-anchor:middle;" transform="matrix(1 0 0 1 2933.4 322)">Black</text>
  <line style="fill:none;stroke:black;opacity:1;stroke-width:0.5;" x1="263" x2="3036" y1="1903" y2="1903"/>
  <g transform="matrix(1 0 0 1 263 1933)">
   <path d="M9.24805 0.830078Q10.8691 0.830078 12.2949 0.214844Q13.7207-0.400391 14.8096-1.49414Q15.8984-2.58789 16.5186-4.01367Q17.1387-5.43945 17.1387-7.05078Q17.1387-8.66211 16.5186-10.0879Q15.8984-11.5137 14.8047-12.6074Q13.7109-13.7012 12.2852-14.3164Q10.8594-14.9316 9.23828-14.9316Q7.62695-14.9316 6.20117-14.3164Q4.77539-13.7012 3.69141-12.6074Q2.60742-11.5137 1.9873-10.0879Q1.36719-8.66211 1.36719-7.05078Q1.36719-5.43945 1.9873-4.01367Q2.60742-2.58789 3.69629-1.49414Q4.78516-0.400391 6.21094 0.214844Q7.63672 0.830078 9.24805 0.830078ZM9.24805-0.654297Q7.91992-0.654297 6.7627-1.14746Q5.60547-1.64062 4.73145-2.51953Q3.85742-3.39844 3.36426-4.56055Q2.87109-5.72266 2.87109-7.05078Q2.87109-8.37891 3.35938-9.54102Q3.84766-10.7031 4.72168-11.582Q5.5957-12.4609 6.75293-12.9541Q7.91016-13.4473 9.23828-13.4473Q10.5762-13.4473 11.7334-12.9541Q12.8906-12.4609 13.7695-11.582Q14.6484-10.7031 15.1465-9.54102Q15.6445-8.37891 15.6445-7.05078Q15.6445-5.72266 15.1514-4.56055Q14.6582-3.39844 13.7842-2.51953Q12.9102-1.64062 11.748-1.14746Q10.5859-0.654297 9.24805-0.654297ZM5.6543-7.05078Q5.6543-6.72852 5.85938-6.52832Q6.06445-6.32812 6.40625-6.32812L8.51562-6.32812L8.51562-4.20898Q8.51562-3.88672 8.71094-3.67676Q8.90625-3.4668 9.23828-3.4668Q9.56055-3.4668 9.77051-3.67676Q9.98047-3.88672 9.98047-4.20898L9.98047-6.32812L12.0898-6.32812Q12.4219-6.32812 12.627-6.52832Q12.832-6.72852 12.832-7.05078Q12.832-7.38281 12.627-7.58789Q12.4219-7.79297 12.0898-7.79297L9.98047-7.79297L9.98047-9.90234Q9.98047-10.2344 9.77051-10.4443Q9.56055-10.6543 9.23828-10.6543Q8.90625-10.6543 8.71094-10.4443Q8.51562-10.2344 8.51562-9.90234L8.51562-7.79297L6.40625-7.79297Q6.06445-7.79297 5.85938-7.58789Q5.6543-7.38281 5.6543-7.05078Z"/>
  </g>
  <g transform="matrix(1 0 0 1 281.867 1933)">
   <path d="M11.709 2.91016Q13.75 2.91016 15.5518 2.12891Q17.3535 1.34766 18.7305-0.0292969Q20.1074-1.40625 20.8887-3.20801Q21.6699-5.00977 21.6699-7.05078Q21.6699-9.0918 20.8887-10.8936Q20.1074-12.6953 18.7305-14.0723Q17.3535-15.4492 15.5469-16.2305Q13.7402-17.0117 11.6992-17.0117Q9.6582-17.0117 7.85645-16.2305Q6.05469-15.4492 4.68262-14.0723Q3.31055-12.6953 2.5293-10.8936Q1.74805-9.0918 1.74805-7.05078Q1.74805-5.00977 2.5293-3.20801Q3.31055-1.40625 4.6875-0.0292969Q6.06445 1.34766 7.86621 2.12891Q9.66797 2.91016 11.709 2.91016ZM11.709 1.25Q9.98047 1.25 8.47656 0.605469Q6.97266-0.0390625 5.83496-1.17676Q4.69727-2.31445 4.05762-3.81836Q3.41797-5.32227 3.41797-7.05078Q3.41797-8.7793 4.05762-10.2832Q4.69727-11.7871 5.83008-12.9297Q6.96289-14.0723 8.4668-14.7119Q9.9707-15.3516 11.6992-15.3516Q13.4277-15.3516 14.9316-14.7119Q16.4355-14.0723 17.5781-12.9297Q18.7207-11.7871 19.3652-10.2832Q20.0098-8.7793 20.0098-7.05078Q20.0098-5.32227 19.3701-3.81836Q18.7305-2.31445 17.5928-1.17676Q16.4551-0.0390625 14.9463 0.605469Q13.4375 1.25 11.709 1.25ZM7.17773-7.05078Q7.17773-6.69922 7.41211-6.47461Q7.64648-6.25 8.01758-6.25L10.8887-6.25L10.8887-3.36914Q10.8887-2.99805 11.1133-2.76855Q11.3379-2.53906 11.6895-2.53906Q12.0605-2.53906 12.29-2.76855Q12.5195-2.99805 12.5195-3.36914L12.5195-6.25L15.4004-6.25Q15.7715-6.25 16.001-6.47461Q16.2305-6.69922 16.2305-7.05078Q16.2305-7.42188 16.001-7.65137Q15.7715-7.88086 15.4004-7.88086L12.5195-7.88086L12.5195-10.752Q12.5195-11.1328 12.29-11.3623Q12.0605-11.5918 11.6895-11.5918Q11.3379-11.5918 11.1133-11.3574Q10.8887-11.123 10.8887-10.752L10.8887-7.88086L8.01758-7.88086Q7.63672-7.88086 7.40723-7.65137Q7.17773-7.42188 7.17773-7.05078Z"/>
  </g>
  <g transform="matrix(1 0 0 1 305.646 1933)">
   <path d="M14.9707 5.66406Q17.0605 5.66406 18.96 5.01465Q20.8594 4.36523 22.4512 3.19336Q24.043 2.02148 25.2197 0.429688Q26.3965-1.16211 27.0459-3.06641Q27.6953-4.9707 27.6953-7.05078Q27.6953-9.14062 27.0459-11.04Q26.3965-12.9395 25.2197-14.5312Q24.043-16.123 22.4512-17.2998Q20.8594-18.4766 18.9551-19.126Q17.0508-19.7754 14.9609-19.7754Q12.8711-19.7754 10.9717-19.126Q9.07227-18.4766 7.48535-17.2998Q5.89844-16.123 4.72168-14.5312Q3.54492-12.9395 2.90039-11.04Q2.25586-9.14062 2.25586-7.05078Q2.25586-4.9707 2.90527-3.06641Q3.55469-1.16211 4.72656 0.429688Q5.89844 2.02148 7.49023 3.19336Q9.08203 4.36523 10.9814 5.01465Q12.8809 5.66406 14.9707 5.66406ZM14.9707 3.84766Q13.1641 3.84766 11.5283 3.2959Q9.89258 2.74414 8.53516 1.74805Q7.17773 0.751953 6.17676-0.610352Q5.17578-1.97266 4.62891-3.6084Q4.08203-5.24414 4.08203-7.05078Q4.08203-8.86719 4.62891-10.5029Q5.17578-12.1387 6.17188-13.501Q7.16797-14.8633 8.52539-15.8594Q9.88281-16.8555 11.5186-17.4023Q13.1543-17.9492 14.9609-17.9492Q16.7773-17.9492 18.4131-17.4023Q20.0488-16.8555 21.4111-15.8594Q22.7734-14.8633 23.7695-13.501Q24.7656-12.1387 25.3174-10.5029Q25.8691-8.86719 25.8691-7.05078Q25.8789-5.24414 25.332-3.6084Q24.7852-1.97266 23.7842-0.610352Q22.7832 0.751953 21.4209 1.74805Q20.0586 2.74414 18.4229 3.2959Q16.7871 3.84766 14.9707 3.84766ZM9.19922-7.05078Q9.19922-6.66992 9.45801-6.4209Q9.7168-6.17188 10.1172-6.17188L14.0625-6.17188L14.0625-2.2168Q14.0625-1.81641 14.3115-1.55762Q14.5605-1.29883 14.9512-1.29883Q15.3516-1.29883 15.6104-1.55273Q15.8691-1.80664 15.8691-2.2168L15.8691-6.17188L19.8242-6.17188Q20.2246-6.17188 20.4785-6.4209Q20.7324-6.66992 20.7324-7.05078Q20.7324-7.46094 20.4785-7.71484Q20.2246-7.96875 19.8242-7.96875L15.8691-7.96875L15.8691-11.9141Q15.8691-12.3242 15.6104-12.583Q15.3516-12.8418 14.9512-12.8418Q14.5605-12.8418 14.3115-12.583Q14.0625-12.3242 14.0625-11.9141L14.0625-7.96875L10.1172-7.96875Q9.70703-7.96875 9.45312-7.71484Q9.19922-7.46094 9.19922-7.05078Z"/>
  </g>
  <text style="stroke:none;fill:black;font-family:sans-serif;font-size:13;font-weight:bold;" transform="matrix(1 0 0 1 263 1953)">Design Variations</text>
  <text style="stroke:none;fill:black;font-family:sans-serif;font-size:13;" transform="matrix(1 0 0 1 263 1971)">Symbols are supported in up to nine weights and three scales.</text>
  <text style="stroke:none;fill:black;font-family:sans-serif;font-size:13;" transform="matrix(1 0 0 1 263 1989)">For optimal layout with text and other symbols, vertically align</text>
  <text style="stroke:none;fill:black;font-family:sans-serif;font-size:13;" transform="matrix(1 0 0 1 263 2007)">symbols with the adjacent text.</text>
  <line style="fill:none;stroke:#00AEEF;stroke-width:0.5;opacity:1.0;" x1="776" x2="776" y1="1919" y2="1933"/>
  <g transform="matrix(1 0 0 1 776 1933)">
   <path d="M3.31055 0.15625Q3.70117 0.15625 3.91602-0.00976562Q4.13086-0.175781 4.26758-0.585938L5.52734-4.0332L11.2891-4.0332L12.5488-0.585938Q12.6855-0.175781 12.9004-0.00976562Q13.1152 0.15625 13.4961 0.15625Q13.8867 0.15625 14.1162-0.0585938Q14.3457-0.273438 14.3457-0.644531Q14.3457-0.869141 14.2383-1.17188L9.6582-13.3691Q9.48242-13.8184 9.17969-14.043Q8.87695-14.2676 8.4082-14.2676Q7.5-14.2676 7.17773-13.3789L2.59766-1.16211Q2.49023-0.859375 2.49023-0.634766Q2.49023-0.263672 2.70996-0.0537109Q2.92969 0.15625 3.31055 0.15625ZM6.00586-5.51758L8.37891-12.0898L8.42773-12.0898L10.8008-5.51758Z"/>
  </g>
  <line style="fill:none;stroke:#00AEEF;stroke-width:0.5;opacity:1.0;" x1="793.197" x2="793.197" y1="1919" y2="1933"/>
  <text style="stroke:none;fill:black;font-family:sans-serif;font-size:13;font-weight:bold;" transform="matrix(1 0 0 1 776 1953)">Margins</text>
  <text style="stroke:none;fill:black;font-family:sans-serif;font-size:13;" transform="matrix(1 0 0 1 776 1971)">Leading and trailing margins on the left and right side of each symbol</text>
  <text style="stroke:none;fill:black;font-family:sans-serif;font-size:13;" transform="matrix(1 0 0 1 776 1989)">can be adjusted by modifying the x-location of the margin guidelines.</text>
  <text style="stroke:none;fill:black;font-family:sans-serif;font-size:13;" transform="matrix(1 0 0 1 776 2007)">Modifications are automatically applied proportionally to all</text>
  <text style="stroke:none;fill:black;font-family:sans-serif;font-size:13;" transform="matrix(1 0 0 1 776 2025)">scales and weights.</text>
  <g transform="matrix(1 0 0 1 1289 1933)">
   <path d="M2.8418 1.86523L4.54102 3.57422Q5.18555 4.22852 5.90332 4.17969Q6.62109 4.13086 7.31445 3.35938L18.0078-8.42773L17.041-9.4043L6.42578 2.27539Q6.16211 2.57812 5.89355 2.61719Q5.625 2.65625 5.27344 2.30469L4.10156 1.14258Q3.75 0.791016 3.79395 0.522461Q3.83789 0.253906 4.14062-0.0195312L15.6152-10.8203L14.6387-11.7871L3.04688-0.898438Q2.30469-0.214844 2.25098 0.498047Q2.19727 1.21094 2.8418 1.86523ZM9.25781-16.3281Q8.94531-16.0254 8.90625-15.6348Q8.86719-15.2441 9.04297-14.9512Q9.21875-14.6777 9.55566-14.541Q9.89258-14.4043 10.3809-14.5215Q11.4746-14.7754 12.5977-14.7314Q13.7207-14.6875 14.7949-13.9844L14.209-12.5293Q13.9551-11.9043 14.0674-11.4404Q14.1797-10.9766 14.5801-10.5664L16.875-8.25195Q17.2363-7.88086 17.5781-7.82227Q17.9199-7.76367 18.3398-7.8418L19.4043-8.03711L20.0684-7.36328L20.0293-6.80664Q20-6.43555 20.1221-6.12305Q20.2441-5.81055 20.6055-5.44922L21.3672-4.70703Q21.7285-4.3457 22.1533-4.33105Q22.5781-4.31641 22.9297-4.66797L25.8398-7.58789Q26.1914-7.93945 26.1816-8.35449Q26.1719-8.76953 25.8105-9.13086L25.0391-9.89258Q24.6875-10.2539 24.3799-10.3857Q24.0723-10.5176 23.7109-10.4883L23.1348-10.4395L22.4902-11.0742L22.7344-12.1973Q22.832-12.6172 22.6953-12.9834Q22.5586-13.3496 22.1191-13.7891L19.9219-15.9766Q18.6719-17.2168 17.2607-17.8369Q15.8496-18.457 14.4189-18.4814Q12.9883-18.5059 11.665-17.959Q10.3418-17.4121 9.25781-16.3281ZM10.752-15.957Q11.6602-16.6211 12.7002-16.9043Q13.7402-17.1875 14.8047-17.085Q15.8691-16.9824 16.8701-16.5137Q17.8711-16.0449 18.7012-15.2051L21.1328-12.793Q21.3086-12.6172 21.3525-12.4512Q21.3965-12.2852 21.3379-12.0312L21.0156-10.5469L22.5195-9.0625L23.5059-9.12109Q23.6914-9.13086 23.7891-9.09668Q23.8867-9.0625 24.0332-8.91602L24.6094-8.33984L22.168-5.89844L21.5918-6.47461Q21.4453-6.62109 21.4062-6.71875Q21.3672-6.81641 21.377-7.01172L21.4453-7.98828L19.9512-9.47266L18.4277-9.21875Q18.1836-9.16992 18.042-9.2041Q17.9004-9.23828 17.7148-9.41406L15.7129-11.416Q15.5176-11.5918 15.4932-11.7529Q15.4688-11.9141 15.5859-12.1875L16.4648-14.2773Q15.293-15.3711 13.8281-15.791Q12.3633-16.2109 10.8398-15.7617Q10.7227-15.7324 10.6885-15.8057Q10.6543-15.8789 10.752-15.957Z"/>
  </g>
  <text style="stroke:none;fill:black;font-family:sans-serif;font-size:13;font-weight:bold;" transform="matrix(1 0 0 1 1289 1953)">Exporting</text>
  <text style="stroke:none;fill:black;font-family:sans-serif;font-size:13;" transform="matrix(1 0 0 1 1289 1971)">Symbols should be outlined when exporting to ensure the</text>
  <text style="stroke:none;fill:black;font-family:sans-serif;font-size:13;" transform="matrix(1 0 0 1 1289 1989)">design is preserved when submitting to Xcode.</text>
  <text id="template-version" style="stroke:none;fill:black;font-family:sans-serif;font-size:13;text-anchor:end;" transform="matrix(1 0 0 1 3036 1933)">Template v.3.0</text>
  <text style="stroke:none;fill:black;font-family:sans-serif;font-size:13;text-anchor:end;" transform="matrix(1 0 0 1 3036 1951)">Requires Xcode 13 or greater</text>
  <text id="descriptive-name" style="stroke:none;fill:black;font-family:sans-serif;font-size:13;text-anchor:end;" transform="matrix(1 0 0 1 3036 1969)">Generated from line.3.horizontal.circle</text>
  <text style="stroke:none;fill:black;font-family:sans-serif;font-size:13;text-anchor:end;" transform="matrix(1 0 0 1 3036 1987)">Typeset at 100 points</text>
  <text style="stroke:none;fill:black;font-family:sans-serif;font-size:13;" transform="matrix(1 0 0 1 263 726)">Small</text>
  <text style="stroke:none;fill:black;font-family:sans-serif;font-size:13;" transform="matrix(1 0 0 1 263 1156)">Medium</text>
  <text style="stroke:none;fill:black;font-family:sans-serif;font-size:13;" transform="matrix(1 0 0 1 263 1586)">Large</text>
 </g>
 <g id="Guides">
  <g id="H-reference" style="fill:#27AAE1;stroke:none;" transform="matrix(1 0 0 1 339 696)">
   <path d="M0.993347 0L3.6377 0L29.3282-67.1326L30.0301-67.1326L30.0301-70.459L28.1227-70.459ZM11.6882-24.4797L46.9818-24.4797L46.2311-26.7288L12.4382-26.7288ZM55.1193 0L57.7637 0L30.6381-70.459L29.4327-70.459L29.4327-67.1326Z"/>
  </g>
  <line id="Baseline-S" style="fill:none;stroke:#27AAE1;opacity:1;stroke-width:0.5;" x1="263" x2="3036" y1="696" y2="696"/>
  <line id="Capline-S" style="fill:none;stroke:#27AAE1;opacity:1;stroke-width:0.5;" x1="263" x2="3036" y1="625.541" y2="625.541"/>
  <g id="H-reference" style="fill:#27AAE1;stroke:none;" transform="matrix(1 0 0 1 339 1126)">
   <path d="M0.993347 0L3.6377 0L29.3282-67.1326L30.0301-67.1326L30.0301-70.459L28.1227-70.459ZM11.6882-24.4797L46.9818-24.4797L46.2311-26.7288L12.4382-26.7288ZM55.1193 0L57.7637 0L30.6381-70.459L29.4327-70.459L29.4327-67.1326Z"/>
  </g>
  <line id="Baseline-M" style="fill:none;stroke:#27AAE1;opacity:1;stroke-width:0.5;" x1="263" x2="3036" y1="1126" y2="1126"/>
  <line id="Capline-M" style="fill:none;stroke:#27AAE1;opacity:1;stroke-width:0.5;" x1="263" x2="3036" y1="1055.54" y2="1055.54"/>
  <g id="H-reference" style="fill:#27AAE1;stroke:none;" transform="matrix(1 0 0 1 339 1556)">
   <path d="M0.993347 0L3.6377 0L29.3282-67.1326L30.0301-67.1326L30.0301-70.459L28.1227-70.459ZM11.6882-24.4797L46.9818-24.4797L46.2311-26.7288L12.4382-26.7288ZM55.1193 0L57.7637 0L30.6381-70.459L29.4327-70.459L29.4327-67.1326Z"/>
  </g>
  <line id="Baseline-L" style="fill:none;stroke:#27AAE1;opacity:1;stroke-width:0.5;" x1="263" x2="3036" y1="1556" y2="1556"/>
  <line id="Capline-L" style="fill:none;stroke:#27AAE1;opacity:1;stroke-width:0.5;" x1="263" x2="3036" y1="1485.54" y2="1485.54"/>
  <line id="left-margin-Ultralight-S" style="fill:none;stroke:#00AEEF;stroke-width:0.5;opacity:1.0;" x1="515.649" x2="515.649" y1="600.785" y2="720.121"/>
  <line id="right-margin-Ultralight-S" style="fill:none;stroke:#00AEEF;stroke-width:0.5;opacity:1.0;" x1="603.773" x2="603.773" y1="600.785" y2="720.121"/>
  <line id="left-margin-Thin-S" style="fill:none;stroke:#00AEEF;stroke-width:0.5;opacity:1.0;" x1="811.863" x2="811.863" y1="600.785" y2="720.121"/>
  <line id="right-margin-Thin-S" style="fill:none;stroke:#00AEEF;stroke-width:0.5;opacity:1.0;" x1="900.982" x2="900.982" y1="600.785" y2="720.121"/>
  <line id="left-margin-Light-S" style="fill:none;stroke:#00AEEF;stroke-width:0.5;opacity:1.0;" x1="1107.6" x2="1107.6" y1="600.785" y2="720.121"/>
  <line id="right-margin-Light-S" style="fill:none;stroke:#00AEEF;stroke-width:0.5;opacity:1.0;" x1="1198.66" x2="1198.66" y1="600.785" y2="720.121"/>
  <line id="left-margin-Regular-S" style="fill:none;stroke:#00AEEF;stroke-width:0.5;opacity:1.0;" x1="1403.58" x2="1403.58" y1="600.785" y2="720.121"/>
  <line id="right-margin-Regular-S" style="fill:none;stroke:#00AEEF;stroke-width:0.5;opacity:1.0;" x1="1496.11" x2="1496.11" y1="600.785" y2="720.121"/>
  <line id="left-margin-Medium-S" style="fill:none;stroke:#00AEEF;stroke-width:0.5;opacity:1.0;" x1="1699.83" x2="1699.83" y1="600.785" y2="720.121"/>
  <line id="right-margin-Medium-S" style="fill:none;stroke:#00AEEF;stroke-width:0.5;opacity:1.0;" x1="1793.28" x2="1793.28" y1="600.785" y2="720.121"/>
  <line id="left-margin-Semibold-S" style="fill:none;stroke:#00AEEF;stroke-width:0.5;opacity:1.0;" x1="1996.19" x2="1996.19" y1="600.785" y2="720.121"/>
  <line id="right-margin-Semibold-S" style="fill:none;stroke:#00AEEF;stroke-width:0.5;opacity:1.0;" x1="2090.35" x2="2090.35" y1="600.785" y2="720.121"/>
  <line id="left-margin-Bold-S" style="fill:none;stroke:#00AEEF;stroke-width:0.5;opacity:1.0;" x1="2292.43" x2="2292.43" y1="600.785" y2="720.121"/>
  <line id="right-margin-Bold-S" style="fill:none;stroke:#00AEEF;stroke-width:0.5;opacity:1.0;" x1="2387.52" x2="2387.52" y1="600.785" y2="720.121"/>
  <line id="left-margin-Heavy-S" style="fill:none;stroke:#00AEEF;stroke-width:0.5;opacity:1.0;" x1="2588.47" x2="2588.47" y1="600.785" y2="720.121"/>
  <line id="right-margin-Heavy-S" style="fill:none;stroke:#00AEEF;stroke-width:0.5;opacity:1.0;" x1="2684.91" x2="2684.91" y1="600.785" y2="720.121"/>
  <line id="left-margin-Black-S" style="fill:none;stroke:#00AEEF;stroke-width:0.5;opacity:1.0;" x1="2884.57" x2="2884.57" y1="600.785" y2="720.121"/>
  <line id="right-margin-Black-S" style="fill:none;stroke:#00AEEF;stroke-width:0.5;opacity:1.0;" x1="2982.23" x2="2982.23" y1="600.785" y2="720.121"/>
  <line id="left-margin-Ultralight-M" style="fill:none;stroke:#00AEEF;stroke-width:0.5;opacity:1.0;" x1="503.641" x2="503.641" y1="1030.79" y2="1150.12"/>
  <line id="right-margin-Ultralight-M" style="fill:none;stroke:#00AEEF;stroke-width:0.5;opacity:1.0;" x1="615.781" x2="615.781" y1="1030.79" y2="1150.12"/>
  <line id="left-margin-Thin-M" style="fill:none;stroke:#00AEEF;stroke-width:0.5;opacity:1.0;" x1="799.793" x2="799.793" y1="1030.79" y2="1150.12"/>
  <line id="right-margin-Thin-M" style="fill:none;stroke:#00AEEF;stroke-width:0.5;opacity:1.0;" x1="913.051" x2="913.051" y1="1030.79" y2="1150.12"/>
  <line id="left-margin-Light-M" style="fill:none;stroke:#00AEEF;stroke-width:0.5;opacity:1.0;" x1="1095.41" x2="1095.41" y1="1030.79" y2="1150.12"/>
  <line id="right-margin-Light-M" style="fill:none;stroke:#00AEEF;stroke-width:0.5;opacity:1.0;" x1="1210.85" x2="1210.85" y1="1030.79" y2="1150.12"/>
  <line id="left-margin-Regular-M" style="fill:none;stroke:#00AEEF;stroke-width:0.5;opacity:1.0;" x1="1391.3" x2="1391.3" y1="1030.79" y2="1150.12"/>
  <line id="right-margin-Regular-M" style="fill:none;stroke:#00AEEF;stroke-width:0.5;opacity:1.0;" x1="1508.39" x2="1508.39" y1="1030.79" y2="1150.12"/>
  <line id="left-margin-Medium-M" style="fill:none;stroke:#00AEEF;stroke-width:0.5;opacity:1.0;" x1="1687.37" x2="1687.37" y1="1030.79" y2="1150.12"/>
  <line id="right-margin-Medium-M" style="fill:none;stroke:#00AEEF;stroke-width:0.5;opacity:1.0;" x1="1805.74" x2="1805.74" y1="1030.79" y2="1150.12"/>
  <line id="left-margin-Semibold-M" style="fill:none;stroke:#00AEEF;stroke-width:0.5;opacity:1.0;" x1="1983.6" x2="1983.6" y1="1030.79" y2="1150.12"/>
  <line id="right-margin-Semibold-M" style="fill:none;stroke:#00AEEF;stroke-width:0.5;opacity:1.0;" x1="2102.94" x2="2102.94" y1="1030.79" y2="1150.12"/>
  <line id="left-margin-Bold-M" style="fill:none;stroke:#00AEEF;stroke-width:0.5;opacity:1.0;" x1="2279.66" x2="2279.66" y1="1030.79" y2="1150.12"/>
  <line id="right-margin-Bold-M" style="fill:none;stroke:#00AEEF;stroke-width:0.5;opacity:1.0;" x1="2400.29" x2="2400.29" y1="1030.79" y2="1150.12"/>
  <line id="left-margin-Heavy-M" style="fill:none;stroke:#00AEEF;stroke-width:0.5;opacity:1.0;" x1="2575.44" x2="2575.44" y1="1030.79" y2="1150.12"/>
  <line id="right-margin-Heavy-M" style="fill:none;stroke:#00AEEF;stroke-width:0.5;opacity:1.0;" x1="2697.94" x2="2697.94" y1="1030.79" y2="1150.12"/>
  <line id="left-margin-Black-M" style="fill:none;stroke:#00AEEF;stroke-width:0.5;opacity:1.0;" x1="2871.32" x2="2871.32" y1="1030.79" y2="1150.12"/>
  <line id="right-margin-Black-M" style="fill:none;stroke:#00AEEF;stroke-width:0.5;opacity:1.0;" x1="2995.48" x2="2995.48" y1="1030.79" y2="1150.12"/>
  <line id="left-margin-Ultralight-L" style="fill:none;stroke:#00AEEF;stroke-width:0.5;opacity:1.0;" x1="487.603" x2="487.603" y1="1460.79" y2="1580.12"/>
  <line id="right-margin-Ultralight-L" style="fill:none;stroke:#00AEEF;stroke-width:0.5;opacity:1.0;" x1="631.819" x2="631.819" y1="1460.79" y2="1580.12"/>
  <line id="left-margin-Thin-L" style="fill:none;stroke:#00AEEF;stroke-width:0.5;opacity:1.0;" x1="783.689" x2="783.689" y1="1460.79" y2="1580.12"/>
  <line id="right-margin-Thin-L" style="fill:none;stroke:#00AEEF;stroke-width:0.5;opacity:1.0;" x1="929.156" x2="929.156" y1="1460.79" y2="1580.12"/>
  <line id="left-margin-Light-L" style="fill:none;stroke:#00AEEF;stroke-width:0.5;opacity:1.0;" x1="1079.18" x2="1079.18" y1="1460.79" y2="1580.12"/>
  <line id="right-margin-Light-L" style="fill:none;stroke:#00AEEF;stroke-width:0.5;opacity:1.0;" x1="1227.09" x2="1227.09" y1="1460.79" y2="1580.12"/>
  <line id="left-margin-Regular-L" style="fill:none;stroke:#00AEEF;stroke-width:0.5;opacity:1.0;" x1="1374.97" x2="1374.97" y1="1460.79" y2="1580.12"/>
  <line id="right-margin-Regular-L" style="fill:none;stroke:#00AEEF;stroke-width:0.5;opacity:1.0;" x1="1524.72" x2="1524.72" y1="1460.79" y2="1580.12"/>
  <line id="left-margin-Medium-L" style="fill:none;stroke:#00AEEF;stroke-width:0.5;opacity:1.0;" x1="1670.87" x2="1670.87" y1="1460.79" y2="1580.12"/>
  <line id="right-margin-Medium-L" style="fill:none;stroke:#00AEEF;stroke-width:0.5;opacity:1.0;" x1="1822.24" x2="1822.24" y1="1460.79" y2="1580.12"/>
  <line id="left-margin-Semibold-L" style="fill:none;stroke:#00AEEF;stroke-width:0.5;opacity:1.0;" x1="1966.97" x2="1966.97" y1="1460.79" y2="1580.12"/>
  <line id="right-margin-Semibold-L" style="fill:none;stroke:#00AEEF;stroke-width:0.5;opacity:1.0;" x1="2119.57" x2="2119.57" y1="1460.79" y2="1580.12"/>
  <line id="left-margin-Bold-L" style="fill:none;stroke:#00AEEF;stroke-width:0.5;opacity:1.0;" x1="2262.87" x2="2262.87" y1="1460.79" y2="1580.12"/>
  <line id="right-margin-Bold-L" style="fill:none;stroke:#00AEEF;stroke-width:0.5;opacity:1.0;" x1="2417.09" x2="2417.09" y1="1460.79" y2="1580.12"/>
  <line id="left-margin-Heavy-L" style="fill:none;stroke:#00AEEF;stroke-width:0.5;opacity:1.0;" x1="2558.4" x2="2558.4" y1="1460.79" y2="1580.12"/>
  <line id="right-margin-Heavy-L" style="fill:none;stroke:#00AEEF;stroke-width:0.5;opacity:1.0;" x1="2714.98" x2="2714.98" y1="1460.79" y2="1580.12"/>
  <line id="left-margin-Black-L" style="fill:none;stroke:#00AEEF;stroke-width:0.5;opacity:1.0;" x1="2854.05" x2="2854.05" y1="1460.79" y2="1580.12"/>
  <line id="right-margin-Black-L" style="fill:none;stroke:#00AEEF;stroke-width:0.5;opacity:1.0;" x1="3012.75" x2="3012.75" y1="1460.79" y2="1580.12"/>
 </g>
 <g id="Symbols">
  <g id="Black-L" transform="matrix(1 0 0 1 2854.05 1556)">
   <path class="hierarchical-0:secondary SFSymbolsPreview4D4D4D" d="M79.3457 32.8613Q90.5762 32.8613 100.757 29.3945Q110.938 25.9277 119.458 19.6777Q127.979 13.4277 134.229 4.90723Q140.479-3.61328 143.945-13.7939Q147.412-23.9746 147.412-35.2051Q147.412-46.4355 143.945-56.6162Q140.479-66.7969 134.204-75.3174Q127.93-83.8379 119.434-90.1123Q110.938-96.3867 100.732-99.8291Q90.5273-103.271 79.2969-103.271Q68.1152-103.271 57.9102-99.8291Q47.7051-96.3867 39.209-90.1123Q30.7129-83.8379 24.4385-75.3174Q18.1641-66.7969 14.7217-56.6162Q11.2793-46.4355 11.2793-35.2051Q11.2793-23.9746 14.7217-13.7939Q18.1641-3.61328 24.4385 4.90723Q30.7129 13.4277 39.2334 19.6777Q47.7539 25.9277 57.9346 29.3945Q68.1152 32.8613 79.3457 32.8613ZM79.3457 12.4023Q71.4355 12.4023 64.2822 10.0098Q57.1289 7.61719 51.1963 3.24707Q45.2637-1.12305 40.8936-7.08008Q36.5234-13.0371 34.1309-20.166Q31.7383-27.2949 31.7383-35.2051Q31.7383-43.1152 34.1309-50.2686Q36.5234-57.4219 40.8936-63.3545Q45.2637-69.2871 51.1963-73.6572Q57.1289-78.0273 64.2578-80.4199Q71.3867-82.8125 79.2969-82.8125Q87.207-82.8125 94.3604-80.4199Q101.514-78.0273 107.471-73.6572Q113.428-69.2871 117.798-63.3545Q122.168-57.4219 124.561-50.2686Q126.953-43.1152 126.953-35.2051Q126.953-27.2949 124.561-20.166Q122.168-13.0371 117.798-7.08008Q113.428-1.12305 107.495 3.24707Q101.562 7.61719 94.4092 10.0098Q87.2559 12.4023 79.3457 12.4023Z"/>
   <path class="hierarchical-1:primary SFSymbolsPreview212121" d="M55.8594-28.4668L102.783-28.4668Q106.055-28.4668 108.13-30.3467Q110.205-32.2266 110.205-35.2539Q110.205-38.3301 108.13-40.2344Q106.055-42.1387 102.783-42.1387L55.8594-42.1387Q52.5879-42.1387 50.5371-40.2344Q48.4863-38.3301 48.4863-35.2539Q48.4863-32.2266 50.5371-30.3467Q52.5879-28.4668 55.8594-28.4668ZM55.8594-49.0723L102.783-49.0723Q106.055-49.0723 108.13-50.9521Q110.205-52.832 110.205-55.9082Q110.205-58.9355 108.13-60.8398Q106.055-62.7441 102.783-62.7441L55.8594-62.7441Q52.5879-62.7441 50.5371-60.8398Q48.4863-58.9355 48.4863-55.9082Q48.4863-52.832 50.5371-50.9521Q52.5879-49.0723 55.8594-49.0723ZM55.8594-7.86133L102.783-7.86133Q106.055-7.86133 108.13-9.74121Q110.205-11.6211 110.205-14.6484Q110.205-17.7246 108.13-19.6289Q106.055-21.5332 102.783-21.5332L55.8594-21.5332Q52.5879-21.5332 50.5371-19.6289Q48.4863-17.7246 48.4863-14.6484Q48.4863-11.6211 50.5371-9.74121Q52.5879-7.86133 55.8594-7.86133Z"/>
  </g>
  <g id="Heavy-L" transform="matrix(1 0 0 1 2558.4 1556)">
   <path class="hierarchical-0:secondary SFSymbolsPreview4D4D4D" d="M78.2715 31.7871Q89.3555 31.7871 99.3652 28.3691Q109.375 24.9512 117.749 18.7988Q126.123 12.6465 132.3 4.24805Q138.477-4.15039 141.895-14.1602Q145.312-24.1699 145.312-35.2051Q145.312-46.2402 141.895-56.2744Q138.477-66.3086 132.3-74.6826Q126.123-83.0566 117.749-89.2578Q109.375-95.459 99.3408-98.8525Q89.3066-102.246 78.2227-102.246Q67.2363-102.246 57.2021-98.8525Q47.168-95.459 38.7939-89.2578Q30.4199-83.0566 24.2432-74.6826Q18.0664-66.3086 14.6729-56.2744Q11.2793-46.2402 11.2793-35.2051Q11.2793-24.1699 14.6729-14.1602Q18.0664-4.15039 24.2432 4.24805Q30.4199 12.6465 38.8184 18.7988Q47.2168 24.9512 57.2266 28.3691Q67.2363 31.7871 78.2715 31.7871ZM78.2715 14.0137Q70.1172 14.0137 62.7197 11.5479Q55.3223 9.08203 49.1943 4.56543Q43.0664 0.0488281 38.5498-6.12793Q34.0332-12.3047 31.543-19.6777Q29.0527-27.0508 29.0527-35.2051Q29.0527-43.4082 31.543-50.8057Q34.0332-58.2031 38.5254-64.3311Q43.0176-70.459 49.1699-74.9756Q55.3223-79.4922 62.6953-81.9824Q70.0684-84.4727 78.2227-84.4727Q86.4258-84.4727 93.8232-81.9824Q101.221-79.4922 107.373-74.9756Q113.525-70.459 118.042-64.3311Q122.559-58.2031 125.049-50.8057Q127.539-43.4082 127.539-35.2051Q127.539-27.0508 125.049-19.6777Q122.559-12.3047 118.042-6.12793Q113.525 0.0488281 107.397 4.56543Q101.27 9.08203 93.8721 11.5479Q86.4746 14.0137 78.2715 14.0137Z"/>
   <path class="hierarchical-1:primary SFSymbolsPreview212121" d="M52.6367-29.1504L103.955-29.1504Q106.885-29.1504 108.74-30.835Q110.596-32.5195 110.596-35.2539Q110.596-38.0371 108.74-39.7217Q106.885-41.4062 103.955-41.4062L52.6367-41.4062Q49.707-41.4062 47.876-39.7217Q46.0449-38.0371 46.0449-35.2539Q46.0449-32.5195 47.876-30.835Q49.707-29.1504 52.6367-29.1504ZM52.6367-49.8047L103.955-49.8047Q106.885-49.8047 108.74-51.4893Q110.596-53.1738 110.596-55.957Q110.596-58.6914 108.74-60.376Q106.885-62.0605 103.955-62.0605L52.6367-62.0605Q49.707-62.0605 47.876-60.376Q46.0449-58.6914 46.0449-55.957Q46.0449-53.1738 47.876-51.4893Q49.707-49.8047 52.6367-49.8047ZM52.6367-8.49609L103.955-8.49609Q106.885-8.49609 108.74-10.1807Q110.596-11.8652 110.596-14.5996Q110.596-17.334 108.74-19.043Q106.885-20.752 103.955-20.752L52.6367-20.752Q49.707-20.752 47.876-19.043Q46.0449-17.334 46.0449-14.5996Q46.0449-11.8652 47.876-10.1807Q49.707-8.49609 52.6367-8.49609Z"/>
  </g>
  <g id="Bold-L" transform="matrix(1 0 0 1 2262.87 1556)">
   <path class="hierarchical-0:secondary SFSymbolsPreview4D4D4D" d="M77.0996 30.6152Q87.9395 30.6152 97.7783 27.2461Q107.617 23.877 115.869 17.8223Q124.121 11.7676 130.176 3.51562Q136.23-4.73633 139.6-14.5752Q142.969-24.4141 142.969-35.2539Q142.969-46.0938 139.6-55.9326Q136.23-65.7715 130.151-73.999Q124.072-82.2266 115.845-88.3057Q107.617-94.3848 97.7539-97.7295Q87.8906-101.074 77.0508-101.074Q66.2598-101.074 56.3965-97.7295Q46.5332-94.3848 38.3301-88.3057Q30.127-82.2266 24.0479-73.999Q17.9688-65.7715 14.624-55.9326Q11.2793-46.0938 11.2793-35.2539Q11.2793-24.4141 14.624-14.5752Q17.9688-4.73633 24.0479 3.51562Q30.127 11.7676 38.3545 17.8223Q46.582 23.877 56.4209 27.2461Q66.2598 30.6152 77.0996 30.6152ZM77.0996 15.8203Q68.6523 15.8203 60.9863 13.2568Q53.3203 10.6934 46.9482 6.00586Q40.5762 1.31836 35.8887-5.07812Q31.2012-11.4746 28.6377-19.1162Q26.0742-26.7578 26.0742-35.2539Q26.0742-43.75 28.6377-51.416Q31.2012-59.082 35.8887-65.4541Q40.5762-71.8262 46.9238-76.4893Q53.2715-81.1523 60.9375-83.7158Q68.6035-86.2793 77.0508-86.2793Q85.5469-86.2793 93.2129-83.7158Q100.879-81.1523 107.275-76.4893Q113.672-71.8262 118.335-65.4541Q122.998-59.082 125.586-51.416Q128.174-43.75 128.174-35.2539Q128.174-26.7578 125.61-19.1162Q123.047-11.4746 118.359-5.07812Q113.672 1.31836 107.3 6.00586Q100.928 10.6934 93.2617 13.2568Q85.5957 15.8203 77.0996 15.8203Z"/>
   <path class="hierarchical-1:primary SFSymbolsPreview212121" d="M49.0723-30.0293L105.273-30.0293Q107.812-30.0293 109.424-31.4941Q111.035-32.959 111.035-35.3027Q111.035-37.7441 109.424-39.209Q107.812-40.6738 105.273-40.6738L49.0723-40.6738Q46.5332-40.6738 44.9219-39.209Q43.3105-37.7441 43.3105-35.3027Q43.3105-32.959 44.9219-31.4941Q46.5332-30.0293 49.0723-30.0293ZM49.0723-50.7324L105.273-50.7324Q107.812-50.7324 109.424-52.1973Q111.035-53.6621 111.035-56.0547Q111.035-58.4473 109.424-59.9121Q107.812-61.377 105.273-61.377L49.0723-61.377Q46.5332-61.377 44.9219-59.9121Q43.3105-58.4473 43.3105-56.0547Q43.3105-53.6621 44.9219-52.1973Q46.5332-50.7324 49.0723-50.7324ZM49.0723-9.27734L105.273-9.27734Q107.812-9.27734 109.424-10.7422Q111.035-12.207 111.035-14.5508Q111.035-16.9434 109.424-18.4326Q107.812-19.9219 105.273-19.9219L49.0723-19.9219Q46.5332-19.9219 44.9219-18.4326Q43.3105-16.9434 43.3105-14.5508Q43.3105-12.207 44.9219-10.7422Q46.5332-9.27734 49.0723-9.27734Z"/>
  </g>
  <g id="Semibold-L" transform="matrix(1 0 0 1 1966.97 1556)">
   <path class="hierarchical-0:secondary SFSymbolsPreview4D4D4D" d="M76.2695 29.7852Q86.9629 29.7852 96.6797 26.4648Q106.396 23.1445 114.551 17.1631Q122.705 11.1816 128.687 3.02734Q134.668-5.12695 137.988-14.8438Q141.309-24.5605 141.309-35.2539Q141.309-45.9473 137.988-55.6641Q134.668-65.3809 128.662-73.5107Q122.656-81.6406 114.526-87.6465Q106.396-93.6523 96.6553-96.9727Q86.9141-100.293 76.2207-100.293Q65.5273-100.293 55.8105-96.9727Q46.0938-93.6523 37.9883-87.6465Q29.8828-81.6406 23.877-73.5107Q17.8711-65.3809 14.5752-55.6641Q11.2793-45.9473 11.2793-35.2539Q11.2793-24.5605 14.5996-14.8438Q17.9199-5.12695 23.9014 3.02734Q29.8828 11.1816 38.0127 17.1631Q46.1426 23.1445 55.8594 26.4648Q65.5762 29.7852 76.2695 29.7852ZM76.2695 17.041Q67.627 17.041 59.7656 14.4043Q51.9043 11.7676 45.3857 6.98242Q38.8672 2.19727 34.0576-4.3457Q29.248-10.8887 26.6357-18.7256Q24.0234-26.5625 24.0234-35.2539Q24.0234-43.9453 26.6357-51.8066Q29.248-59.668 34.0332-66.1865Q38.8184-72.7051 45.3369-77.4902Q51.8555-82.2754 59.7168-84.9121Q67.5781-87.5488 76.2207-87.5488Q84.9609-87.5488 92.7979-84.9121Q100.635-82.2754 107.178-77.4902Q113.721-72.7051 118.506-66.1865Q123.291-59.668 125.928-51.8066Q128.564-43.9453 128.564-35.2539Q128.613-26.5625 126.001-18.7256Q123.389-10.8887 118.579-4.3457Q113.77 2.19727 107.227 6.98242Q100.684 11.7676 92.8467 14.4043Q85.0098 17.041 76.2695 17.041Z"/>
   <path class="hierarchical-1:primary SFSymbolsPreview212121" d="M46.5332-30.5664L106.104-30.5664Q108.398-30.5664 109.839-31.8604Q111.279-33.1543 111.279-35.3027Q111.279-37.5 109.839-38.8184Q108.398-40.1367 106.104-40.1367L46.5332-40.1367Q44.2871-40.1367 42.8467-38.8184Q41.4062-37.5 41.4062-35.3027Q41.4062-33.1543 42.8467-31.8604Q44.2871-30.5664 46.5332-30.5664ZM46.5332-51.2695L106.104-51.2695Q108.398-51.2695 109.839-52.5879Q111.279-53.9062 111.279-56.1035Q111.279-58.2031 109.839-59.5215Q108.398-60.8398 106.104-60.8398L46.5332-60.8398Q44.2871-60.8398 42.8467-59.5215Q41.4062-58.2031 41.4062-56.1035Q41.4062-53.9062 42.8467-52.5879Q44.2871-51.2695 46.5332-51.2695ZM46.5332-9.76562L106.104-9.76562Q108.398-9.76562 109.839-11.0596Q111.279-12.3535 111.279-14.502Q111.279-16.6504 109.839-17.9932Q108.398-19.3359 106.104-19.3359L46.5332-19.3359Q44.2871-19.3359 42.8467-17.9932Q41.4062-16.6504 41.4062-14.502Q41.4062-12.3535 42.8467-11.0596Q44.2871-9.76562 46.5332-9.76562Z"/>
  </g>
  <g id="Medium-L" transform="matrix(1 0 0 1 1670.87 1556)">
   <path class="hierarchical-0:secondary SFSymbolsPreview4D4D4D" d="M75.6836 29.1504Q86.2305 29.1504 95.8496 25.8545Q105.469 22.5586 113.55 16.626Q121.631 10.6934 127.563 2.63672Q133.496-5.41992 136.792-15.0635Q140.088-24.707 140.088-35.2539Q140.088-45.8496 136.792-55.4688Q133.496-65.0879 127.539-73.1445Q121.582-81.2012 113.525-87.1582Q105.469-93.1152 95.8252-96.3867Q86.1816-99.6582 75.6348-99.6582Q65.0391-99.6582 55.4199-96.3867Q45.8008-93.1152 37.7441-87.1582Q29.6875-81.2012 23.7549-73.1445Q17.8223-65.0879 14.5508-55.4688Q11.2793-45.8496 11.2793-35.2539Q11.2793-24.707 14.5508-15.0635Q17.8223-5.41992 23.7549 2.63672Q29.6875 10.6934 37.7686 16.626Q45.8496 22.5586 55.4688 25.8545Q65.0879 29.1504 75.6836 29.1504ZM75.6836 18.0176Q66.8457 18.0176 58.8379 15.332Q50.8301 12.6465 44.2139 7.76367Q37.5977 2.88086 32.6904-3.78418Q27.7832-10.4492 25.1221-18.4326Q22.4609-26.416 22.4609-35.2539Q22.4609-44.1406 25.1221-52.124Q27.7832-60.1074 32.666-66.748Q37.5488-73.3887 44.165-78.2715Q50.7812-83.1543 58.7891-85.8154Q66.7969-88.4766 75.6348-88.4766Q84.4727-88.4766 92.4805-85.8154Q100.488-83.1543 107.129-78.2715Q113.77-73.3887 118.652-66.748Q123.535-60.1074 126.221-52.124Q128.906-44.1406 128.906-35.2539Q128.955-26.416 126.294-18.4326Q123.633-10.4492 118.726-3.78418Q113.818 2.88086 107.178 7.76367Q100.537 12.6465 92.5293 15.332Q84.5215 18.0176 75.6836 18.0176Z"/>
   <path class="hierarchical-1:primary SFSymbolsPreview212121" d="M44.6289-30.957L106.787-30.957Q108.838-30.957 110.156-32.1533Q111.475-33.3496 111.475-35.3027Q111.475-37.3047 110.156-38.501Q108.838-39.6973 106.787-39.6973L44.6289-39.6973Q42.5781-39.6973 41.2598-38.501Q39.9414-37.3047 39.9414-35.3027Q39.9414-33.3496 41.2598-32.1533Q42.5781-30.957 44.6289-30.957ZM44.6289-51.709L106.787-51.709Q108.838-51.709 110.156-52.9053Q111.475-54.1016 111.475-56.1035Q111.475-58.0566 110.156-59.2529Q108.838-60.4492 106.787-60.4492L44.6289-60.4492Q42.5781-60.4492 41.2598-59.2529Q39.9414-58.0566 39.9414-56.1035Q39.9414-54.1016 41.2598-52.9053Q42.5781-51.709 44.6289-51.709ZM44.6289-10.1074L106.787-10.1074Q108.838-10.1074 110.156-11.3037Q111.475-12.5 111.475-14.4531Q111.475-16.4062 110.156-17.627Q108.838-18.8477 106.787-18.8477L44.6289-18.8477Q42.5781-18.8477 41.2598-17.627Q39.9414-16.4062 39.9414-14.4531Q39.9414-12.5 41.2598-11.3037Q42.5781-10.1074 44.6289-10.1074Z"/>
  </g>
  <g id="Regular-L" transform="matrix(1 0 0 1 1374.97 1556)">
   <path class="hierarchical-0:secondary SFSymbolsPreview4D4D4D" d="M74.8535 28.3203Q85.3027 28.3203 94.7998 25.0732Q104.297 21.8262 112.256 15.9668Q120.215 10.1074 126.099 2.14844Q131.982-5.81055 135.229-15.332Q138.477-24.8535 138.477-35.2539Q138.477-45.7031 135.229-55.2002Q131.982-64.6973 126.099-72.6562Q120.215-80.6152 112.256-86.499Q104.297-92.3828 94.7754-95.6299Q85.2539-98.877 74.8047-98.877Q64.3555-98.877 54.8584-95.6299Q45.3613-92.3828 37.4268-86.499Q29.4922-80.6152 23.6084-72.6562Q17.7246-64.6973 14.502-55.2002Q11.2793-45.7031 11.2793-35.2539Q11.2793-24.8535 14.5264-15.332Q17.7734-5.81055 23.6328 2.14844Q29.4922 10.1074 37.4512 15.9668Q45.4102 21.8262 54.9072 25.0732Q64.4043 28.3203 74.8535 28.3203ZM74.8535 19.2383Q65.8203 19.2383 57.6416 16.4795Q49.4629 13.7207 42.6758 8.74023Q35.8887 3.75977 30.8838-3.05176Q25.8789-9.86328 23.1445-18.042Q20.4102-26.2207 20.4102-35.2539Q20.4102-44.3359 23.1445-52.5146Q25.8789-60.6934 30.8594-67.5049Q35.8398-74.3164 42.627-79.2969Q49.4141-84.2773 57.5928-87.0117Q65.7715-89.7461 74.8047-89.7461Q83.8867-89.7461 92.0654-87.0117Q100.244-84.2773 107.056-79.2969Q113.867-74.3164 118.848-67.5049Q123.828-60.6934 126.587-52.5146Q129.346-44.3359 129.346-35.2539Q129.395-26.2207 126.66-18.042Q123.926-9.86328 118.921-3.05176Q113.916 3.75977 107.104 8.74023Q100.293 13.7207 92.1143 16.4795Q83.9355 19.2383 74.8535 19.2383Z"/>
   <path class="hierarchical-1:primary SFSymbolsPreview212121" d="M42.1875-31.4941L107.666-31.4941Q109.473-31.4941 110.62-32.5439Q111.768-33.5938 111.768-35.3027Q111.768-37.0605 110.62-38.1104Q109.473-39.1602 107.666-39.1602L42.1875-39.1602Q40.3809-39.1602 39.2334-38.1104Q38.0859-37.0605 38.0859-35.3027Q38.0859-33.5938 39.2334-32.5439Q40.3809-31.4941 42.1875-31.4941ZM42.1875-52.2949L107.666-52.2949Q109.473-52.2949 110.62-53.3447Q111.768-54.3945 111.768-56.1523Q111.768-57.8613 110.62-58.9111Q109.473-59.9609 107.666-59.9609L42.1875-59.9609Q40.3809-59.9609 39.2334-58.9111Q38.0859-57.8613 38.0859-56.1523Q38.0859-54.3945 39.2334-53.3447Q40.3809-52.2949 42.1875-52.2949ZM42.1875-10.5957L107.666-10.5957Q109.473-10.5957 110.62-11.6455Q111.768-12.6953 111.768-14.4043Q111.768-16.1133 110.62-17.1875Q109.473-18.2617 107.666-18.2617L42.1875-18.2617Q40.3809-18.2617 39.2334-17.1875Q38.0859-16.1133 38.0859-14.4043Q38.0859-12.6953 39.2334-11.6455Q40.3809-10.5957 42.1875-10.5957Z"/>
  </g>
  <g id="Light-L" transform="matrix(1 0 0 1 1079.18 1556)">
   <path class="hierarchical-0:secondary SFSymbolsPreview4D4D4D" d="M73.9258 27.3926Q84.2285 27.3926 93.6035 24.1943Q102.979 20.9961 110.815 15.2344Q118.652 9.47266 124.438 1.63574Q130.225-6.20117 133.423-15.5762Q136.621-24.9512 136.621-35.2539Q136.621-45.5566 133.423-54.9316Q130.225-64.3066 124.438-72.1436Q118.652-79.9805 110.815-85.7666Q102.979-91.5527 93.6035-94.751Q84.2285-97.9492 73.877-97.9492Q63.5742-97.9492 54.2236-94.751Q44.873-91.5527 37.0361-85.7666Q29.1992-79.9805 23.4131-72.1436Q17.627-64.3066 14.4531-54.9316Q11.2793-45.5566 11.2793-35.2539Q11.2793-24.9512 14.4775-15.5762Q17.6758-6.20117 23.4375 1.63574Q29.1992 9.47266 37.0361 15.2344Q44.873 20.9961 54.248 24.1943Q63.623 27.3926 73.9258 27.3926ZM73.9258 20.5078Q64.6973 20.5078 56.3232 17.6758Q47.9492 14.8438 40.9912 9.74121Q34.0332 4.63867 28.9307-2.31934Q23.8281-9.27734 21.0205-17.6514Q18.2129-26.0254 18.2129-35.2539Q18.2129-44.5312 21.0205-52.8809Q23.8281-61.2305 28.9307-68.2129Q34.0332-75.1953 40.9912-80.2979Q47.9492-85.4004 56.2988-88.208Q64.6484-91.0156 73.877-91.0156Q83.1543-91.0156 91.5283-88.208Q99.9023-85.4004 106.86-80.2979Q113.818-75.1953 118.945-68.2129Q124.072-61.2305 126.88-52.8809Q129.688-44.5312 129.688-35.2539Q129.736-26.0254 126.929-17.6514Q124.121-9.27734 118.994-2.31934Q113.867 4.63867 106.909 9.74121Q99.9512 14.8438 91.5771 17.6758Q83.2031 20.5078 73.9258 20.5078Z"/>
   <path class="hierarchical-1:primary SFSymbolsPreview212121" d="M40.0391-32.373L108.008-32.373Q109.375-32.373 110.278-33.2031Q111.182-34.0332 111.182-35.3516Q111.182-36.7188 110.278-37.5488Q109.375-38.3789 108.008-38.3789L40.0391-38.3789Q38.6719-38.3789 37.7686-37.5488Q36.8652-36.7188 36.8652-35.3516Q36.8652-34.0332 37.7686-33.2031Q38.6719-32.373 40.0391-32.373ZM40.0391-53.125L108.008-53.125Q109.375-53.125 110.278-53.9551Q111.182-54.7852 111.182-56.1523Q111.182-57.4707 110.278-58.3008Q109.375-59.1309 108.008-59.1309L40.0391-59.1309Q38.6719-59.1309 37.7686-58.3008Q36.8652-57.4707 36.8652-56.1523Q36.8652-54.7852 37.7686-53.9551Q38.6719-53.125 40.0391-53.125ZM40.0391-11.4746L108.008-11.4746Q109.375-11.4746 110.278-12.3047Q111.182-13.1348 111.182-14.4531Q111.182-15.8203 110.278-16.6504Q109.375-17.4805 108.008-17.4805L40.0391-17.4805Q38.6719-17.4805 37.7686-16.6504Q36.8652-15.8203 36.8652-14.4531Q36.8652-13.1348 37.7686-12.3047Q38.6719-11.4746 40.0391-11.4746Z"/>
  </g>
  <g id="Thin-L" transform="matrix(1 0 0 1 783.689 1556)">
   <path class="hierarchical-0:secondary SFSymbolsPreview4D4D4D" d="M72.7051 26.1719Q82.8613 26.1719 92.041 23.0469Q101.221 19.9219 108.911 14.2822Q116.602 8.64258 122.266 0.952148Q127.93-6.73828 131.055-15.9424Q134.18-25.1465 134.18-35.2539Q134.18-45.4102 131.055-54.5898Q127.93-63.7695 122.29-71.46Q116.65-79.1504 108.936-84.8145Q101.221-90.4785 92.0166-93.6035Q82.8125-96.7285 72.7051-96.7285Q62.5488-96.7285 53.3691-93.6035Q44.1895-90.4785 36.499-84.8145Q28.8086-79.1504 23.1689-71.46Q17.5293-63.7695 14.4043-54.5898Q11.2793-45.4102 11.2793-35.2539Q11.2793-25.1465 14.4043-15.9424Q17.5293-6.73828 23.1689 0.952148Q28.8086 8.64258 36.5234 14.2822Q44.2383 19.9219 53.418 23.0469Q62.5977 26.1719 72.7051 26.1719ZM72.7051 22.168Q63.2324 22.168 54.6143 19.2627Q45.9961 16.3574 38.8184 11.084Q31.6406 5.81055 26.3428-1.36719Q21.0449-8.54492 18.1641-17.1631Q15.2832-25.7812 15.2832-35.2539Q15.2832-44.7754 18.1641-53.3936Q21.0449-62.0117 26.3428-69.1895Q31.6406-76.3672 38.8184-81.6406Q45.9961-86.9141 54.5898-89.8193Q63.1836-92.7246 72.7051-92.7246Q82.2266-92.7246 90.8203-89.8193Q99.4141-86.9141 106.616-81.6406Q113.818-76.3672 119.092-69.1895Q124.365-62.0117 127.271-53.3936Q130.176-44.7754 130.176-35.2539Q130.176-25.7812 127.271-17.1631Q124.365-8.54492 119.092-1.36719Q113.818 5.81055 106.641 11.084Q99.4629 16.3574 90.8447 19.2627Q82.2266 22.168 72.7051 22.168Z"/>
   <path class="hierarchical-1:primary SFSymbolsPreview212121" d="M37.207-33.5449L108.398-33.5449Q109.229-33.5449 109.79-34.0576Q110.352-34.5703 110.352-35.4004Q110.352-36.2793 109.79-36.792Q109.229-37.3047 108.398-37.3047L37.207-37.3047Q36.3281-37.3047 35.7666-36.792Q35.2051-36.2793 35.2051-35.4004Q35.2051-34.5703 35.7666-34.0576Q36.3281-33.5449 37.207-33.5449ZM37.207-54.1992L108.398-54.1992Q109.229-54.1992 109.79-54.7119Q110.352-55.2246 110.352-56.1035Q110.352-56.9824 109.79-57.4951Q109.229-58.0078 108.398-58.0078L37.207-58.0078Q36.3281-58.0078 35.7666-57.4951Q35.2051-56.9824 35.2051-56.1035Q35.2051-55.2246 35.7666-54.7119Q36.3281-54.1992 37.207-54.1992ZM37.207-12.6465L108.398-12.6465Q109.229-12.6465 109.79-13.1592Q110.352-13.6719 110.352-14.502Q110.352-15.3809 109.79-15.8936Q109.229-16.4062 108.398-16.4062L37.207-16.4062Q36.3281-16.4062 35.7666-15.8936Q35.2051-15.3809 35.2051-14.502Q35.2051-13.6719 35.7666-13.1592Q36.3281-12.6465 37.207-12.6465Z"/>
  </g>
  <g id="Ultralight-L" transform="matrix(1 0 0 1 487.603 1556)">
   <path class="hierarchical-0:secondary SFSymbolsPreview4D4D4D" d="M72.0703 25.5371Q82.1289 25.5371 91.2354 22.4609Q100.342 19.3848 107.935 13.7939Q115.527 8.20312 121.143 0.585938Q126.758-7.03125 129.858-16.1133Q132.959-25.1953 132.959-35.2539Q132.959-45.3125 129.858-54.4189Q126.758-63.5254 121.167-71.1182Q115.576-78.7109 107.959-84.3262Q100.342-89.9414 91.2354-93.0176Q82.1289-96.0938 72.0703-96.0938Q62.0605-96.0938 52.9541-93.0176Q43.8477-89.9414 36.2305-84.3262Q28.6133-78.7109 23.0225-71.1182Q17.4316-63.5254 14.3555-54.4189Q11.2793-45.3125 11.2793-35.2539Q11.2793-25.1953 14.3555-16.1133Q17.4316-7.03125 23.0225 0.585938Q28.6133 8.20312 36.2305 13.7939Q43.8477 19.3848 52.9541 22.4609Q62.0605 25.5371 72.0703 25.5371ZM72.0703 23.0469Q62.4512 23.0469 53.7109 20.0928Q44.9707 17.1387 37.6709 11.792Q30.3711 6.44531 25.0244-0.854492Q19.6777-8.1543 16.7236-16.8945Q13.7695-25.6348 13.7695-35.2539Q13.7695-44.9219 16.7236-53.6377Q19.6777-62.3535 25.0244-69.6533Q30.3711-76.9531 37.6953-82.3242Q45.0195-87.6953 53.7354-90.6494Q62.4512-93.6035 72.0703-93.6035Q81.7383-93.6035 90.4785-90.6494Q99.2188-87.6953 106.494-82.3242Q113.77-76.9531 119.141-69.6533Q124.512-62.3535 127.466-53.6377Q130.42-44.9219 130.42-35.2539Q130.371-25.6348 127.441-16.8945Q124.512-8.1543 119.141-0.854492Q113.77 6.44531 106.494 11.792Q99.2188 17.1387 90.4785 20.0928Q81.7383 23.0469 72.0703 23.0469Z"/>
   <path class="hierarchical-1:primary SFSymbolsPreview212121" d="M35.7422-34.1309L108.643-34.1309Q109.18-34.1309 109.546-34.4971Q109.912-34.8633 109.912-35.4492Q109.912-36.084 109.546-36.4502Q109.18-36.8164 108.643-36.8164L35.7422-36.8164Q35.1562-36.8164 34.7656-36.4502Q34.375-36.084 34.375-35.4492Q34.375-34.8633 34.7656-34.4971Q35.1562-34.1309 35.7422-34.1309ZM35.7422-54.7363L108.643-54.7363Q109.18-54.7363 109.546-55.127Q109.912-55.5176 109.912-56.1035Q109.912-56.7383 109.546-57.0801Q109.18-57.4219 108.643-57.4219L35.7422-57.4219Q35.1562-57.4219 34.7656-57.0801Q34.375-56.7383 34.375-56.1035Q34.375-55.5176 34.7656-55.127Q35.1562-54.7363 35.7422-54.7363ZM35.7422-13.2324L108.643-13.2324Q109.18-13.2324 109.546-13.5986Q109.912-13.9648 109.912-14.5508Q109.912-15.1855 109.546-15.5518Q109.18-15.918 108.643-15.918L35.7422-15.918Q35.1562-15.918 34.7656-15.5518Q34.375-15.1855 34.375-14.5508Q34.375-13.9648 34.7656-13.5986Q35.1562-13.2324 35.7422-13.2324Z"/>
  </g>
  <g id="Black-M" transform="matrix(1 0 0 1 2871.32 1126)">
   <path class="hierarchical-0:secondary SFSymbolsPreview4D4D4D" d="M62.0605 18.1152Q73.0957 18.1152 82.7637 13.9648Q92.4316 9.81445 99.7559 2.46582Q107.08-4.88281 111.255-14.5264Q115.43-24.1699 115.43-35.2051Q115.43-46.2402 111.255-55.8838Q107.08-65.5273 99.7559-72.876Q92.4316-80.2246 82.7637-84.375Q73.0957-88.5254 62.0605-88.5254Q51.0742-88.5254 41.4062-84.375Q31.7383-80.2246 24.3896-72.876Q17.041-65.5273 12.8906-55.8838Q8.74023-46.2402 8.74023-35.2051Q8.74023-24.1699 12.8906-14.5264Q17.041-4.88281 24.3896 2.46582Q31.7383 9.81445 41.4062 13.9648Q51.0742 18.1152 62.0605 18.1152ZM62.0605 0.732422Q54.6387 0.732422 48.1201-2.05078Q41.6016-4.83398 36.6455-9.76562Q31.6895-14.6973 28.9062-21.2158Q26.123-27.7344 26.123-35.2051Q26.123-42.6758 28.9062-49.1943Q31.6895-55.7129 36.6455-60.6445Q41.6016-65.5762 48.1201-68.3594Q54.6387-71.1426 62.0605-71.1426Q69.5312-71.1426 76.0498-68.3594Q82.5684-65.5762 87.5-60.6445Q92.4316-55.7129 95.2393-49.1943Q98.0469-42.6758 98.0469-35.2051Q98.0469-27.7344 95.2393-21.2158Q92.4316-14.6973 87.5-9.76562Q82.5684-4.83398 76.0498-2.05078Q69.5312 0.732422 62.0605 0.732422Z"/>
   <path class="hierarchical-1:primary SFSymbolsPreview212121" d="M45.3125-29.6875L78.8086-29.6875Q81.4941-29.6875 83.1787-31.2256Q84.8633-32.7637 84.8633-35.2539Q84.8633-37.7441 83.1787-39.3311Q81.4941-40.918 78.8086-40.918L45.3125-40.918Q42.627-40.918 40.9424-39.3311Q39.2578-37.7441 39.2578-35.2539Q39.2578-32.7637 40.9424-31.2256Q42.627-29.6875 45.3125-29.6875ZM45.3125-45.6055L78.8086-45.6055Q81.4941-45.6055 83.1787-47.1436Q84.8633-48.6816 84.8633-51.1719Q84.8633-53.7109 83.1787-55.2734Q81.4941-56.8359 78.8086-56.8359L45.3125-56.8359Q42.627-56.8359 40.9424-55.2734Q39.2578-53.7109 39.2578-51.1719Q39.2578-48.6816 40.9424-47.1436Q42.627-45.6055 45.3125-45.6055ZM45.3125-13.7695L78.8086-13.7695Q81.4941-13.7695 83.1787-15.3076Q84.8633-16.8457 84.8633-19.3359Q84.8633-21.8262 83.1787-23.4131Q81.4941-25 78.8086-25L45.3125-25Q42.627-25 40.9424-23.4131Q39.2578-21.8262 39.2578-19.3359Q39.2578-16.8457 40.9424-15.3076Q42.627-13.7695 45.3125-13.7695Z"/>
  </g>
  <g id="Heavy-M" transform="matrix(1 0 0 1 2575.44 1126)">
   <path class="hierarchical-0:secondary SFSymbolsPreview4D4D4D" d="M61.2305 17.2852Q72.0703 17.2852 81.5918 13.1836Q91.1133 9.08203 98.3154 1.85547Q105.518-5.37109 109.644-14.8682Q113.77-24.3652 113.77-35.2051Q113.77-46.0449 109.644-55.542Q105.518-65.0391 98.3154-72.29Q91.1133-79.541 81.5918-83.6182Q72.0703-87.6953 61.2305-87.6953Q50.4395-87.6953 40.918-83.6182Q31.3965-79.541 24.1699-72.29Q16.9434-65.0391 12.8418-55.542Q8.74023-46.0449 8.74023-35.2051Q8.74023-24.3652 12.8418-14.8682Q16.9434-5.37109 24.1699 1.85547Q31.3965 9.08203 40.918 13.1836Q50.4395 17.2852 61.2305 17.2852ZM61.2305 2.05078Q53.5156 2.05078 46.7529-0.854492Q39.9902-3.75977 34.8633-8.8623Q29.7363-13.9648 26.8555-20.7275Q23.9746-27.4902 23.9746-35.2051Q23.9746-42.9688 26.8555-49.7314Q29.7363-56.4941 34.8633-61.5967Q39.9902-66.6992 46.7529-69.5801Q53.5156-72.4609 61.2305-72.4609Q68.9453-72.4609 75.708-69.5801Q82.4707-66.6992 87.5977-61.5967Q92.7246-56.4941 95.6299-49.7314Q98.5352-42.9688 98.5352-35.2051Q98.5352-27.4902 95.6299-20.7275Q92.7246-13.9648 87.6221-8.8623Q82.5195-3.75977 75.7568-0.854492Q68.9941 2.05078 61.2305 2.05078Z"/>
   <path class="hierarchical-1:primary SFSymbolsPreview212121" d="M42.627-30.1758L79.834-30.1758Q82.2754-30.1758 83.8135-31.5674Q85.3516-32.959 85.3516-35.2539Q85.3516-37.5488 83.8135-38.9648Q82.2754-40.3809 79.834-40.3809L42.627-40.3809Q40.1855-40.3809 38.6475-38.9648Q37.1094-37.5488 37.1094-35.2539Q37.1094-32.959 38.6475-31.5674Q40.1855-30.1758 42.627-30.1758ZM42.627-46.1914L79.834-46.1914Q82.2754-46.1914 83.8135-47.583Q85.3516-48.9746 85.3516-51.2207Q85.3516-53.5156 83.8135-54.9561Q82.2754-56.3965 79.834-56.3965L42.627-56.3965Q40.1855-56.3965 38.6475-54.9561Q37.1094-53.5156 37.1094-51.2207Q37.1094-48.9746 38.6475-47.583Q40.1855-46.1914 42.627-46.1914ZM42.627-14.209L79.834-14.209Q82.2754-14.209 83.8135-15.6006Q85.3516-16.9922 85.3516-19.2871Q85.3516-21.5332 83.8135-22.9736Q82.2754-24.4141 79.834-24.4141L42.627-24.4141Q40.1855-24.4141 38.6475-22.9736Q37.1094-21.5332 37.1094-19.2871Q37.1094-16.9922 38.6475-15.6006Q40.1855-14.209 42.627-14.209Z"/>
  </g>
  <g id="Bold-M" transform="matrix(1 0 0 1 2279.66 1126)">
   <path class="hierarchical-0:secondary SFSymbolsPreview4D4D4D" d="M60.3027 16.3574Q70.9473 16.3574 80.2734 12.3291Q89.5996 8.30078 96.7041 1.17188Q103.809-5.95703 107.861-15.2832Q111.914-24.6094 111.914-35.2539Q111.914-45.8496 107.861-55.1758Q103.809-64.502 96.7041-71.6309Q89.5996-78.7598 80.249-82.7881Q70.8984-86.8164 60.3027-86.8164Q49.707-86.8164 40.3564-82.7881Q31.0059-78.7598 23.9014-71.6309Q16.7969-64.502 12.7686-55.1758Q8.74023-45.8496 8.74023-35.2539Q8.74023-24.6094 12.7686-15.2832Q16.7969-5.95703 23.9258 1.17188Q31.0547 8.30078 40.3809 12.3291Q49.707 16.3574 60.3027 16.3574ZM60.3027 3.51562Q52.2949 3.51562 45.2637 0.488281Q38.2324-2.53906 32.9102-7.83691Q27.5879-13.1348 24.6094-20.166Q21.6309-27.1973 21.6309-35.2539Q21.6309-43.3105 24.6094-50.3174Q27.5879-57.3242 32.9102-62.6465Q38.2324-67.9688 45.2393-70.9717Q52.2461-73.9746 60.3027-73.9746Q68.3594-73.9746 75.3662-70.9717Q82.373-67.9688 87.6953-62.6465Q93.0176-57.3242 96.0449-50.3174Q99.0723-43.3105 99.0723-35.2539Q99.0723-27.1973 96.0693-20.166Q93.0664-13.1348 87.7441-7.83691Q82.4219-2.53906 75.3906 0.488281Q68.3594 3.51562 60.3027 3.51562Z"/>
   <path class="hierarchical-1:primary SFSymbolsPreview212121" d="M39.6484-30.8105L81.1035-30.8105Q83.252-30.8105 84.5947-32.0557Q85.9375-33.3008 85.9375-35.3027Q85.9375-37.3535 84.5947-38.623Q83.252-39.8926 81.1035-39.8926L39.6484-39.8926Q37.5-39.8926 36.1328-38.623Q34.7656-37.3535 34.7656-35.3027Q34.7656-33.3008 36.1328-32.0557Q37.5-30.8105 39.6484-30.8105ZM39.6484-46.875L81.1035-46.875Q83.252-46.875 84.5947-48.0957Q85.9375-49.3164 85.9375-51.3672Q85.9375-53.418 84.5947-54.6631Q83.252-55.9082 81.1035-55.9082L39.6484-55.9082Q37.5-55.9082 36.1328-54.6631Q34.7656-53.418 34.7656-51.3672Q34.7656-49.3164 36.1328-48.0957Q37.5-46.875 39.6484-46.875ZM39.6484-14.7461L81.1035-14.7461Q83.252-14.7461 84.5947-15.9912Q85.9375-17.2363 85.9375-19.2383Q85.9375-21.2891 84.5947-22.5586Q83.252-23.8281 81.1035-23.8281L39.6484-23.8281Q37.5-23.8281 36.1328-22.5586Q34.7656-21.2891 34.7656-19.2383Q34.7656-17.2363 36.1328-15.9912Q37.5-14.7461 39.6484-14.7461Z"/>
  </g>
  <g id="Semibold-M" transform="matrix(1 0 0 1 1983.6 1126)">
   <path class="hierarchical-0:secondary SFSymbolsPreview4D4D4D" d="M59.668 15.6738Q70.1172 15.6738 79.3457 11.6943Q88.5742 7.71484 95.6055 0.683594Q102.637-6.34766 106.616-15.5518Q110.596-24.7559 110.596-35.2539Q110.596-45.7031 106.616-54.9072Q102.637-64.1113 95.6055-71.1426Q88.5742-78.1738 79.3457-82.1777Q70.1172-86.1816 59.6191-86.1816Q49.1699-86.1816 39.9658-82.1777Q30.7617-78.1738 23.7305-71.1426Q16.6992-64.1113 12.7197-54.9072Q8.74023-45.7031 8.74023-35.2539Q8.74023-24.7559 12.7197-15.5518Q16.6992-6.34766 23.7305 0.683594Q30.7617 7.71484 39.9902 11.6943Q49.2188 15.6738 59.668 15.6738ZM59.668 4.49219Q51.416 4.49219 44.2139 1.41602Q37.0117-1.66016 31.543-7.10449Q26.0742-12.5488 23.0225-19.751Q19.9707-26.9531 19.9707-35.2539Q19.9707-43.5059 23.0225-50.708Q26.0742-57.9102 31.5186-63.3789Q36.9629-68.8477 44.165-71.8994Q51.3672-74.9512 59.6191-74.9512Q67.9199-74.9512 75.1221-71.8994Q82.3242-68.8477 87.7686-63.3789Q93.2129-57.9102 96.3135-50.708Q99.4141-43.5059 99.4141-35.2539Q99.4141-26.9531 96.3379-19.751Q93.2617-12.5488 87.8174-7.10449Q82.373-1.66016 75.1465 1.41602Q67.9199 4.49219 59.668 4.49219Z"/>
   <path class="hierarchical-1:primary SFSymbolsPreview212121" d="M37.5488-31.2012L81.8848-31.2012Q83.8379-31.2012 85.0586-32.3242Q86.2793-33.4473 86.2793-35.3027Q86.2793-37.1582 85.0586-38.3057Q83.8379-39.4531 81.8848-39.4531L37.5488-39.4531Q35.5957-39.4531 34.3506-38.3057Q33.1055-37.1582 33.1055-35.3027Q33.1055-33.4473 34.3506-32.3242Q35.5957-31.2012 37.5488-31.2012ZM37.5488-47.2656L81.8848-47.2656Q83.8379-47.2656 85.0586-48.3887Q86.2793-49.5117 86.2793-51.3672Q86.2793-53.2715 85.0586-54.4189Q83.8379-55.5664 81.8848-55.5664L37.5488-55.5664Q35.5957-55.5664 34.3506-54.4189Q33.1055-53.2715 33.1055-51.3672Q33.1055-49.5117 34.3506-48.3887Q35.5957-47.2656 37.5488-47.2656ZM37.5488-15.0879L81.8848-15.0879Q83.8379-15.0879 85.0586-16.2354Q86.2793-17.3828 86.2793-19.1895Q86.2793-21.0449 85.0586-22.1924Q83.8379-23.3398 81.8848-23.3398L37.5488-23.3398Q35.5957-23.3398 34.3506-22.1924Q33.1055-21.0449 33.1055-19.1895Q33.1055-17.3828 34.3506-16.2354Q35.5957-15.0879 37.5488-15.0879Z"/>
  </g>
  <g id="Medium-M" transform="matrix(1 0 0 1 1687.37 1126)">
   <path class="hierarchical-0:secondary SFSymbolsPreview4D4D4D" d="M59.1797 15.1855Q69.5312 15.1855 78.6621 11.2305Q87.793 7.27539 94.751 0.317383Q101.709-6.64062 105.664-15.7715Q109.619-24.9023 109.619-35.2539Q109.619-45.6055 105.664-54.7363Q101.709-63.8672 94.751-70.8252Q87.793-77.7832 78.6377-81.7383Q69.4824-85.6934 59.1309-85.6934Q48.7793-85.6934 39.6484-81.7383Q30.5176-77.7832 23.584-70.8252Q16.6504-63.8672 12.6953-54.7363Q8.74023-45.6055 8.74023-35.2539Q8.74023-24.9023 12.6953-15.7715Q16.6504-6.64062 23.6084 0.317383Q30.5664 7.27539 39.6973 11.2305Q48.8281 15.1855 59.1797 15.1855ZM59.1797 5.27344Q50.7324 5.27344 43.4082 2.12402Q36.084-1.02539 30.5176-6.5918Q24.9512-12.1582 21.8262-19.4824Q18.7012-26.8066 18.7012-35.2539Q18.7012-43.7012 21.8262-51.0254Q24.9512-58.3496 30.4932-63.916Q36.0352-69.4824 43.3838-72.6074Q50.7324-75.7324 59.1309-75.7324Q67.5781-75.7324 74.9023-72.6074Q82.2266-69.4824 87.8174-63.916Q93.4082-58.3496 96.5576-51.0254Q99.707-43.7012 99.707-35.2539Q99.707-26.8066 96.582-19.4824Q93.457-12.1582 87.8906-6.5918Q82.3242-1.02539 74.9756 2.12402Q67.627 5.27344 59.1797 5.27344Z"/>
   <path class="hierarchical-1:primary SFSymbolsPreview212121" d="M35.9863-31.4941L82.4707-31.4941Q84.2773-31.4941 85.4248-32.5439Q86.5723-33.5938 86.5723-35.3027Q86.5723-37.0117 85.4248-38.0859Q84.2773-39.1602 82.4707-39.1602L35.9863-39.1602Q34.1797-39.1602 33.0078-38.0859Q31.8359-37.0117 31.8359-35.3027Q31.8359-33.5938 33.0078-32.5439Q34.1797-31.4941 35.9863-31.4941ZM35.9863-47.6074L82.4707-47.6074Q84.2773-47.6074 85.4248-48.6572Q86.5723-49.707 86.5723-51.416Q86.5723-53.1738 85.4248-54.2236Q84.2773-55.2734 82.4707-55.2734L35.9863-55.2734Q34.1797-55.2734 33.0078-54.2236Q31.8359-53.1738 31.8359-51.416Q31.8359-49.707 33.0078-48.6572Q34.1797-47.6074 35.9863-47.6074ZM35.9863-15.332L82.4707-15.332Q84.2773-15.332 85.4248-16.3818Q86.5723-17.4316 86.5723-19.1406Q86.5723-20.8496 85.4248-21.9238Q84.2773-22.998 82.4707-22.998L35.9863-22.998Q34.1797-22.998 33.0078-21.9238Q31.8359-20.8496 31.8359-19.1406Q31.8359-17.4316 33.0078-16.3818Q34.1797-15.332 35.9863-15.332Z"/>
  </g>
  <g id="Regular-M" transform="matrix(1 0 0 1 1391.3 1126)">
   <path class="hierarchical-0:secondary SFSymbolsPreview4D4D4D" d="M58.5449 14.5508Q68.75 14.5508 77.7588 10.6445Q86.7676 6.73828 93.6523-0.146484Q100.537-7.03125 104.443-16.04Q108.35-25.0488 108.35-35.2539Q108.35-45.459 104.443-54.4678Q100.537-63.4766 93.6523-70.3613Q86.7676-77.2461 77.7344-81.1523Q68.7012-85.0586 58.4961-85.0586Q48.291-85.0586 39.2822-81.1523Q30.2734-77.2461 23.4131-70.3613Q16.5527-63.4766 12.6465-54.4678Q8.74023-45.459 8.74023-35.2539Q8.74023-25.0488 12.6465-16.04Q16.5527-7.03125 23.4375-0.146484Q30.3223 6.73828 39.3311 10.6445Q48.3398 14.5508 58.5449 14.5508ZM58.5449 6.25Q49.9023 6.25 42.3828 3.02734Q34.8633-0.195312 29.1748-5.88379Q23.4863-11.5723 20.2881-19.0918Q17.0898-26.6113 17.0898-35.2539Q17.0898-43.8965 20.2881-51.416Q23.4863-58.9355 29.1504-64.6484Q34.8145-70.3613 42.334-73.5596Q49.8535-76.7578 58.4961-76.7578Q67.1387-76.7578 74.6582-73.5596Q82.1777-70.3613 87.8906-64.6484Q93.6035-58.9355 96.8262-51.416Q100.049-43.8965 100.049-35.2539Q100.049-26.6113 96.8506-19.0918Q93.6523-11.5723 87.9639-5.88379Q82.2754-0.195312 74.7314 3.02734Q67.1875 6.25 58.5449 6.25Z"/>
   <path class="hierarchical-1:primary SFSymbolsPreview212121" d="M33.9355-31.8848L83.3008-31.8848Q84.9121-31.8848 85.9375-32.8125Q86.9629-33.7402 86.9629-35.3027Q86.9629-36.8652 85.9375-37.8174Q84.9121-38.7695 83.3008-38.7695L33.9355-38.7695Q32.3242-38.7695 31.2744-37.8174Q30.2246-36.8652 30.2246-35.3027Q30.2246-33.7402 31.2744-32.8125Q32.3242-31.8848 33.9355-31.8848ZM33.9355-48.0469L83.3008-48.0469Q84.9121-48.0469 85.9375-48.9746Q86.9629-49.9023 86.9629-51.4648Q86.9629-53.0273 85.9375-53.9795Q84.9121-54.9316 83.3008-54.9316L33.9355-54.9316Q32.3242-54.9316 31.2744-53.9795Q30.2246-53.0273 30.2246-51.4648Q30.2246-49.9023 31.2744-48.9746Q32.3242-48.0469 33.9355-48.0469ZM33.9355-15.6738L83.3008-15.6738Q84.9121-15.6738 85.9375-16.626Q86.9629-17.5781 86.9629-19.0918Q86.9629-20.6543 85.9375-21.6064Q84.9121-22.5586 83.3008-22.5586L33.9355-22.5586Q32.3242-22.5586 31.2744-21.6064Q30.2246-20.6543 30.2246-19.0918Q30.2246-17.5781 31.2744-16.626Q32.3242-15.6738 33.9355-15.6738Z"/>
  </g>
  <g id="Light-M" transform="matrix(1 0 0 1 1095.41 1126)">
   <path class="hierarchical-0:secondary SFSymbolsPreview4D4D4D" d="M57.7148 13.7207Q67.7734 13.7207 76.6357 9.8877Q85.498 6.05469 92.2607-0.708008Q99.0234-7.4707 102.856-16.333Q106.689-25.1953 106.689-35.2539Q106.689-45.3125 102.856-54.1748Q99.0234-63.0371 92.2607-69.7998Q85.498-76.5625 76.6113-80.3955Q67.7246-84.2285 57.666-84.2285Q47.6074-84.2285 38.7451-80.3955Q29.8828-76.5625 23.1445-69.7998Q16.4062-63.0371 12.5732-54.1748Q8.74023-45.3125 8.74023-35.2539Q8.74023-25.1953 12.5732-16.333Q16.4062-7.4707 23.1689-0.708008Q29.9316 6.05469 38.7939 9.8877Q47.6562 13.7207 57.7148 13.7207ZM57.7148 7.37305Q48.877 7.37305 41.1377 4.07715Q33.3984 0.78125 27.5391-5.07812Q21.6797-10.9375 18.3838-18.6768Q15.0879-26.416 15.0879-35.2539Q15.0879-44.0918 18.3838-51.8311Q21.6797-59.5703 27.5391-65.4541Q33.3984-71.3379 41.1133-74.6338Q48.8281-77.9297 57.666-77.9297Q66.5527-77.9297 74.2676-74.6338Q81.9824-71.3379 87.8662-65.4541Q93.75-59.5703 97.0703-51.8311Q100.391-44.0918 100.391-35.2539Q100.391-26.416 97.0703-18.6768Q93.75-10.9375 87.915-5.07812Q82.0801 0.78125 74.3408 4.07715Q66.6016 7.37305 57.7148 7.37305Z"/>
   <path class="hierarchical-1:primary SFSymbolsPreview212121" d="M31.9824-32.666L83.5449-32.666Q84.8145-32.666 85.5957-33.3984Q86.377-34.1309 86.377-35.3516Q86.377-36.5723 85.5957-37.3291Q84.8145-38.0859 83.5449-38.0859L31.9824-38.0859Q30.7617-38.0859 29.9316-37.3291Q29.1016-36.5723 29.1016-35.3516Q29.1016-34.1309 29.9316-33.3984Q30.7617-32.666 31.9824-32.666ZM31.9824-48.7793L83.5449-48.7793Q84.8145-48.7793 85.5957-49.5117Q86.377-50.2441 86.377-51.4648Q86.377-52.6855 85.5957-53.4424Q84.8145-54.1992 83.5449-54.1992L31.9824-54.1992Q30.7617-54.1992 29.9316-53.4424Q29.1016-52.6855 29.1016-51.4648Q29.1016-50.2441 29.9316-49.5117Q30.7617-48.7793 31.9824-48.7793ZM31.9824-16.4551L83.5449-16.4551Q84.8145-16.4551 85.5957-17.2119Q86.377-17.9688 86.377-19.1406Q86.377-20.3613 85.5957-21.1182Q84.8145-21.875 83.5449-21.875L31.9824-21.875Q30.7617-21.875 29.9316-21.1182Q29.1016-20.3613 29.1016-19.1406Q29.1016-17.9688 29.9316-17.2119Q30.7617-16.4551 31.9824-16.4551Z"/>
  </g>
  <g id="Thin-M" transform="matrix(1 0 0 1 799.793 1126)">
   <path class="hierarchical-0:secondary SFSymbolsPreview4D4D4D" d="M56.5918 12.5977Q66.5039 12.5977 75.1709 8.88672Q83.8379 5.17578 90.4297-1.44043Q97.0215-8.05664 100.781-16.7236Q104.541-25.3906 104.541-35.2539Q104.541-45.1172 100.781-53.7842Q97.0215-62.4512 90.4297-69.0674Q83.8379-75.6836 75.1709-79.3945Q66.5039-83.1055 56.5918-83.1055Q46.7285-83.1055 38.0615-79.3945Q29.3945-75.6836 22.8271-69.0674Q16.2598-62.4512 12.5-53.7842Q8.74023-45.1172 8.74023-35.2539Q8.74023-25.3906 12.4756-16.7236Q16.2109-8.05664 22.8027-1.44043Q29.3945 5.17578 38.0859 8.88672Q46.7773 12.5977 56.5918 12.5977ZM56.5918 8.88672Q47.4609 8.88672 39.4775 5.44434Q31.4941 2.00195 25.415-4.05273Q19.3359-10.1074 15.918-18.1152Q12.5-26.123 12.5-35.2539Q12.5-44.3848 15.918-52.3926Q19.3359-60.4004 25.415-66.4795Q31.4941-72.5586 39.4775-76.001Q47.4609-79.4434 56.5918-79.4434Q65.7715-79.4434 73.7549-76.001Q81.7383-72.5586 87.8174-66.4795Q93.8965-60.4004 97.3389-52.3926Q100.781-44.3848 100.781-35.2539Q100.781-26.123 97.3633-18.1152Q93.9453-10.1074 87.8662-4.05273Q81.7871 2.00195 73.7793 5.44434Q65.7715 8.88672 56.5918 8.88672Z"/>
   <path class="hierarchical-1:primary SFSymbolsPreview212121" d="M29.4434-33.6426L83.9355-33.6426Q84.668-33.6426 85.1807-34.1309Q85.6934-34.6191 85.6934-35.3516Q85.6934-36.1328 85.1807-36.5967Q84.668-37.0605 83.9355-37.0605L29.4434-37.0605Q28.6621-37.0605 28.1494-36.5967Q27.6367-36.1328 27.6367-35.3516Q27.6367-34.6191 28.1494-34.1309Q28.6621-33.6426 29.4434-33.6426ZM29.4434-49.707L83.9355-49.707Q84.668-49.707 85.1807-50.1709Q85.6934-50.6348 85.6934-51.416Q85.6934-52.1484 85.1807-52.6367Q84.668-53.125 83.9355-53.125L29.4434-53.125Q28.6621-53.125 28.1494-52.6367Q27.6367-52.1484 27.6367-51.416Q27.6367-50.6348 28.1494-50.1709Q28.6621-49.707 29.4434-49.707ZM29.4434-17.4316L83.9355-17.4316Q84.668-17.4316 85.1807-17.9199Q85.6934-18.4082 85.6934-19.1406Q85.6934-19.9219 85.1807-20.4102Q84.668-20.8984 83.9355-20.8984L29.4434-20.8984Q28.6621-20.8984 28.1494-20.4102Q27.6367-19.9219 27.6367-19.1406Q27.6367-18.4082 28.1494-17.9199Q28.6621-17.4316 29.4434-17.4316Z"/>
  </g>
  <g id="Ultralight-M" transform="matrix(1 0 0 1 503.641 1126)">
   <path class="hierarchical-0:secondary SFSymbolsPreview4D4D4D" d="M56.0547 12.0605Q65.8203 12.0605 74.3896 8.37402Q82.959 4.6875 89.4775-1.83105Q95.9961-8.34961 99.707-16.9189Q103.418-25.4883 103.418-35.2539Q103.418-45.0195 99.707-53.5889Q95.9961-62.1582 89.4775-68.6768Q82.959-75.1953 74.3896-78.8818Q65.8203-82.5684 56.0547-82.5684Q46.2891-82.5684 37.7197-78.8818Q29.1504-75.1953 22.6562-68.6768Q16.1621-62.1582 12.4512-53.5889Q8.74023-45.0195 8.74023-35.2539Q8.74023-25.4883 12.4268-16.9189Q16.1133-8.34961 22.6318-1.83105Q29.1504 4.6875 37.7197 8.37402Q46.2891 12.0605 56.0547 12.0605ZM56.0547 9.66797Q46.7773 9.66797 38.6475 6.17676Q30.5176 2.68555 24.3164-3.49121Q18.1152-9.66797 14.624-17.8223Q11.1328-25.9766 11.1328-35.2539Q11.1328-44.5312 14.624-52.6855Q18.1152-60.8398 24.3164-67.041Q30.5176-73.2422 38.6475-76.7334Q46.7773-80.2246 56.0547-80.2246Q65.3809-80.2246 73.5107-76.7334Q81.6406-73.2422 87.8174-67.041Q93.9941-60.8398 97.5098-52.6855Q101.025-44.5312 101.025-35.2539Q101.025-25.9766 97.5098-17.8223Q93.9941-9.66797 87.8174-3.49121Q81.6406 2.68555 73.5107 6.17676Q65.3809 9.66797 56.0547 9.66797Z"/>
   <path class="hierarchical-1:primary SFSymbolsPreview212121" d="M28.125-34.2285L84.082-34.2285Q84.5703-34.2285 84.9121-34.5459Q85.2539-34.8633 85.2539-35.4004Q85.2539-35.9863 84.9121-36.3037Q84.5703-36.6211 84.082-36.6211L28.125-36.6211Q27.5879-36.6211 27.2217-36.3037Q26.8555-35.9863 26.8555-35.4004Q26.8555-34.8633 27.2217-34.5459Q27.5879-34.2285 28.125-34.2285ZM28.125-50.2441L84.082-50.2441Q84.5703-50.2441 84.9121-50.5615Q85.2539-50.8789 85.2539-51.416Q85.2539-51.9531 84.9121-52.2949Q84.5703-52.6367 84.082-52.6367L28.125-52.6367Q27.5879-52.6367 27.2217-52.2949Q26.8555-51.9531 26.8555-51.416Q26.8555-50.8789 27.2217-50.5615Q27.5879-50.2441 28.125-50.2441ZM28.125-18.0176L84.082-18.0176Q84.5703-18.0176 84.9121-18.335Q85.2539-18.6523 85.2539-19.1895Q85.2539-19.7754 84.9121-20.0928Q84.5703-20.4102 84.082-20.4102L28.125-20.4102Q27.5879-20.4102 27.2217-20.0928Q26.8555-19.7754 26.8555-19.1895Q26.8555-18.6523 27.2217-18.335Q27.5879-18.0176 28.125-18.0176Z"/>
  </g>
  <g id="Black-S" transform="matrix(1 0 0 1 2884.57 696)">
   <path class="hierarchical-0:secondary SFSymbolsPreview4D4D4D" d="M48.8281 6.78711Q57.5195 6.78711 65.1123 3.51562Q72.7051 0.244141 78.4912-5.54199Q84.2773-11.3281 87.5488-18.9209Q90.8203-26.5137 90.8203-35.2051Q90.8203-43.8965 87.5488-51.4893Q84.2773-59.082 78.4912-64.8682Q72.7051-70.6543 65.1123-73.9258Q57.5195-77.1973 48.8281-77.1973Q40.1367-77.1973 32.5439-73.9258Q24.9512-70.6543 19.165-64.8682Q13.3789-59.082 10.1074-51.4893Q6.83594-43.8965 6.83594-35.2051Q6.83594-26.5137 10.1074-18.9209Q13.3789-11.3281 19.165-5.54199Q24.9512 0.244141 32.5439 3.51562Q40.1367 6.78711 48.8281 6.78711ZM48.8281-7.37305Q43.0664-7.37305 38.0127-9.5459Q32.959-11.7188 29.1504-15.5273Q25.3418-19.3359 23.1689-24.3896Q20.9961-29.4434 20.9961-35.2051Q20.9961-40.9668 23.1689-46.0205Q25.3418-51.0742 29.1504-54.8828Q32.959-58.6914 38.0127-60.8643Q43.0664-63.0371 48.8281-63.0371Q54.5898-63.0371 59.6436-60.8643Q64.6973-58.6914 68.5059-54.8828Q72.3145-51.0742 74.4873-46.0205Q76.6602-40.9668 76.6602-35.2051Q76.6602-29.4434 74.4873-24.3896Q72.3145-19.3359 68.5059-15.5273Q64.6973-11.7188 59.6436-9.5459Q54.5898-7.37305 48.8281-7.37305Z"/>
   <path class="hierarchical-1:primary SFSymbolsPreview212121" d="M36.2305-30.7617L61.4258-30.7617Q63.5742-30.7617 64.9414-32.0068Q66.3086-33.252 66.3086-35.2539Q66.3086-37.2559 64.9414-38.5254Q63.5742-39.7949 61.4258-39.7949L36.2305-39.7949Q34.082-39.7949 32.7148-38.5254Q31.3477-37.2559 31.3477-35.2539Q31.3477-33.252 32.7148-32.0068Q34.082-30.7617 36.2305-30.7617ZM36.2305-43.2129L61.4258-43.2129Q63.5742-43.2129 64.9414-44.458Q66.3086-45.7031 66.3086-47.7051Q66.3086-49.707 64.9414-50.9766Q63.5742-52.2461 61.4258-52.2461L36.2305-52.2461Q34.082-52.2461 32.7148-50.9766Q31.3477-49.707 31.3477-47.7051Q31.3477-45.7031 32.7148-44.458Q34.082-43.2129 36.2305-43.2129ZM36.2305-18.3105L61.4258-18.3105Q63.5742-18.3105 64.9414-19.5557Q66.3086-20.8008 66.3086-22.8027Q66.3086-24.8047 64.9414-26.0742Q63.5742-27.3438 61.4258-27.3438L36.2305-27.3438Q34.082-27.3438 32.7148-26.0742Q31.3477-24.8047 31.3477-22.8027Q31.3477-20.8008 32.7148-19.5557Q34.082-18.3105 36.2305-18.3105Z"/>
  </g>
  <g id="Heavy-S" transform="matrix(1 0 0 1 2588.47 696)">
   <path class="hierarchical-0:secondary SFSymbolsPreview4D4D4D" d="M48.1934 6.15234Q56.7871 6.15234 64.2578 2.92969Q71.7285-0.292969 77.4414-6.00586Q83.1543-11.7188 86.377-19.1895Q89.5996-26.6602 89.5996-35.2051Q89.5996-43.75 86.377-51.2451Q83.1543-58.7402 77.4414-64.4531Q71.7285-70.166 64.2334-73.3887Q56.7383-76.6113 48.1934-76.6113Q39.6484-76.6113 32.1777-73.3887Q24.707-70.166 18.9941-64.4531Q13.2812-58.7402 10.0586-51.2451Q6.83594-43.75 6.83594-35.2051Q6.83594-26.6602 10.0586-19.1895Q13.2812-11.7188 18.9941-6.00586Q24.707-0.292969 32.2021 2.92969Q39.6973 6.15234 48.1934 6.15234ZM48.1934-6.39648Q42.2363-6.39648 37.0117-8.64258Q31.7871-10.8887 27.8564-14.8438Q23.9258-18.7988 21.6797-24.0234Q19.4336-29.248 19.4336-35.2051Q19.4336-41.1621 21.6553-46.4111Q23.877-51.6602 27.832-55.5908Q31.7871-59.5215 37.0117-61.7676Q42.2363-64.0137 48.1934-64.0137Q54.1992-64.0137 59.4238-61.7676Q64.6484-59.5215 68.5791-55.5908Q72.5098-51.6602 74.7803-46.4111Q77.0508-41.1621 77.0508-35.2051Q77.0508-29.248 74.8047-24.0234Q72.5586-18.7988 68.6035-14.8438Q64.6484-10.8887 59.4238-8.64258Q54.1992-6.39648 48.1934-6.39648Z"/>
   <path class="hierarchical-1:primary SFSymbolsPreview212121" d="M34.1309-31.1035L62.2559-31.1035Q64.2578-31.1035 65.5273-32.251Q66.7969-33.3984 66.7969-35.2539Q66.7969-37.1094 65.5273-38.2812Q64.2578-39.4531 62.2559-39.4531L34.1309-39.4531Q32.1777-39.4531 30.9082-38.2812Q29.6387-37.1094 29.6387-35.2539Q29.6387-33.3984 30.9082-32.251Q32.1777-31.1035 34.1309-31.1035ZM34.1309-43.6035L62.2559-43.6035Q64.2578-43.6035 65.5273-44.751Q66.7969-45.8984 66.7969-47.7539Q66.7969-49.6094 65.5273-50.7812Q64.2578-51.9531 62.2559-51.9531L34.1309-51.9531Q32.1777-51.9531 30.9082-50.7812Q29.6387-49.6094 29.6387-47.7539Q29.6387-45.8984 30.9082-44.751Q32.1777-43.6035 34.1309-43.6035ZM34.1309-18.6035L62.2559-18.6035Q64.2578-18.6035 65.5273-19.751Q66.7969-20.8984 66.7969-22.7539Q66.7969-24.6094 65.5273-25.7812Q64.2578-26.9531 62.2559-26.9531L34.1309-26.9531Q32.1777-26.9531 30.9082-25.7812Q29.6387-24.6094 29.6387-22.7539Q29.6387-20.8984 30.9082-19.751Q32.1777-18.6035 34.1309-18.6035Z"/>
  </g>
  <g id="Bold-S" transform="matrix(1 0 0 1 2292.43 696)">
   <path class="hierarchical-0:secondary SFSymbolsPreview4D4D4D" d="M47.5586 5.46875Q55.957 5.46875 63.3057 2.29492Q70.6543-0.878906 76.2695-6.51855Q81.8848-12.1582 85.083-19.5068Q88.2812-26.8555 88.2812-35.2539Q88.2812-43.6035 85.083-50.9766Q81.8848-58.3496 76.2695-63.9648Q70.6543-69.5801 63.2812-72.7539Q55.9082-75.9277 47.5098-75.9277Q39.1602-75.9277 31.7871-72.7539Q24.4141-69.5801 18.8232-63.9648Q13.2324-58.3496 10.0342-50.9766Q6.83594-43.6035 6.83594-35.2539Q6.83594-26.8555 10.0342-19.5068Q13.2324-12.1582 18.8477-6.51855Q24.4629-0.878906 31.8115 2.29492Q39.1602 5.46875 47.5586 5.46875ZM47.5586-5.32227Q41.3574-5.32227 35.9375-7.6416Q30.5176-9.96094 26.416-14.0625Q22.3145-18.1641 19.9951-23.6084Q17.6758-29.0527 17.6758-35.2539Q17.6758-41.4551 19.9951-46.875Q22.3145-52.2949 26.3916-56.3965Q30.4688-60.498 35.8887-62.8174Q41.3086-65.1367 47.5098-65.1367Q53.7598-65.1367 59.1797-62.8174Q64.5996-60.498 68.7012-56.3965Q72.8027-52.2949 75.1221-46.875Q77.4414-41.4551 77.4414-35.2539Q77.4414-29.0527 75.1221-23.6084Q72.8027-18.1641 68.7256-14.0625Q64.6484-9.96094 59.2041-7.6416Q53.7598-5.32227 47.5586-5.32227Z"/>
   <path class="hierarchical-1:primary SFSymbolsPreview212121" d="M31.8848-31.4941L63.2812-31.4941Q65.0879-31.4941 66.2354-32.5439Q67.3828-33.5938 67.3828-35.2539Q67.3828-36.9629 66.2354-38.0127Q65.0879-39.0625 63.2812-39.0625L31.8848-39.0625Q30.0781-39.0625 28.9307-38.0127Q27.7832-36.9629 27.7832-35.2539Q27.7832-33.5938 28.9307-32.5439Q30.0781-31.4941 31.8848-31.4941ZM31.8848-44.043L63.2812-44.043Q65.0879-44.043 66.2354-45.0928Q67.3828-46.1426 67.3828-47.8516Q67.3828-49.5117 66.2354-50.5615Q65.0879-51.6113 63.2812-51.6113L31.8848-51.6113Q30.0781-51.6113 28.9307-50.5615Q27.7832-49.5117 27.7832-47.8516Q27.7832-46.1426 28.9307-45.0928Q30.0781-44.043 31.8848-44.043ZM31.8848-18.8965L63.2812-18.8965Q65.0879-18.8965 66.2354-19.9463Q67.3828-20.9961 67.3828-22.7051Q67.3828-24.3652 66.2354-25.4395Q65.0879-26.5137 63.2812-26.5137L31.8848-26.5137Q30.0781-26.5137 28.9307-25.4395Q27.7832-24.3652 27.7832-22.7051Q27.7832-20.9961 28.9307-19.9463Q30.0781-18.8965 31.8848-18.8965Z"/>
  </g>
  <g id="Semibold-S" transform="matrix(1 0 0 1 1996.19 696)">
   <path class="hierarchical-0:secondary SFSymbolsPreview4D4D4D" d="M47.0703 4.98047Q55.3711 4.98047 62.6465 1.85547Q69.9219-1.26953 75.4639-6.86035Q81.0059-12.4512 84.1553-19.7266Q87.3047-27.002 87.3047-35.2539Q87.3047-43.5059 84.1553-50.7812Q81.0059-58.0566 75.4395-63.623Q69.873-69.1895 62.5977-72.3389Q55.3223-75.4883 47.0215-75.4883Q38.7695-75.4883 31.4941-72.3389Q24.2188-69.1895 18.6768-63.623Q13.1348-58.0566 9.98535-50.7812Q6.83594-43.5059 6.83594-35.2539Q6.83594-27.002 9.98535-19.7266Q13.1348-12.4512 18.7012-6.86035Q24.2676-1.26953 31.543 1.85547Q38.8184 4.98047 47.0703 4.98047ZM47.0703-4.58984Q40.7227-4.58984 35.1562-6.95801Q29.5898-9.32617 25.3906-13.5254Q21.1914-17.7246 18.8232-23.291Q16.4551-28.8574 16.4551-35.2539Q16.4551-41.6016 18.8232-47.168Q21.1914-52.7344 25.3662-56.9336Q29.541-61.1328 35.1074-63.5254Q40.6738-65.918 47.0215-65.918Q53.418-65.918 58.9844-63.5254Q64.5508-61.1328 68.75-56.9336Q72.9492-52.7344 75.3418-47.168Q77.7344-41.6016 77.7344-35.2539Q77.7344-28.8574 75.3662-23.291Q72.998-17.7246 68.7988-13.5254Q64.5996-9.32617 59.0332-6.95801Q53.4668-4.58984 47.0703-4.58984Z"/>
   <path class="hierarchical-1:primary SFSymbolsPreview212121" d="M30.2246-31.7383L63.916-31.7383Q65.5762-31.7383 66.6504-32.7148Q67.7246-33.6914 67.7246-35.2539Q67.7246-36.8164 66.6504-37.8174Q65.5762-38.8184 63.916-38.8184L30.2246-38.8184Q28.6133-38.8184 27.5391-37.8174Q26.4648-36.8164 26.4648-35.2539Q26.4648-33.6914 27.5391-32.7148Q28.6133-31.7383 30.2246-31.7383ZM30.2246-44.3359L63.916-44.3359Q65.5762-44.3359 66.6504-45.3125Q67.7246-46.2891 67.7246-47.8516Q67.7246-49.4629 66.6504-50.415Q65.5762-51.3672 63.916-51.3672L30.2246-51.3672Q28.6133-51.3672 27.5391-50.415Q26.4648-49.4629 26.4648-47.8516Q26.4648-46.2891 27.5391-45.3125Q28.6133-44.3359 30.2246-44.3359ZM30.2246-19.0918L63.916-19.0918Q65.5762-19.0918 66.6504-20.0684Q67.7246-21.0449 67.7246-22.6562Q67.7246-24.2188 66.6504-25.1953Q65.5762-26.1719 63.916-26.1719L30.2246-26.1719Q28.6133-26.1719 27.5391-25.1953Q26.4648-24.2188 26.4648-22.6562Q26.4648-21.0449 27.5391-20.0684Q28.6133-19.0918 30.2246-19.0918Z"/>
  </g>
  <g id="Medium-S" transform="matrix(1 0 0 1 1699.83 696)">
   <path class="hierarchical-0:secondary SFSymbolsPreview4D4D4D" d="M46.7285 4.63867Q54.9316 4.63867 62.1338 1.51367Q69.3359-1.61133 74.8535-7.12891Q80.3711-12.6465 83.4961-19.8486Q86.6211-27.0508 86.6211-35.2539Q86.6211-43.4082 83.4961-50.6348Q80.3711-57.8613 74.8291-63.3789Q69.2871-68.8965 62.085-71.9971Q54.8828-75.0977 46.6797-75.0977Q38.4766-75.0977 31.2744-71.9971Q24.0723-68.8965 18.5791-63.3789Q13.0859-57.8613 9.96094-50.6348Q6.83594-43.4082 6.83594-35.2539Q6.83594-27.0508 9.96094-19.8486Q13.0859-12.6465 18.6035-7.12891Q24.1211-1.61133 31.3232 1.51367Q38.5254 4.63867 46.7285 4.63867ZM46.7285-4.00391Q40.2344-4.00391 34.5703-6.4209Q28.9062-8.83789 24.6338-13.1348Q20.3613-17.4316 17.9443-23.0957Q15.5273-28.7598 15.5273-35.2539Q15.5273-41.748 17.9199-47.4121Q20.3125-53.0762 24.585-57.373Q28.8574-61.6699 34.5215-64.0869Q40.1855-66.5039 46.6797-66.5039Q53.1738-66.5039 58.8379-64.0869Q64.502-61.6699 68.7988-57.373Q73.0957-53.0762 75.5127-47.4121Q77.9297-41.748 77.9297-35.2539Q77.9297-28.7598 75.5127-23.0957Q73.0957-17.4316 68.8477-13.1348Q64.5996-8.83789 58.9111-6.4209Q53.2227-4.00391 46.7285-4.00391Z"/>
   <path class="hierarchical-1:primary SFSymbolsPreview212121" d="M29.0039-31.9336L64.3555-31.9336Q65.9668-31.9336 66.9678-32.8613Q67.9688-33.7891 67.9688-35.2539Q67.9688-36.7188 66.9678-37.6465Q65.9668-38.5742 64.3555-38.5742L29.0039-38.5742Q27.4414-38.5742 26.4404-37.6465Q25.4395-36.7188 25.4395-35.2539Q25.4395-33.7891 26.4404-32.8613Q27.4414-31.9336 29.0039-31.9336ZM29.0039-44.5801L64.3555-44.5801Q65.9668-44.5801 66.9678-45.5078Q67.9688-46.4355 67.9688-47.9004Q67.9688-49.3652 66.9678-50.293Q65.9668-51.2207 64.3555-51.2207L29.0039-51.2207Q27.4414-51.2207 26.4404-50.293Q25.4395-49.3652 25.4395-47.9004Q25.4395-46.4355 26.4404-45.5078Q27.4414-44.5801 29.0039-44.5801ZM29.0039-19.2871L64.3555-19.2871Q65.9668-19.2871 66.9678-20.2148Q67.9688-21.1426 67.9688-22.6074Q67.9688-24.0723 66.9678-25Q65.9668-25.9277 64.3555-25.9277L29.0039-25.9277Q27.4414-25.9277 26.4404-25Q25.4395-24.0723 25.4395-22.6074Q25.4395-21.1426 26.4404-20.2148Q27.4414-19.2871 29.0039-19.2871Z"/>
  </g>
  <g id="Regular-S" transform="matrix(1 0 0 1 1403.58 696)">
   <path class="hierarchical-0:secondary SFSymbolsPreview4D4D4D" d="M46.2402 4.15039Q54.3457 4.15039 61.4746 1.07422Q68.6035-2.00195 74.0479-7.4707Q79.4922-12.9395 82.5928-20.0684Q85.6934-27.1973 85.6934-35.2539Q85.6934-43.3105 82.5928-50.4395Q79.4922-57.5684 74.0234-63.0371Q68.5547-68.5059 61.4258-71.582Q54.2969-74.6582 46.1914-74.6582Q38.1348-74.6582 31.0059-71.582Q23.877-68.5059 18.457-63.0371Q13.0371-57.5684 9.93652-50.4395Q6.83594-43.3105 6.83594-35.2539Q6.83594-27.1973 9.93652-20.0684Q13.0371-12.9395 18.4814-7.4707Q23.9258-2.00195 31.0547 1.07422Q38.1836 4.15039 46.2402 4.15039ZM46.2402-3.27148Q39.5996-3.27148 33.8135-5.7373Q28.0273-8.20312 23.6572-12.5977Q19.2871-16.9922 16.8213-22.8027Q14.3555-28.6133 14.3555-35.2539Q14.3555-41.8945 16.7969-47.7051Q19.2383-53.5156 23.6084-57.9102Q27.9785-62.3047 33.7646-64.7705Q39.5508-67.2363 46.1914-67.2363Q52.8809-67.2363 58.667-64.7705Q64.4531-62.3047 68.8477-57.9102Q73.2422-53.5156 75.7324-47.7051Q78.2227-41.8945 78.2227-35.2539Q78.2227-28.6133 75.7568-22.8027Q73.291-16.9922 68.9209-12.5977Q64.5508-8.20312 58.7402-5.7373Q52.9297-3.27148 46.2402-3.27148Z"/>
   <path class="hierarchical-1:primary SFSymbolsPreview212121" d="M27.4414-32.1777L65.0391-32.1777Q66.5039-32.1777 67.4316-33.0322Q68.3594-33.8867 68.3594-35.2539Q68.3594-36.6211 67.4316-37.4756Q66.5039-38.3301 65.0391-38.3301L27.4414-38.3301Q26.0254-38.3301 25.0977-37.4756Q24.1699-36.6211 24.1699-35.2539Q24.1699-33.8867 25.0977-33.0322Q26.0254-32.1777 27.4414-32.1777ZM27.4414-44.873L65.0391-44.873Q66.5039-44.873 67.4316-45.7275Q68.3594-46.582 68.3594-47.9492Q68.3594-49.3164 67.4316-50.1465Q66.5039-50.9766 65.0391-50.9766L27.4414-50.9766Q26.0254-50.9766 25.0977-50.1465Q24.1699-49.3164 24.1699-47.9492Q24.1699-46.582 25.0977-45.7275Q26.0254-44.873 27.4414-44.873ZM27.4414-19.4824L65.0391-19.4824Q66.5039-19.4824 67.4316-20.3369Q68.3594-21.1914 68.3594-22.5586Q68.3594-23.9258 67.4316-24.7803Q66.5039-25.6348 65.0391-25.6348L27.4414-25.6348Q26.0254-25.6348 25.0977-24.7803Q24.1699-23.9258 24.1699-22.5586Q24.1699-21.1914 25.0977-20.3369Q26.0254-19.4824 27.4414-19.4824Z"/>
  </g>
  <g id="Light-S" transform="matrix(1 0 0 1 1107.6 696)">
   <path class="hierarchical-0:secondary SFSymbolsPreview4D4D4D" d="M45.5078 3.41797Q53.4668 3.41797 60.4736 0.415039Q67.4805-2.58789 72.8271-7.95898Q78.1738-13.3301 81.2012-20.3125Q84.2285-27.2949 84.2285-35.2539Q84.2285-43.2129 81.2012-50.1953Q78.1738-57.1777 72.8027-62.5488Q67.4316-67.9199 60.4492-70.9229Q53.4668-73.9258 45.459-73.9258Q37.5488-73.9258 30.542-70.9229Q23.5352-67.9199 18.2129-62.5488Q12.8906-57.1777 9.86328-50.1953Q6.83594-43.2129 6.83594-35.2539Q6.83594-27.2949 9.86328-20.3125Q12.8906-13.3301 18.2373-7.95898Q23.584-2.58789 30.5908 0.415039Q37.5977 3.41797 45.5078 3.41797ZM45.5078-2.29492Q38.6719-2.29492 32.6904-4.83398Q26.709-7.37305 22.1924-11.9141Q17.6758-16.4551 15.1367-22.4365Q12.5977-28.418 12.5977-35.2539Q12.5977-42.0898 15.1367-48.0713Q17.6758-54.0527 22.1924-58.5938Q26.709-63.1348 32.666-65.6738Q38.623-68.2129 45.459-68.2129Q52.3438-68.2129 58.3252-65.6738Q64.3066-63.1348 68.8232-58.5938Q73.3398-54.0527 75.9277-48.0713Q78.5156-42.0898 78.5156-35.2539Q78.5156-28.418 75.9521-22.4365Q73.3887-16.4551 68.8721-11.9141Q64.3555-7.37305 58.374-4.83398Q52.3926-2.29492 45.5078-2.29492Z"/>
   <path class="hierarchical-1:primary SFSymbolsPreview212121" d="M25.7324-32.9102L65.2832-32.9102Q66.4551-32.9102 67.1631-33.5693Q67.8711-34.2285 67.8711-35.3027Q67.8711-36.377 67.1631-37.0361Q66.4551-37.6953 65.2832-37.6953L25.7324-37.6953Q24.6582-37.6953 23.9258-37.0361Q23.1934-36.377 23.1934-35.3027Q23.1934-34.2285 23.9258-33.5693Q24.6582-32.9102 25.7324-32.9102ZM25.7324-45.5566L65.2832-45.5566Q66.4551-45.5566 67.1631-46.2158Q67.8711-46.875 67.8711-47.9492Q67.8711-49.0234 67.1631-49.6826Q66.4551-50.3418 65.2832-50.3418L25.7324-50.3418Q24.6582-50.3418 23.9258-49.6826Q23.1934-49.0234 23.1934-47.9492Q23.1934-46.875 23.9258-46.2158Q24.6582-45.5566 25.7324-45.5566ZM25.7324-20.2148L65.2832-20.2148Q66.4551-20.2148 67.1631-20.874Q67.8711-21.5332 67.8711-22.6074Q67.8711-23.6816 67.1631-24.3408Q66.4551-25 65.2832-25L25.7324-25Q24.6582-25 23.9258-24.3408Q23.1934-23.6816 23.1934-22.6074Q23.1934-21.5332 23.9258-20.874Q24.6582-20.2148 25.7324-20.2148Z"/>
  </g>
  <g id="Thin-S" transform="matrix(1 0 0 1 811.863 696)">
   <path class="hierarchical-0:secondary SFSymbolsPreview4D4D4D" d="M44.5312 2.44141Q52.3438 2.44141 59.1553-0.488281Q65.9668-3.41797 71.1914-8.64258Q76.416-13.8672 79.3457-20.6787Q82.2754-27.4902 82.2754-35.2539Q82.2754-43.0176 79.3457-49.8291Q76.416-56.6406 71.1914-61.8652Q65.9668-67.0898 59.1553-70.0195Q52.3438-72.9492 44.5312-72.9492Q36.7676-72.9492 29.9316-70.0195Q23.0957-67.0898 17.9199-61.8652Q12.7441-56.6406 9.79004-49.8291Q6.83594-43.0176 6.83594-35.2539Q6.83594-27.4902 9.79004-20.6787Q12.7441-13.8672 17.9199-8.64258Q23.0957-3.41797 29.9316-0.488281Q36.7676 2.44141 44.5312 2.44141ZM44.5312-0.927734Q37.4512-0.927734 31.2256-3.58887Q25-6.25 20.2881-10.9619Q15.5762-15.6738 12.915-21.9238Q10.2539-28.1738 10.2539-35.2539Q10.2539-42.334 12.915-48.584Q15.5762-54.834 20.2881-59.5459Q25-64.2578 31.2256-66.9189Q37.4512-69.5801 44.5312-69.5801Q51.6602-69.5801 57.8857-66.9189Q64.1113-64.2578 68.8232-59.5459Q73.5352-54.834 76.1963-48.584Q78.8574-42.334 78.8574-35.2539Q78.8574-28.1738 76.1963-21.9238Q73.5352-15.6738 68.8232-10.9619Q64.1113-6.25 57.8857-3.58887Q51.6602-0.927734 44.5312-0.927734Z"/>
   <path class="hierarchical-1:primary SFSymbolsPreview212121" d="M23.5352-33.7891L65.6738-33.7891Q66.3574-33.7891 66.8213-34.2041Q67.2852-34.6191 67.2852-35.3027Q67.2852-35.9863 66.8213-36.4014Q66.3574-36.8164 65.6738-36.8164L23.5352-36.8164Q22.8516-36.8164 22.3877-36.4014Q21.9238-35.9863 21.9238-35.3027Q21.9238-34.6191 22.3877-34.2041Q22.8516-33.7891 23.5352-33.7891ZM23.5352-46.3867L65.6738-46.3867Q66.3574-46.3867 66.8213-46.8018Q67.2852-47.2168 67.2852-47.9004Q67.2852-48.584 66.8213-48.999Q66.3574-49.4141 65.6738-49.4141L23.5352-49.4141Q22.8516-49.4141 22.3877-48.999Q21.9238-48.584 21.9238-47.9004Q21.9238-47.2168 22.3877-46.8018Q22.8516-46.3867 23.5352-46.3867ZM23.5352-21.0938L65.6738-21.0938Q66.3574-21.0938 66.8213-21.5088Q67.2852-21.9238 67.2852-22.6074Q67.2852-23.291 66.8213-23.7061Q66.3574-24.1211 65.6738-24.1211L23.5352-24.1211Q22.8516-24.1211 22.3877-23.7061Q21.9238-23.291 21.9238-22.6074Q21.9238-21.9238 22.3877-21.5088Q22.8516-21.0938 23.5352-21.0938Z"/>
  </g>
  <g id="Ultralight-S" transform="matrix(1 0 0 1 515.649 696)">
   <path class="hierarchical-0:secondary SFSymbolsPreview4D4D4D" d="M44.043 1.95312Q51.7578 1.95312 58.4717-0.927734Q65.1855-3.80859 70.3369-8.95996Q75.4883-14.1113 78.3936-20.8252Q81.2988-27.5391 81.2988-35.2539Q81.2988-42.9688 78.3936-49.6826Q75.4883-56.3965 70.3369-61.5479Q65.1855-66.6992 58.4717-69.5801Q51.7578-72.4609 44.043-72.4609Q36.377-72.4609 29.6387-69.5801Q22.9004-66.6992 17.7734-61.5479Q12.6465-56.3965 9.74121-49.6826Q6.83594-42.9688 6.83594-35.2539Q6.83594-27.5391 9.74121-20.8252Q12.6465-14.1113 17.7734-8.95996Q22.9004-3.80859 29.6387-0.927734Q36.377 1.95312 44.043 1.95312ZM44.043-0.292969Q36.8164-0.292969 30.4688-3.00293Q24.1211-5.71289 19.3115-10.5225Q14.502-15.332 11.7676-21.6797Q9.0332-28.0273 9.0332-35.2539Q9.0332-42.4805 11.7676-48.8281Q14.502-55.1758 19.3115-59.9854Q24.1211-64.7949 30.4688-67.5049Q36.8164-70.2148 44.043-70.2148Q51.2695-70.2148 57.6416-67.5049Q64.0137-64.7949 68.7988-59.9854Q73.584-55.1758 76.3184-48.8281Q79.0527-42.4805 79.0527-35.2539Q79.0527-28.0273 76.3428-21.6797Q73.6328-15.332 68.8232-10.5225Q64.0137-5.71289 57.666-3.00293Q51.3184-0.292969 44.043-0.292969Z"/>
   <path class="hierarchical-1:primary SFSymbolsPreview212121" d="M22.3633-34.2773L65.8203-34.2773Q66.3086-34.2773 66.626-34.5703Q66.9434-34.8633 66.9434-35.3516Q66.9434-35.8398 66.626-36.1328Q66.3086-36.4258 65.8203-36.4258L22.3633-36.4258Q21.875-36.4258 21.5576-36.1328Q21.2402-35.8398 21.2402-35.3516Q21.2402-34.8633 21.5576-34.5703Q21.875-34.2773 22.3633-34.2773ZM22.3633-46.8262L65.8203-46.8262Q66.3086-46.8262 66.626-47.1191Q66.9434-47.4121 66.9434-47.9004Q66.9434-48.4375 66.626-48.7061Q66.3086-48.9746 65.8203-48.9746L22.3633-48.9746Q21.875-48.9746 21.5576-48.7061Q21.2402-48.4375 21.2402-47.9004Q21.2402-47.4121 21.5576-47.1191Q21.875-46.8262 22.3633-46.8262ZM22.3633-21.582L65.8203-21.582Q66.3086-21.582 66.626-21.875Q66.9434-22.168 66.9434-22.6562Q66.9434-23.1445 66.626-23.4375Q66.3086-23.7305 65.8203-23.7305L22.3633-23.7305Q21.875-23.7305 21.5576-23.4375Q21.2402-23.1445 21.2402-22.6562Q21.2402-22.168 21.5576-21.875Q21.875-21.582 22.3633-21.582Z"/>
  </g>
 </g>
</svg>
