<?xml version="1.0" encoding="UTF-8"?>
<svg width="1097px" height="170px" viewBox="0 0 1097 170" version="1.1" xmlns="http://www.w3.org/2000/svg" xmlns:xlink="http://www.w3.org/1999/xlink">
    <title>Group 3</title>
    <g id="Page-1" stroke="none" stroke-width="1" fill="none" fill-rule="evenodd">
        <g id="Artboard" transform="translate(-511, -166)" fill="#FFFFFF">
            <g id="Group-2" transform="translate(65, 73)">
                <g id="Group-3" transform="translate(445.9998, 93.4816)">
                    <polygon id="Fill-1" points="104.033527 0 68.8051842 102.885637 68.4379173 102.885637 32.2926074 0 0 0 0 131.413853 21.8339007 131.413853 21.8339007 30.0009065 22.2006875 30.0009065 58.5298709 131.413853 77.4285164 131.413853 113.7577 30.0009065 114.124967 30.0009065 114.124967 131.413853 135.958387 131.413853 135.958387 0"></polygon>
                    <path d="M209.826335,83.7442635 C206.644314,85.8319405 202.730641,87.088881 198.083394,87.5174929 C193.433746,87.9485127 188.786019,88.5928754 184.138771,89.4500992 C181.93709,89.8180312 179.795419,90.3415156 177.717121,91.0142918 C175.635941,91.6904391 173.801047,92.6107507 172.212917,93.7752266 C170.621427,94.9430737 169.368879,96.4759632 168.451431,98.3763031 C167.533984,100.280496 167.0755,102.581034 167.0755,105.278399 C167.0755,107.610722 167.746183,109.575113 169.093788,111.168201 C170.438033,112.764178 172.057849,114.021119 173.956115,114.941431 C175.85054,115.861742 177.929319,116.505623 180.193892,116.873555 C182.456065,117.241969 184.506038,117.425935 186.340933,117.425935 C188.662636,117.425935 191.171574,117.121572 193.863424,116.505623 C196.552875,115.893045 199.092538,114.848966 201.477612,113.376756 C203.863167,111.904547 205.84977,110.035028 207.44126,107.763385 C209.029389,105.494632 209.826335,102.701912 209.826335,99.3885977 L209.826335,83.7442635 Z M230.743268,110.24789 C230.743268,112.824377 231.078369,114.665482 231.751932,115.769759 C232.422614,116.873555 233.739014,117.425935 235.696811,117.425935 L237.898493,117.425935 C238.753048,117.425935 239.733387,117.305057 240.834228,117.058003 L240.834228,131.598059 C240.100654,131.842705 239.151521,132.118654 237.990669,132.426388 C236.826457,132.731232 235.63392,133.007181 234.412577,133.254717 C233.188354,133.499363 231.964611,133.683329 230.743268,133.807096 C229.519045,133.927975 228.478695,133.990581 227.623659,133.990581 C223.340798,133.990581 219.794392,133.130949 216.981559,131.414093 C214.166806,129.697238 212.331911,126.692139 211.477356,122.395425 C207.317877,126.444603 202.211666,129.389504 196.156802,131.230127 C190.101939,133.070751 184.259273,133.990581 178.634088,133.990581 C174.351707,133.990581 170.25512,133.40738 166.341447,132.242422 C162.424893,131.077946 158.970663,129.360609 155.974917,127.088966 C152.97581,124.819731 150.590735,121.93551 148.818732,118.438711 C147.044809,114.941431 146.158567,110.863357 146.158567,106.198711 C146.158567,100.308909 147.227722,95.5233853 149.369392,91.8426204 C151.508182,88.1613739 154.323416,85.2800425 157.809331,83.1923654 C161.295727,81.1070963 165.20892,79.603102 169.551792,78.6827904 C173.892743,77.7624788 178.267781,77.0579178 182.671144,76.5662181 C186.460955,75.8298725 190.070733,75.3097592 193.496637,75.0020255 C196.919181,74.6971813 199.947093,74.1736969 202.578933,73.4373513 C205.207412,72.7010057 207.286191,71.5678329 208.817191,70.0325354 C210.345309,68.4991643 211.110569,66.1991076 211.110569,63.1304391 C211.110569,60.4325921 210.468212,58.2240368 209.183977,56.5042918 C207.899263,54.7879178 206.308733,53.4674079 204.413348,52.5470963 C202.515562,51.6272663 200.405577,51.0146884 198.083394,50.7064731 C195.75833,50.4016289 193.556648,50.2465581 191.478349,50.2465581 C185.606879,50.2465581 180.772878,51.4746034 176.983067,53.9278045 C173.190375,56.3834136 171.049185,60.1855382 170.561416,65.3389943 L149.644482,65.3389943 C150.011749,59.2045467 151.479377,54.1117705 154.048325,50.0625921 C156.616794,46.0134136 159.88811,42.7636686 163.864195,40.3075779 C167.837879,37.8543768 172.333419,36.1380028 177.350334,35.1541218 C182.364368,34.1736119 187.501784,33.6819122 192.762584,33.6819122 C197.409351,33.6819122 201.996587,34.1736119 206.523332,35.1541218 C211.047677,36.1380028 215.115459,37.7310907 218.725237,39.9396459 C222.331654,42.1482011 225.238584,45.001119 227.440266,48.4979178 C229.641947,51.9951983 230.743268,56.2601275 230.743268,61.2898159 L230.743268,110.24789 Z" id="Fill-2"></path>
                    <path d="M310.653165,68.0999773 C309.796209,62.2101756 307.442339,57.76417 303.589157,54.7561813 C299.735974,51.7506006 294.873648,50.2466062 289.002658,50.2466062 C286.310807,50.2466062 283.435083,50.7065212 280.378845,51.6268329 C277.319728,52.5471445 274.507375,54.2668895 271.938907,56.780289 C269.369958,59.2970595 267.228768,62.7938584 265.517256,67.2716487 C263.802863,71.751847 262.948308,77.609864 262.948308,84.8485892 C262.948308,88.7768895 263.406791,92.7027819 264.324718,96.627711 C265.241686,100.556493 266.709793,104.053292 268.728081,107.119071 C270.745889,110.187739 273.343163,112.672244 276.526143,114.573065 C279.705283,116.477258 283.558465,117.425983 288.08521,117.425983 C294.200085,117.425983 299.246285,115.525161 303.22189,111.720629 C307.195574,107.918504 309.672826,102.581082 310.653165,95.707881 L331.570098,95.707881 C329.612301,108.10247 324.933368,117.581535 317.533779,124.144113 C310.13131,130.709099 300.31544,133.990629 288.08521,133.990629 C280.62273,133.990629 274.048891,132.73128 268.361294,130.217399 C262.673217,127.704482 257.870902,124.267881 253.957708,119.910969 C250.042115,115.556465 247.077094,110.371705 245.059286,104.358136 C243.040998,98.3479377 242.031374,91.8426686 242.031374,84.8485892 C242.031374,77.7336317 243.009312,71.0448782 244.967109,64.7866629 C246.922026,58.5284476 249.858241,53.0995241 253.774315,48.497966 C257.687508,43.8968895 262.549355,40.2787309 268.361294,37.6391558 C274.169393,35.0019887 280.989517,33.6819603 288.819264,33.6819603 C294.323468,33.6819603 299.552581,34.3894108 304.506604,35.7985326 C309.460627,37.2105439 313.86399,39.3266346 317.717173,42.1482493 C321.570355,44.972272 324.718289,48.5297507 327.166255,52.8230935 C329.612301,57.1198074 331.079449,62.2101756 331.570098,68.0999773 L310.653165,68.0999773 Z" id="Fill-4"></path>
                    <polygon id="Fill-6" points="340.981206 0.000192634561 373.273814 0.000192634561 409.419123 102.88583 409.78591 102.88583 445.014253 0.000192634561 476.940074 0.000192634561 476.940074 131.414045 455.105693 131.414045 455.105693 30.0010992 454.738906 30.0010992 418.409723 131.414045 399.511077 131.414045 363.182374 30.0010992 362.815107 30.0010992 362.815107 131.414045 340.981206 131.414045"></polygon>
                    <path d="M550.563752,83.7442635 C547.382212,85.8319405 543.468059,87.088881 538.820811,87.5174929 C534.171644,87.9485127 529.523916,88.5928754 524.876669,89.4500992 C522.674988,89.8180312 520.533317,90.3415156 518.455018,91.0142918 C516.373359,91.6904391 514.538464,92.6107507 512.950335,93.7752266 C511.359325,94.9430737 510.106296,96.4759632 509.188849,98.3763031 C508.271882,100.280496 507.812918,102.581034 507.812918,105.278399 C507.812918,107.610722 508.48408,109.575113 509.831206,111.168201 C511.175931,112.764178 512.795747,114.021119 514.693533,114.941431 C516.588438,115.861742 518.667217,116.505623 520.93179,116.873555 C523.193962,117.241969 525.243456,117.425935 527.078831,117.425935 C529.400534,117.425935 531.909471,117.121572 534.600842,116.505623 C537.290292,115.893045 539.830435,114.848966 542.21551,113.376756 C544.601065,111.904547 546.587667,110.035028 548.178677,107.763385 C549.766807,105.494632 550.563752,102.701912 550.563752,99.3885977 L550.563752,83.7442635 Z M571.480686,110.24789 C571.480686,112.824377 571.815787,114.665482 572.48983,115.769759 C573.160512,116.873555 574.476432,117.425935 576.434229,117.425935 L578.63687,117.425935 C579.490946,117.425935 580.471285,117.305057 581.571645,117.058003 L581.571645,131.598059 C580.838072,131.842705 579.888939,132.118654 578.728567,132.426388 C577.564355,132.731232 576.371337,133.007181 575.149995,133.254717 C573.926252,133.499363 572.702028,133.683329 571.480686,133.807096 C570.256943,133.927975 569.216113,133.990581 568.361557,133.990581 C564.078216,133.990581 560.53181,133.130949 557.719457,131.414093 C554.904224,129.697238 553.069809,126.692139 552.215253,122.395425 C548.055295,126.444603 542.949564,129.389504 536.8947,131.230127 C530.839836,133.070751 524.997171,133.990581 519.371986,133.990581 C515.089125,133.990581 510.992538,133.40738 507.078864,132.242422 C503.16279,131.077946 499.708561,129.360609 496.712334,127.088966 C493.713228,124.819731 491.328633,121.93551 489.55663,118.438711 C487.782226,114.941431 486.895985,110.863357 486.895985,106.198711 C486.895985,100.308909 487.96562,95.5233853 490.10729,91.8426204 C492.2456,88.1613739 495.060833,85.2800425 498.547229,83.1923654 C502.033624,81.1070963 505.946818,79.603102 510.28969,78.6827904 C514.630641,77.7624788 519.005199,77.0579178 523.408561,76.5662181 C527.198852,75.8298725 530.808631,75.3097592 534.234055,75.0020255 C537.656599,74.6971813 540.684511,74.1736969 543.316351,73.4373513 C545.94483,72.7010057 548.023609,71.5678329 549.554608,70.0325354 C551.082727,68.4991643 551.847986,66.1991076 551.847986,63.1304391 C551.847986,60.4325921 551.205629,58.2240368 549.921395,56.5042918 C548.637161,54.7879178 547.046151,53.4674079 545.151726,52.5470963 C543.253459,51.6272663 541.143475,51.0146884 538.820811,50.7064731 C536.496228,50.4016289 534.294546,50.2465581 532.215767,50.2465581 C526.344297,50.2465581 521.510775,51.4746034 517.720484,53.9278045 C513.927793,56.3834136 511.786603,60.1855382 511.298834,65.3389943 L490.38238,65.3389943 C490.749167,59.2045467 492.217275,54.1117705 494.786223,50.0625921 C497.354691,46.0134136 500.625528,42.7636686 504.602093,40.3075779 C508.575297,37.8543768 513.071317,36.1380028 518.087751,35.1541218 C523.101786,34.1736119 528.239682,33.6819122 533.500481,33.6819122 C538.147729,33.6819122 542.734485,34.1736119 547.26123,35.1541218 C551.785095,36.1380028 555.853357,37.7310907 559.462655,39.9396459 C563.069552,42.1482011 565.976482,45.001119 568.177684,48.4979178 C570.379845,51.9951983 571.480686,56.2601275 571.480686,61.2898159 L571.480686,110.24789 Z" id="Fill-8"></path>
                    <path d="M628.788254,114.849159 C633.435501,114.849159 637.38038,113.900433 640.622891,111.996722 C643.862042,110.095419 646.494842,107.57913 648.51217,104.450263 C650.530938,101.321397 651.999045,97.7639178 652.916013,93.7754193 C653.83346,89.7893286 654.292424,85.7690453 654.292424,81.7198669 C654.292424,77.6702068 653.802254,73.7452776 652.824316,69.9402635 C651.843977,66.1386204 650.347544,62.7622181 648.329256,59.8173173 C646.310968,56.8724164 643.679129,54.542983 640.439498,52.823238 C637.196987,51.1063824 633.312599,50.2467507 628.788254,50.2467507 C624.138126,50.2467507 620.225413,51.2301501 617.045793,53.1916516 C613.863773,55.1555609 611.294824,57.700745 609.339428,60.8300935 C607.381631,63.9589603 605.974014,67.518847 605.119459,71.5049377 C604.262982,75.4939178 603.835224,79.4511133 603.835224,83.3760425 C603.835224,87.3043428 604.322513,91.1382521 605.302852,94.8792153 C606.28031,98.6240312 607.780104,101.965759 609.797912,104.910178 C611.8162,107.855561 614.385628,110.248082 617.504757,112.088705 C620.623885,113.929329 624.385371,114.849159 628.788254,114.849159 L628.788254,114.849159 Z M675.209357,126.444796 C675.209357,140.800887 671.201106,151.504626 663.191326,158.561793 C655.177705,165.616552 643.650323,169.145136 628.60534,169.145136 C623.834711,169.145136 619.032395,168.653436 614.201754,167.673408 C609.368233,166.688564 604.96487,165.03287 600.991186,162.702955 C597.015101,160.370632 593.680413,157.302445 590.991443,153.50032 C588.299112,149.695788 586.708582,145.034031 586.220813,139.512161 L607.137747,139.512161 C607.748418,142.457544 608.788768,144.850065 610.256875,146.690688 C611.724983,148.53083 613.468181,149.971737 615.486469,151.015816 C617.504757,152.056524 619.735243,152.732671 622.18321,153.039924 C624.628775,153.345249 627.197244,153.50032 629.889575,153.50032 C638.329513,153.50032 644.504399,151.412643 648.420953,147.242586 C652.334147,143.070122 654.292424,137.056552 654.292424,129.205731 L654.292424,114.665193 L653.925157,114.665193 C650.989901,119.942416 646.981651,124.051793 641.907126,126.997176 C636.82972,129.942076 631.357682,131.413805 625.485732,131.413805 C617.899869,131.413805 611.449893,130.097147 606.129083,127.456609 C600.807793,124.819442 596.40443,121.199357 592.918514,116.597799 C589.431638,111.996722 586.891975,106.690603 585.303366,100.677516 C583.712356,94.6668357 582.918771,88.225136 582.918771,81.3514533 C582.918771,74.9728414 583.896229,68.8990737 585.854026,63.1301501 C587.809423,57.3641161 590.624656,52.3031246 594.294445,47.9457309 C597.963754,43.5921898 602.458814,40.1233229 607.780104,37.5468357 C613.100914,34.9703484 619.124572,33.6816232 625.852999,33.6816232 C631.844491,33.6816232 637.349175,34.9414533 642.366569,37.4548527 C647.380123,39.9716232 651.233306,43.9283371 653.925157,49.3264391 L654.292424,49.3264391 L654.292424,36.2590737 L675.209357,36.2590737 L675.209357,126.444796 Z" id="Fill-10"></path>
                    <path d="M747.021089,83.7442635 C743.839069,85.8319405 739.925876,87.088881 735.278149,87.5174929 C730.628021,87.9485127 725.981254,88.5928754 721.334006,89.4500992 C719.132325,89.8180312 716.990654,90.3415156 714.911875,91.0142918 C712.830696,91.6904391 710.996282,92.6107507 709.407192,93.7752266 C707.816662,94.9430737 706.563633,96.4759632 705.646666,98.3763031 C704.729219,100.280496 704.270735,102.581034 704.270735,105.278399 C704.270735,107.610722 704.941418,109.575113 706.288063,111.168201 C707.633749,112.764178 709.252604,114.021119 711.15087,114.941431 C713.045775,115.861742 715.124074,116.505623 717.389607,116.873555 C719.650819,117.241969 721.700793,117.425935 723.535688,117.425935 C725.857871,117.425935 728.366808,117.121572 731.058179,116.505623 C733.747629,115.893045 736.287773,114.848966 738.672847,113.376756 C741.058402,111.904547 743.045005,110.035028 744.635535,107.763385 C746.223664,105.494632 747.021089,102.701912 747.021089,99.3885977 L747.021089,83.7442635 Z M767.938023,110.24789 C767.938023,118.948229 779.695847,121.041204 791.867026,108.483357 L784.974409,131.414093 C773.032712,131.414093 767.529468,131.420836 761.540857,131.514263 C752.353902,131.658739 749.526666,126.692139 748.67211,122.395425 C744.512632,126.444603 739.406421,129.389504 733.352037,131.230127 C727.297173,133.070751 721.454508,133.990581 715.829803,133.990581 C711.546462,133.990581 707.449875,133.40738 703.536201,132.242422 C699.620608,131.077946 696.165418,129.360609 693.169672,127.088966 C690.170565,124.819731 687.78549,121.93551 686.013967,118.438711 C684.239563,114.941431 683.353802,110.863357 683.353802,106.198711 C683.353802,100.308909 684.422957,95.5233853 686.564147,91.8426204 C688.702937,88.1613739 691.518651,85.2800425 695.004566,83.1923654 C698.490482,81.1070963 702.403675,79.603102 706.747507,78.6827904 C711.087978,77.7624788 715.462536,77.0579178 719.866379,76.5662181 C723.65571,75.8298725 727.265488,75.3097592 730.691392,75.0020255 C734.114416,74.6971813 737.141848,74.1736969 739.773208,73.4373513 C742.402647,72.7010057 744.480946,71.5678329 746.011945,70.0325354 C747.540064,68.4991643 748.305804,66.1991076 748.305804,63.1304391 C748.305804,60.4325921 747.663447,58.2240368 746.378732,56.5042918 C745.094978,54.7879178 743.503488,53.4674079 741.609063,52.5470963 C739.710797,51.6272663 737.600812,51.0146884 735.278149,50.7064731 C732.953565,50.4016289 730.751403,50.2465581 728.673104,50.2465581 C722.801634,50.2465581 717.968593,51.4746034 714.177822,53.9278045 C710.38465,56.3834136 708.24394,60.1855382 707.756651,65.3389943 L686.839717,65.3389943 C687.206504,59.2045467 688.674132,54.1117705 691.24308,50.0625921 C693.811549,46.0134136 697.082865,42.7636686 701.05943,40.3075779 C705.032634,37.8543768 709.528174,36.1380028 714.545089,35.1541218 C719.559123,34.1736119 724.697019,33.6819122 729.957819,33.6819122 C734.605066,33.6819122 739.191822,34.1736119 743.718567,35.1541218 C748.241952,36.1380028 752.311174,37.7310907 755.919992,39.9396459 C759.526409,42.1482011 762.433819,45.001119 764.635021,48.4979178 C766.837182,51.9951983 767.938023,56.2601275 767.938023,61.2898159 L767.938023,110.24789 Z" id="Fill-12"></path>
                    <polygon id="Fill-14" points="788.643094 36.258881 865.705303 36.258881 865.705303 50.9829037 811.394922 114.848966 868.457165 114.848966 868.457165 131.414093 784.974265 131.414093 784.974265 116.689589 837.449752 52.8235269 788.643094 52.8235269"></polygon>
                    <path d="M879.133592,131.413853 L900.050525,131.413853 L900.050525,36.2586402 L879.133592,36.2586402 L879.133592,131.413853 Z M879.133592,19.8774788 L900.050525,19.8774788 L900.050525,0 L879.133592,0 L879.133592,19.8774788 Z" id="Fill-16"></path>
                    <path d="M913.07626,36.258881 L932.891873,36.258881 L932.891873,50.2465581 L933.25914,50.6149717 C936.438759,45.3401558 940.598718,41.1989943 945.735174,38.1910057 C950.873071,35.1859065 956.561148,33.6819122 962.799405,33.6819122 C973.19426,33.6819122 981.390795,36.3826487 987.386128,41.7802691 C993.37762,47.1812606 996.375767,55.2796176 996.375767,66.0753399 L996.375767,131.414093 L975.459313,131.414093 L975.459313,71.5972096 C975.212548,64.1143201 973.624899,58.6844334 970.689164,55.3080312 C967.752948,51.9345184 963.166192,50.2465581 956.927935,50.2465581 C953.379128,50.2465581 950.199508,50.8909207 947.386675,52.1791643 C944.571922,53.4674079 942.186367,55.2478329 940.230971,57.517068 C938.273174,59.788711 936.745055,62.4571813 935.644214,65.5234419 C934.543374,68.5916289 933.992713,71.8442635 933.992713,75.2774929 L933.992713,131.414093 L913.07626,131.414093 L913.07626,36.258881 Z" id="Fill-18"></path>
                    <path d="M1075.63255,75.462085 C1075.38579,72.1492521 1074.6839,68.9597054 1073.52257,65.8910368 C1072.35884,62.8257394 1070.77023,60.1567875 1068.75242,57.8846629 C1066.73413,55.6159093 1064.28568,53.7752861 1061.41332,52.3632748 C1058.5376,50.954153 1055.32725,50.2467025 1051.78036,50.2467025 C1048.11105,50.2467025 1044.77685,50.8910652 1041.78014,52.1793088 C1038.78199,53.4675524 1036.21401,55.2474958 1034.07474,57.5167309 C1031.93307,59.7888555 1030.22155,62.4573258 1028.93732,65.5231048 C1027.65308,68.5917734 1026.94784,71.9046062 1026.82733,75.462085 L1075.63255,75.462085 Z M1026.82733,89.2662776 C1026.82733,92.9470425 1027.34631,96.5074108 1028.38714,99.9411218 C1029.42509,103.377722 1030.98393,106.383303 1033.06559,108.95979 C1035.14389,111.536278 1037.77333,113.592652 1040.95583,115.125541 C1044.13497,116.66132 1047.9267,117.426079 1052.33054,117.426079 C1058.44542,117.426079 1063.36776,116.108941 1067.1014,113.468884 C1070.8312,110.831717 1073.61474,106.875003 1075.44964,101.597297 L1095.26573,101.597297 C1094.16489,106.751235 1092.26663,111.352312 1089.57717,115.40149 C1086.88532,119.450669 1083.64329,122.855484 1079.85348,125.616419 C1076.06031,128.376873 1071.80914,130.465031 1067.1014,131.874635 C1062.39078,133.283275 1057.46892,133.990725 1052.33054,133.990725 C1044.86902,133.990725 1038.26254,132.76268 1032.51493,130.30996 C1026.76396,127.856759 1021.90164,124.420159 1017.92843,120.002567 C1013.95187,115.585456 1010.95612,110.311603 1008.93783,104.174748 C1006.92003,98.0398187 1005.90992,91.2903853 1005.90992,83.9283739 C1005.90992,77.18183 1006.98052,70.7685439 1009.12171,64.6952578 C1011.2605,58.6210085 1014.31865,53.2835864 1018.29474,48.6820283 C1022.26842,44.0809518 1027.07122,40.4310085 1032.6988,37.7307535 C1038.32303,35.0338697 1044.68467,33.6820567 1051.78036,33.6820567 C1059.23948,33.6820567 1065.9367,35.2462493 1071.87203,38.3751161 C1077.80303,41.503983 1082.72489,45.6451445 1086.64192,50.7990822 C1090.55511,55.9520567 1093.39867,61.8736431 1095.17307,68.5595071 C1096.94556,75.2492238 1097.40452,82.1513201 1096.54997,89.2662776 L1026.82733,89.2662776 Z" id="Fill-19"></path>
                </g>
            </g>
        </g>
    </g>
</svg>