<?xml version="1.0" encoding="UTF-8"?>
<svg width="419px" height="377px" viewBox="0 0 419 377" version="1.1" xmlns="http://www.w3.org/2000/svg" xmlns:xlink="http://www.w3.org/1999/xlink">
    <title>Group</title>
    <defs>
        <linearGradient x1="85.1049626%" y1="21.1783457%" x2="31.2345701%" y2="78.8216543%" id="linearGradient-1">
            <stop stop-color="#1AEAD8" offset="0%"></stop>
            <stop stop-color="#016DE2" offset="100%"></stop>
        </linearGradient>
        <filter x="-67.4%" y="-88.7%" width="234.7%" height="277.4%" filterUnits="objectBoundingBox" id="filter-2">
            <feGaussianBlur stdDeviation="40" in="SourceGraphic"></feGaussianBlur>
        </filter>
        <linearGradient x1="85.1049626%" y1="21.2126812%" x2="31.2345701%" y2="78.7873188%" id="linearGradient-3">
            <stop stop-color="#1AEAD8" offset="0%"></stop>
            <stop stop-color="#016DE2" offset="100%"></stop>
        </linearGradient>
        <linearGradient x1="50%" y1="0%" x2="50%" y2="100%" id="linearGradient-4">
            <stop stop-color="#0A9ADB" offset="0%"></stop>
            <stop stop-color="#064379" offset="100%"></stop>
        </linearGradient>
        <filter x="-39.4%" y="-70.8%" width="178.7%" height="241.5%" filterUnits="objectBoundingBox" id="filter-5">
            <feGaussianBlur stdDeviation="18.7000004" in="SourceGraphic"></feGaussianBlur>
        </filter>
        <linearGradient x1="50%" y1="11.3287922%" x2="50%" y2="100%" id="linearGradient-6">
            <stop stop-color="#FFFFFF" offset="0%"></stop>
            <stop stop-color="#B5E2F5" offset="100%"></stop>
        </linearGradient>
        <path d="M83.0510813,55.315607 L87.3590785,55.315607 C89.2772889,55.315607 90.8323057,56.8715635 90.8323057,58.7909331 L90.8323057,116.924427 C90.8323057,120.186699 88.1893089,122.831293 84.9290071,122.831293 C81.6687053,122.831293 79.0257085,120.186699 79.0257085,116.924427 L79.0257085,59.1921158 C78.9441172,56.7316567 77.0628052,55.4301041 75.183593,55.3382596 L69.1986045,55.3736896 C67.2884472,55.3849973 65.7459254,56.9376098 65.7459254,58.8489549 L65.7459254,116.924427 C65.7459254,120.186699 63.1029286,122.831293 59.8426268,122.831293 C56.5823251,122.831293 53.9393283,120.186699 53.9393283,116.924427 L53.9393283,58.7909331 C53.9393283,56.8715635 52.3843115,55.315607 50.4661011,55.315607 L44.0025076,55.315607 C42.0842972,55.315607 40.5292804,56.8715635 40.5292804,58.7909331 L40.5292804,116.924427 C40.5292804,120.186699 37.8862836,122.831293 34.6259818,122.831293 C31.3656801,122.831293 28.7226833,120.186699 28.7226833,116.924427 L28.7226833,51.670982 C28.7226833,47.1924529 32.3510558,43.5618878 36.8268801,43.5618878 L70.9059577,43.5618878 C75.2442995,43.5618878 78.7864517,46.9728405 78.9999649,51.260766 L79.0010232,51.2610599 C79.0009866,51.2677496 79.000963,51.274431 79.0009523,51.2811043 C79.0057413,51.3823347 79.0086753,51.484051 79.009721,51.5862199 C79.1572289,54.0508624 81.1393016,55.3118937 83.0510814,55.315607 L83.0510813,55.315607 Z M163.445619,55.315607 L167.753617,55.315607 C169.671827,55.315607 171.226844,56.8715635 171.226844,58.7909331 L171.226844,116.924427 C171.226844,120.186699 168.583847,122.831293 165.323545,122.831293 C162.063243,122.831293 159.420247,120.186699 159.420247,116.924427 L159.420247,59.1921158 C159.338655,56.7316567 157.457343,55.4301041 155.578131,55.3382596 L149.593143,55.3736896 C147.682985,55.3849973 146.140464,56.9376098 146.140464,58.8489549 L146.140464,116.924427 C146.140464,120.186699 143.497467,122.831293 140.237165,122.831293 C136.976863,122.831293 134.333866,120.186699 134.333866,116.924427 L134.333866,58.7909331 C134.333866,56.8715635 132.77885,55.315607 130.860639,55.315607 L124.397046,55.315607 C122.478835,55.315607 120.923819,56.8715635 120.923819,58.7909331 L120.923819,116.924427 C120.923819,120.186699 118.280822,122.831293 115.02052,122.831293 C111.760218,122.831293 109.117221,120.186699 109.117221,116.924427 L109.117221,51.670982 C109.117221,47.1924529 112.745594,43.5618878 117.221418,43.5618878 L151.300496,43.5618878 C155.638838,43.5618878 159.18099,46.9728405 159.394503,51.260766 L159.395561,51.2610599 C159.395525,51.2677496 159.395501,51.274431 159.39549,51.2811043 C159.400279,51.3823347 159.403213,51.484051 159.404259,51.5862199 C159.551767,54.0508624 161.53384,55.3118937 163.445619,55.315607 L163.445619,55.315607 Z" id="path-7"></path>
        <filter x="-4.6%" y="-5.7%" width="109.1%" height="122.7%" filterUnits="objectBoundingBox" id="filter-8">
            <feOffset dx="0" dy="7" in="SourceAlpha" result="shadowOffsetOuter1"></feOffset>
            <feGaussianBlur stdDeviation="1" in="shadowOffsetOuter1" result="shadowBlurOuter1"></feGaussianBlur>
            <feColorMatrix values="0 0 0 0 0.00481791977   0 0 0 0 0.274624883   0 0 0 0 0.566915761  0 0 0 0.502922858 0" type="matrix" in="shadowBlurOuter1"></feColorMatrix>
        </filter>
    </defs>
    <g id="Page-1" stroke="none" stroke-width="1" fill="none" fill-rule="evenodd">
        <g id="1024" transform="translate(-22, -122)">
            <g id="Group" transform="translate(131, 217)">
                <path d="M189.181579,67.0390396 C189.159806,64.6668356 189.145703,63.7016657 189.124673,62.5783158 C189.059602,59.2451501 188.845587,55.8721299 188.280239,52.8587897 C187.664666,49.5724095 186.82914,46.5880318 185.320392,43.6009311 C183.788882,40.5702628 181.688561,37.9507634 179.414059,35.613958 C177.083888,33.3330973 174.471167,31.2267544 171.448723,29.6907505 C168.471062,28.1775205 165.494391,27.3398351 162.217851,26.722463 C159.212232,26.1558372 155.848353,25.9407224 152.524061,25.8766088 C151.40549,25.854825 150.441802,25.8404675 148.076497,25.8184362 C145.831932,25.7973951 140.773991,25.7894737 131.683156,25.7894737 C109.944871,25.7894737 110.930084,39.7444596 88.1291436,39.7444596 L57.6315618,39.7444596 C56.2737385,39.7444596 54.4312257,39.752381 52.1864133,39.7734221 C49.8211089,39.795701 48.8586576,39.8100585 47.7386019,39.8313472 C44.4150523,39.8957083 41.0511738,40.1110707 38.0460496,40.6776965 C34.7687669,41.294821 31.7925905,42.1325064 28.8146821,43.6457364 C25.7919913,45.1817403 23.1800124,47.2875882 20.8498412,49.5689439 C18.5748439,51.9057493 16.4747703,54.5250012 14.943013,57.5561646 C13.4342655,60.5427702 12.598739,63.527643 11.9834135,66.813528 C11.418561,69.8271158 11.203061,73.2003835 11.1397223,76.5337968 C11.118197,77.6566516 11.1035994,78.6218215 11.0818268,80.9940255 C11.0607963,83.2449335 11.0526316,85.0925941 11.0526316,86.4540803 L11.0526316,114.343011 C11.0526316,115.704497 11.0607963,117.552405 11.0818268,119.803808 C11.1035994,122.17527 11.118197,123.14143 11.1397223,124.263047 C11.203061,127.596955 11.418561,130.970966 11.9834135,133.983563 C12.598739,137.270191 13.4342655,140.255064 14.943013,143.241174 C16.4747703,146.272337 18.5748439,148.892084 20.8498412,151.228395 C23.1800124,153.509255 25.7919913,155.616093 28.8146821,157.151355 C31.7925905,158.664832 34.7687669,159.502518 38.0460496,160.11989 C41.0511738,160.686763 44.4150523,160.901878 47.7386019,160.965496 C48.8586576,160.987775 49.8211089,161.001885 52.1864133,161.024164 C54.4312257,161.044958 56.2737385,161.052632 57.6315618,161.052632 L142.631844,161.052632 C143.989667,161.052632 145.831932,161.044958 148.076497,161.024164 C150.441802,161.001885 151.40549,160.987775 152.524061,160.965496 C155.848353,160.901878 159.212232,160.686763 162.217851,160.11989 C165.494391,159.502518 168.471062,158.664832 171.448723,157.151355 C174.471167,155.616093 177.083888,153.509255 179.414059,151.228395 C181.688561,148.892084 183.788882,146.272337 185.320392,143.241174 C186.82914,140.255064 187.664666,137.270191 188.280239,133.983563 C188.845587,130.970966 189.059602,127.596955 189.124673,124.263047 C189.145703,123.14143 189.159806,122.17527 189.181579,119.803808 C189.202856,117.552405 189.210526,115.704497 189.210526,114.343011 L189.210526,72.4993419 C189.210526,71.1376082 189.202856,69.2899476 189.181579,67.0390396 L189.181579,67.0390396 Z" id="Path" fill="url(#linearGradient-1)" opacity="0.884230841" filter="url(#filter-2)"></path>
                <path d="M199.967503,46.2791595 C199.943061,43.6177107 199.927229,42.5348568 199.903621,41.274536 C199.830572,37.5349546 199.590319,33.7506593 198.95566,30.3699 C198.264618,26.6828088 197.326656,23.3345435 195.632937,19.9832231 C193.913664,16.583023 191.555844,13.6441258 189.002489,11.0223918 C186.386639,8.46342392 183.453599,6.10025288 180.060605,4.37696269 C176.717884,2.67922329 173.376273,1.73939831 169.69803,1.04674952 C166.323923,0.411034567 162.547634,0.169690622 158.815785,0.0977595727 C157.560077,0.0733196795 156.478241,0.0572115681 153.822951,0.0324939489 C151.303203,0.00888723388 145.62516,0 135.419791,0 C111.016398,0 112.122399,15.6565288 86.5260696,15.6565288 L52.2894933,15.6565288 C50.7652013,15.6565288 48.696797,15.6654161 46.1767712,15.6890228 C43.5214812,15.7140181 42.4410337,15.7301262 41.1836594,15.7540107 C37.4526436,15.8262195 33.6763546,16.0678411 30.3028031,16.7035561 C26.6237265,17.3959271 23.2826717,18.3357521 19.9396727,20.0334915 C16.5464009,21.7567817 13.6141941,24.1193973 10.9983446,26.6789207 C8.44443333,29.3006547 6.08689131,32.2392741 4.36734104,35.6400297 C2.67362153,38.9907946 1.73565977,42.3396154 1.04489551,46.0261511 C0.410792254,49.4071881 0.168872002,53.1917611 0.097768001,56.9316202 C0.0736037507,58.1913856 0.0572165006,59.2742396 0.0327745003,61.9356884 C0.00916575009,64.4610514 0,66.5339987 0,68.0614921 L0,99.350943 C0,100.878436 0.00916575009,102.951661 0.0327745003,105.47758 C0.0572165006,108.138196 0.0736037507,109.22216 0.097768001,110.480537 C0.168872002,114.220952 0.410792254,118.006358 1.04489551,121.386284 C1.73565977,125.073653 2.67362153,128.422474 4.36734104,131.772683 C6.08689131,135.173439 8.44443333,138.112614 10.9983446,140.733792 C13.6141941,143.29276 16.5464009,145.656487 19.9396727,147.378944 C23.2826717,149.076961 26.6237265,150.016786 30.3028031,150.709434 C33.6763546,151.345427 37.4526436,151.586771 41.1836594,151.658147 C42.4410337,151.683142 43.5214812,151.698972 46.1767712,151.723968 C48.696797,151.747297 50.7652013,151.755906 52.2894933,151.755906 L147.710784,151.755906 C149.235076,151.755906 151.303203,151.747297 153.822951,151.723968 C156.478241,151.698972 157.560077,151.683142 158.815785,151.658147 C162.547634,151.586771 166.323923,151.345427 169.69803,150.709434 C173.376273,150.016786 176.717884,149.076961 180.060605,147.378944 C183.453599,145.656487 186.386639,143.29276 189.002489,140.733792 C191.555844,138.112614 193.913664,135.173439 195.632937,131.772683 C197.326656,128.422474 198.264618,125.073653 198.95566,121.386284 C199.590319,118.006358 199.830572,114.220952 199.903621,110.480537 C199.927229,109.22216 199.943061,108.138196 199.967503,105.47758 C199.99139,102.951661 200,100.878436 200,99.350943 L200,52.4052409 C200,50.8774699 199.99139,48.8045226 199.967503,46.2791595 L199.967503,46.2791595 Z" id="Path" fill="url(#linearGradient-3)"></path>
                <path d="M83.0510813,58.2117121 L87.3590785,58.2117121 C89.2772889,58.2117121 90.8323057,59.7676686 90.8323057,61.6870382 L90.8323057,119.820532 C90.8323057,123.082804 88.1893089,125.727398 84.9290071,125.727398 C81.6687053,125.727398 79.0257085,123.082804 79.0257085,119.820532 L79.0257085,62.0882209 C78.9441172,59.6277618 77.0628052,58.3262092 75.183593,58.2343646 L69.1986045,58.2697947 C67.2884472,58.2811024 65.7459254,59.8337148 65.7459254,61.7450599 L65.7459254,119.820532 C65.7459254,123.082804 63.1029286,125.727398 59.8426268,125.727398 C56.5823251,125.727398 53.9393283,123.082804 53.9393283,119.820532 L53.9393283,61.6870382 C53.9393283,59.7676686 52.3843115,58.2117121 50.4661011,58.2117121 L44.0025076,58.2117121 C42.0842972,58.2117121 40.5292804,59.7676686 40.5292804,61.6870382 L40.5292804,119.820532 C40.5292804,123.082804 37.8862836,125.727398 34.6259818,125.727398 C31.3656801,125.727398 28.7226833,123.082804 28.7226833,119.820532 L28.7226833,54.5670871 C28.7226833,50.088558 32.3510558,46.4579929 36.8268801,46.4579929 L70.9059577,46.4579929 C75.2442995,46.4579929 78.7864517,49.8689456 78.9999649,54.1568711 L79.0010232,54.157165 C79.0009866,54.1638546 79.000963,54.1705361 79.0009523,54.1772094 C79.0057413,54.2784398 79.0086753,54.3801561 79.009721,54.482325 C79.1572289,56.9469675 81.1393016,58.2079988 83.0510814,58.2117121 L83.0510813,58.2117121 Z M163.445619,58.2117121 L167.753617,58.2117121 C169.671827,58.2117121 171.226844,59.7676686 171.226844,61.6870382 L171.226844,119.820532 C171.226844,123.082804 168.583847,125.727398 165.323545,125.727398 C162.063243,125.727398 159.420247,123.082804 159.420247,119.820532 L159.420247,62.0882209 C159.338655,59.6277618 157.457343,58.3262092 155.578131,58.2343646 L149.593143,58.2697947 C147.682985,58.2811024 146.140464,59.8337148 146.140464,61.7450599 L146.140464,119.820532 C146.140464,123.082804 143.497467,125.727398 140.237165,125.727398 C136.976863,125.727398 134.333866,123.082804 134.333866,119.820532 L134.333866,61.6870382 C134.333866,59.7676686 132.77885,58.2117121 130.860639,58.2117121 L124.397046,58.2117121 C122.478835,58.2117121 120.923819,59.7676686 120.923819,61.6870382 L120.923819,119.820532 C120.923819,123.082804 118.280822,125.727398 115.02052,125.727398 C111.760218,125.727398 109.117221,123.082804 109.117221,119.820532 L109.117221,54.5670871 C109.117221,50.088558 112.745594,46.4579929 117.221418,46.4579929 L151.300496,46.4579929 C155.638838,46.4579929 159.18099,49.8689456 159.394503,54.1568711 L159.395561,54.157165 C159.395525,54.1638546 159.395501,54.1705361 159.39549,54.1772094 C159.400279,54.2784398 159.403213,54.3801561 159.404259,54.482325 C159.551767,56.9469675 161.53384,58.2079988 163.445619,58.2117121 L163.445619,58.2117121 Z" id="Combined-Shape" fill="url(#linearGradient-4)" filter="url(#filter-5)"></path>
                <g id="Combined-Shape">
                    <use fill="black" fill-opacity="1" filter="url(#filter-8)" xlink:href="#path-7"></use>
                    <use fill="url(#linearGradient-6)" fill-rule="evenodd" xlink:href="#path-7"></use>
                </g>
            </g>
        </g>
    </g>
</svg>