<?xml version="1.0" encoding="UTF-8"?>
<!--Generator: Apple Native CoreSVG 148-->
<!DOCTYPE svg
PUBLIC "-//W3C//DTD SVG 1.1//EN"
       "http://www.w3.org/Graphics/SVG/1.1/DTD/svg11.dtd">
<svg version="1.1" xmlns="http://www.w3.org/2000/svg" xmlns:xlink="http://www.w3.org/1999/xlink" width="3300" height="2200">
 <!--glyph: "uni1002ED.medium", point size: 100.000000, font version: "Version 16.0d11e1", template writer version: "8"-->
 <g id="Notes">
  <rect height="2200" id="artboard" style="fill:white;opacity:1" width="3300" x="0" y="0"/>
  <line id="" style="fill:none;stroke:black;opacity:1;stroke-width:0.5;" x1="263" x2="3036" y1="292" y2="292"/>
  <text style="stroke:none;fill:black;font-family:-apple-system,&quot;SF Pro Display&quot;,&quot;SF Pro Text&quot;,Helvetica,sans-serif;font-weight:bold;" transform="matrix(1 0 0 1 263 322)">Weight/Scale Variations</text>
  <text style="stroke:none;fill:black;font-family:-apple-system,&quot;SF Pro Display&quot;,&quot;SF Pro Text&quot;,Helvetica,sans-serif;text-anchor:middle;" transform="matrix(1 0 0 1 559.711 322)">Ultralight</text>
  <text style="stroke:none;fill:black;font-family:-apple-system,&quot;SF Pro Display&quot;,&quot;SF Pro Text&quot;,Helvetica,sans-serif;text-anchor:middle;" transform="matrix(1 0 0 1 856.422 322)">Thin</text>
  <text style="stroke:none;fill:black;font-family:-apple-system,&quot;SF Pro Display&quot;,&quot;SF Pro Text&quot;,Helvetica,sans-serif;text-anchor:middle;" transform="matrix(1 0 0 1 1153.13 322)">Light</text>
  <text style="stroke:none;fill:black;font-family:-apple-system,&quot;SF Pro Display&quot;,&quot;SF Pro Text&quot;,Helvetica,sans-serif;text-anchor:middle;" transform="matrix(1 0 0 1 1449.84 322)">Regular</text>
  <text style="stroke:none;fill:black;font-family:-apple-system,&quot;SF Pro Display&quot;,&quot;SF Pro Text&quot;,Helvetica,sans-serif;text-anchor:middle;" transform="matrix(1 0 0 1 1746.56 322)">Medium</text>
  <text style="stroke:none;fill:black;font-family:-apple-system,&quot;SF Pro Display&quot;,&quot;SF Pro Text&quot;,Helvetica,sans-serif;text-anchor:middle;" transform="matrix(1 0 0 1 2043.27 322)">Semibold</text>
  <text style="stroke:none;fill:black;font-family:-apple-system,&quot;SF Pro Display&quot;,&quot;SF Pro Text&quot;,Helvetica,sans-serif;text-anchor:middle;" transform="matrix(1 0 0 1 2339.98 322)">Bold</text>
  <text style="stroke:none;fill:black;font-family:-apple-system,&quot;SF Pro Display&quot;,&quot;SF Pro Text&quot;,Helvetica,sans-serif;text-anchor:middle;" transform="matrix(1 0 0 1 2636.69 322)">Heavy</text>
  <text style="stroke:none;fill:black;font-family:-apple-system,&quot;SF Pro Display&quot;,&quot;SF Pro Text&quot;,Helvetica,sans-serif;text-anchor:middle;" transform="matrix(1 0 0 1 2933.4 322)">Black</text>
  <line id="" style="fill:none;stroke:black;opacity:1;stroke-width:0.5;" x1="263" x2="3036" y1="1903" y2="1903"/>
  <g id="" transform="matrix(1 0 0 1 263 1933)">
   <path d="M 9.24805 0.830078 C 13.5547 0.830078 17.1387 -2.74414 17.1387 -7.05078 C 17.1387 -11.3574 13.5449 -14.9316 9.23828 -14.9316 C 4.94141 -14.9316 1.36719 -11.3574 1.36719 -7.05078 C 1.36719 -2.74414 4.95117 0.830078 9.24805 0.830078 Z M 9.24805 -0.654297 C 5.70312 -0.654297 2.87109 -3.49609 2.87109 -7.05078 C 2.87109 -10.6055 5.69336 -13.4473 9.23828 -13.4473 C 12.793 -13.4473 15.6348 -10.6055 15.6445 -7.05078 C 15.6543 -3.49609 12.8027 -0.654297 9.24805 -0.654297 Z M 9.22852 -3.62305 C 9.69727 -3.62305 9.9707 -3.93555 9.9707 -4.45312 L 9.9707 -6.31836 L 12.002 -6.31836 C 12.5 -6.31836 12.832 -6.57227 12.832 -7.04102 C 12.832 -7.51953 12.5195 -7.7832 12.002 -7.7832 L 9.9707 -7.7832 L 9.9707 -9.81445 C 9.9707 -10.332 9.69727 -10.6543 9.22852 -10.6543 C 8.75977 -10.6543 8.50586 -10.3125 8.50586 -9.81445 L 8.50586 -7.7832 L 6.49414 -7.7832 C 5.97656 -7.7832 5.64453 -7.51953 5.64453 -7.04102 C 5.64453 -6.57227 5.99609 -6.31836 6.49414 -6.31836 L 8.50586 -6.31836 L 8.50586 -4.45312 C 8.50586 -3.95508 8.75977 -3.62305 9.22852 -3.62305 Z"/>
  </g>
  <g id="" transform="matrix(1 0 0 1 281.506 1933)">
   <path d="M 11.709 2.91016 C 17.1582 2.91016 21.6699 -1.61133 21.6699 -7.05078 C 21.6699 -12.5 17.1484 -17.0117 11.6992 -17.0117 C 6.25977 -17.0117 1.74805 -12.5 1.74805 -7.05078 C 1.74805 -1.61133 6.26953 2.91016 11.709 2.91016 Z M 11.709 1.25 C 7.09961 1.25 3.41797 -2.44141 3.41797 -7.05078 C 3.41797 -11.6602 7.08984 -15.3516 11.6992 -15.3516 C 16.3086 -15.3516 20 -11.6602 20.0098 -7.05078 C 20.0195 -2.44141 16.3184 1.25 11.709 1.25 Z M 11.6797 -2.66602 C 12.207 -2.66602 12.5098 -3.01758 12.5098 -3.59375 L 12.5098 -6.23047 L 15.3223 -6.23047 C 15.8691 -6.23047 16.25 -6.51367 16.25 -7.03125 C 16.25 -7.55859 15.8887 -7.86133 15.3223 -7.86133 L 12.5098 -7.86133 L 12.5098 -10.6836 C 12.5098 -11.25 12.207 -11.6113 11.6797 -11.6113 C 11.1621 -11.6113 10.8789 -11.2305 10.8789 -10.6836 L 10.8789 -7.86133 L 8.07617 -7.86133 C 7.50977 -7.86133 7.13867 -7.55859 7.13867 -7.03125 C 7.13867 -6.51367 7.5293 -6.23047 8.07617 -6.23047 L 10.8789 -6.23047 L 10.8789 -3.59375 C 10.8789 -3.03711 11.1621 -2.66602 11.6797 -2.66602 Z"/>
  </g>
  <g id="" transform="matrix(1 0 0 1 304.924 1933)">
   <path d="M 14.9707 5.66406 C 21.9336 5.66406 27.6953 -0.0976562 27.6953 -7.05078 C 27.6953 -14.0137 21.9238 -19.7754 14.9609 -19.7754 C 8.00781 -19.7754 2.25586 -14.0137 2.25586 -7.05078 C 2.25586 -0.0976562 8.01758 5.66406 14.9707 5.66406 Z M 14.9707 3.84766 C 8.93555 3.84766 4.08203 -1.01562 4.08203 -7.05078 C 4.08203 -13.0957 8.92578 -17.9492 14.9609 -17.9492 C 21.0059 -17.9492 25.8594 -13.0957 25.8691 -7.05078 C 25.8789 -1.01562 21.0156 3.84766 14.9707 3.84766 Z M 14.9414 -1.38672 C 15.5176 -1.38672 15.8594 -1.77734 15.8594 -2.38281 L 15.8594 -6.13281 L 19.7754 -6.13281 C 20.3711 -6.13281 20.7812 -6.46484 20.7812 -7.02148 C 20.7812 -7.59766 20.3906 -7.93945 19.7754 -7.93945 L 15.8594 -7.93945 L 15.8594 -11.8652 C 15.8594 -12.4805 15.5176 -12.8711 14.9414 -12.8711 C 14.375 -12.8711 14.0527 -12.4609 14.0527 -11.8652 L 14.0527 -7.93945 L 10.1465 -7.93945 C 9.53125 -7.93945 9.13086 -7.59766 9.13086 -7.02148 C 9.13086 -6.46484 9.55078 -6.13281 10.1465 -6.13281 L 14.0527 -6.13281 L 14.0527 -2.38281 C 14.0527 -1.79688 14.375 -1.38672 14.9414 -1.38672 Z"/>
  </g>
  <text style="stroke:none;fill:black;font-family:-apple-system,&quot;SF Pro Display&quot;,&quot;SF Pro Text&quot;,Helvetica,sans-serif;font-weight:bold;" transform="matrix(1 0 0 1 263 1953)">Design Variations</text>
  <text style="stroke:none;fill:black;font-family:-apple-system,&quot;SF Pro Display&quot;,&quot;SF Pro Text&quot;,Helvetica,sans-serif;" transform="matrix(1 0 0 1 263 1971)">Symbols are supported in up to nine weights and three scales.</text>
  <text style="stroke:none;fill:black;font-family:-apple-system,&quot;SF Pro Display&quot;,&quot;SF Pro Text&quot;,Helvetica,sans-serif;" transform="matrix(1 0 0 1 263 1989)">For optimal layout with text and other symbols, vertically align</text>
  <text style="stroke:none;fill:black;font-family:-apple-system,&quot;SF Pro Display&quot;,&quot;SF Pro Text&quot;,Helvetica,sans-serif;" transform="matrix(1 0 0 1 263 2007)">symbols with the adjacent text.</text>
  <line id="" style="fill:none;stroke:#00AEEF;stroke-width:0.5;opacity:1.0;" x1="776" x2="776" y1="1919" y2="1933"/>
  <g id="" transform="matrix(1 0 0 1 776 1933)">
   <path d="M 3.31055 0.126953 C 3.82812 0.126953 4.08203 -0.0683594 4.26758 -0.605469 L 5.52734 -4.0625 L 11.2891 -4.0625 L 12.5488 -0.605469 C 12.7344 -0.0683594 12.9883 0.126953 13.4961 0.126953 C 14.0137 0.126953 14.3457 -0.185547 14.3457 -0.673828 C 14.3457 -0.839844 14.3164 -0.986328 14.2383 -1.20117 L 9.6582 -13.3887 C 9.43359 -13.9941 9.0332 -14.2871 8.4082 -14.2871 C 7.80273 -14.2871 7.39258 -13.9941 7.17773 -13.3984 L 2.59766 -1.19141 C 2.51953 -0.976562 2.49023 -0.830078 2.49023 -0.664062 C 2.49023 -0.175781 2.80273 0.126953 3.31055 0.126953 Z M 6.00586 -5.53711 L 8.37891 -12.1094 L 8.42773 -12.1094 L 10.8008 -5.53711 Z"/>
  </g>
  <line id="" style="fill:none;stroke:#00AEEF;stroke-width:0.5;opacity:1.0;" x1="792.836" x2="792.836" y1="1919" y2="1933"/>
  <text style="stroke:none;fill:black;font-family:-apple-system,&quot;SF Pro Display&quot;,&quot;SF Pro Text&quot;,Helvetica,sans-serif;font-weight:bold;" transform="matrix(1 0 0 1 776 1953)">Margins</text>
  <text style="stroke:none;fill:black;font-family:-apple-system,&quot;SF Pro Display&quot;,&quot;SF Pro Text&quot;,Helvetica,sans-serif;" transform="matrix(1 0 0 1 776 1971)">Leading and trailing margins on the left and right side of each symbol</text>
  <text style="stroke:none;fill:black;font-family:-apple-system,&quot;SF Pro Display&quot;,&quot;SF Pro Text&quot;,Helvetica,sans-serif;" transform="matrix(1 0 0 1 776 1989)">can be adjusted by modifying the x-location of the margin guidelines.</text>
  <text style="stroke:none;fill:black;font-family:-apple-system,&quot;SF Pro Display&quot;,&quot;SF Pro Text&quot;,Helvetica,sans-serif;" transform="matrix(1 0 0 1 776 2007)">Modifications are automatically applied proportionally to all</text>
  <text style="stroke:none;fill:black;font-family:-apple-system,&quot;SF Pro Display&quot;,&quot;SF Pro Text&quot;,Helvetica,sans-serif;" transform="matrix(1 0 0 1 776 2025)">scales and weights.</text>
  <g id="" transform="matrix(1 0 0 1 1289 1933)">
   <path d="M 2.8418 1.86523 L 4.54102 3.57422 C 5.40039 4.44336 6.38672 4.38477 7.31445 3.35938 L 17.4902 -7.85156 C 17.7539 -7.76367 18.0273 -7.7832 18.3398 -7.8418 L 19.4043 -8.03711 L 20.0684 -7.36328 L 20.0293 -6.80664 C 19.9902 -6.30859 20.1172 -5.92773 20.6055 -5.44922 L 21.3672 -4.70703 C 21.8457 -4.22852 22.4609 -4.19922 22.9297 -4.66797 L 25.8398 -7.58789 C 26.3086 -8.05664 26.2891 -8.65234 25.8105 -9.13086 L 25.0391 -9.89258 C 24.5605 -10.3711 24.1895 -10.5273 23.7109 -10.4883 L 23.1348 -10.4395 L 22.4902 -11.0742 L 22.7344 -12.1973 C 22.8613 -12.7637 22.7051 -13.2031 22.1191 -13.7891 L 19.9219 -15.9766 C 16.582 -19.2969 12.1484 -19.2188 9.25781 -16.3281 C 8.83789 -15.918 8.80859 -15.3418 9.04297 -14.9512 C 9.27734 -14.5898 9.73633 -14.3555 10.3809 -14.5215 C 11.8457 -14.8633 13.3691 -14.9219 14.7949 -13.9844 L 14.209 -12.5293 C 14.0137 -12.0508 13.9844 -11.6504 14.1113 -11.2891 L 3.04688 -0.898438 C 2.06055 0.0195312 1.98242 0.996094 2.8418 1.86523 Z M 10.752 -15.957 C 13.1836 -17.7344 16.4746 -17.4316 18.7012 -15.2051 L 21.1328 -12.793 C 21.3672 -12.5586 21.4062 -12.373 21.3379 -12.0312 L 21.0156 -10.5469 L 22.5195 -9.0625 L 23.5059 -9.12109 C 23.7598 -9.13086 23.8379 -9.11133 24.0332 -8.91602 L 24.6094 -8.33984 L 22.168 -5.89844 L 21.5918 -6.47461 C 21.3965 -6.66992 21.3672 -6.74805 21.377 -7.01172 L 21.4453 -7.98828 L 19.9512 -9.47266 L 18.4277 -9.21875 C 18.1055 -9.15039 17.959 -9.17969 17.7148 -9.41406 L 15.7129 -11.416 C 15.459 -11.6504 15.4297 -11.8164 15.5859 -12.1875 L 16.4648 -14.2773 C 14.9023 -15.7324 12.8711 -16.3574 10.8398 -15.7617 C 10.6836 -15.7227 10.625 -15.8496 10.752 -15.957 Z M 5.27344 2.30469 L 4.10156 1.14258 C 3.63281 0.683594 3.74023 0.341797 4.14062 -0.0195312 L 14.9512 -10.1953 L 16.416 -8.71094 L 6.42578 2.27539 C 6.07422 2.67578 5.74219 2.77344 5.27344 2.30469 Z"/>
  </g>
  <text style="stroke:none;fill:black;font-family:-apple-system,&quot;SF Pro Display&quot;,&quot;SF Pro Text&quot;,Helvetica,sans-serif;font-weight:bold;" transform="matrix(1 0 0 1 1289 1953)">Exporting</text>
  <text style="stroke:none;fill:black;font-family:-apple-system,&quot;SF Pro Display&quot;,&quot;SF Pro Text&quot;,Helvetica,sans-serif;" transform="matrix(1 0 0 1 1289 1971)">Symbols should be outlined when exporting to ensure the</text>
  <text style="stroke:none;fill:black;font-family:-apple-system,&quot;SF Pro Display&quot;,&quot;SF Pro Text&quot;,Helvetica,sans-serif;" transform="matrix(1 0 0 1 1289 1989)">design is preserved when submitting to Xcode.</text>
  <text id="template-version" style="stroke:none;fill:black;font-family:-apple-system,&quot;SF Pro Display&quot;,&quot;SF Pro Text&quot;,Helvetica,sans-serif;text-anchor:end;" transform="matrix(1 0 0 1 3036 1933)">Template v.2.0</text>
  <text style="stroke:none;fill:black;font-family:-apple-system,&quot;SF Pro Display&quot;,&quot;SF Pro Text&quot;,Helvetica,sans-serif;text-anchor:end;" transform="matrix(1 0 0 1 3036 1951)">Requires Xcode 12 or greater</text>
  <text style="stroke:none;fill:black;font-family:-apple-system,&quot;SF Pro Display&quot;,&quot;SF Pro Text&quot;,Helvetica,sans-serif;text-anchor:end;" transform="matrix(1 0 0 1 3036 1969)">Generated from eye</text>
  <text style="stroke:none;fill:black;font-family:-apple-system,&quot;SF Pro Display&quot;,&quot;SF Pro Text&quot;,Helvetica,sans-serif;text-anchor:end;" transform="matrix(1 0 0 1 3036 1987)">Typeset at 100 points</text>
  <text style="stroke:none;fill:black;font-family:-apple-system,&quot;SF Pro Display&quot;,&quot;SF Pro Text&quot;,Helvetica,sans-serif;" transform="matrix(1 0 0 1 263 726)">Small</text>
  <text style="stroke:none;fill:black;font-family:-apple-system,&quot;SF Pro Display&quot;,&quot;SF Pro Text&quot;,Helvetica,sans-serif;" transform="matrix(1 0 0 1 263 1156)">Medium</text>
  <text style="stroke:none;fill:black;font-family:-apple-system,&quot;SF Pro Display&quot;,&quot;SF Pro Text&quot;,Helvetica,sans-serif;" transform="matrix(1 0 0 1 263 1586)">Large</text>
 </g>
 <g id="Guides">
  <g id="H-reference" style="fill:#27AAE1;stroke:none;" transform="matrix(1 0 0 1 339 696)">
   <path d="M 0.976562 0 L 3.66211 0 L 12.9883 -24.4629 L 45.7031 -24.4629 L 55.0781 0 L 57.7148 0 L 30.6152 -70.459 L 28.125 -70.459 Z M 29.2969 -67.1387 L 29.3945 -67.1387 L 44.873 -26.709 L 13.8672 -26.709 Z"/>
  </g>
  <line id="Baseline-S" style="fill:none;stroke:#27AAE1;opacity:1;stroke-width:0.5;" x1="263" x2="3036" y1="696" y2="696"/>
  <line id="Capline-S" style="fill:none;stroke:#27AAE1;opacity:1;stroke-width:0.5;" x1="263" x2="3036" y1="625.541" y2="625.541"/>
  <g id="H-reference" style="fill:#27AAE1;stroke:none;" transform="matrix(1 0 0 1 339 1126)">
   <path d="M 0.976562 0 L 3.66211 0 L 12.9883 -24.4629 L 45.7031 -24.4629 L 55.0781 0 L 57.7148 0 L 30.6152 -70.459 L 28.125 -70.459 Z M 29.2969 -67.1387 L 29.3945 -67.1387 L 44.873 -26.709 L 13.8672 -26.709 Z"/>
  </g>
  <line id="Baseline-M" style="fill:none;stroke:#27AAE1;opacity:1;stroke-width:0.5;" x1="263" x2="3036" y1="1126" y2="1126"/>
  <line id="Capline-M" style="fill:none;stroke:#27AAE1;opacity:1;stroke-width:0.5;" x1="263" x2="3036" y1="1055.54" y2="1055.54"/>
  <g id="H-reference" style="fill:#27AAE1;stroke:none;" transform="matrix(1 0 0 1 339 1556)">
   <path d="M 0.976562 0 L 3.66211 0 L 12.9883 -24.4629 L 45.7031 -24.4629 L 55.0781 0 L 57.7148 0 L 30.6152 -70.459 L 28.125 -70.459 Z M 29.2969 -67.1387 L 29.3945 -67.1387 L 44.873 -26.709 L 13.8672 -26.709 Z"/>
  </g>
  <line id="Baseline-L" style="fill:none;stroke:#27AAE1;opacity:1;stroke-width:0.5;" x1="263" x2="3036" y1="1556" y2="1556"/>
  <line id="Capline-L" style="fill:none;stroke:#27AAE1;opacity:1;stroke-width:0.5;" x1="263" x2="3036" y1="1485.54" y2="1485.54"/>
  <line id="left-margin" style="fill:none;stroke:#00AEEF;stroke-width:0.5;opacity:1.0;" x1="1373.16" x2="1373.16" y1="1030.79" y2="1150.12"/>
  <line id="right-margin" style="fill:none;stroke:#00AEEF;stroke-width:0.5;opacity:1.0;" x1="1526.53" x2="1526.53" y1="1030.79" y2="1150.12"/>
 </g>
 <g id="Symbols">
  <g id="Black-L" transform="matrix(1 0 0 1 2832.11 1556)">
   <path d="M 101.27 21.2891 C 155.664 21.2891 189.697 -22.1191 189.697 -35.1074 C 189.697 -48.1445 155.664 -91.5039 101.27 -91.5039 C 47.8027 -91.5039 12.8906 -48.1445 12.8906 -35.1074 C 12.8906 -22.1191 47.8027 21.2891 101.27 21.2891 Z M 101.27 1.5625 C 65.332 1.5625 38.623 -26.7578 38.623 -35.1074 C 38.623 -41.8945 65.332 -71.7773 101.27 -71.7773 C 137.158 -71.7773 163.965 -41.8945 163.965 -35.1074 C 163.965 -26.7578 137.158 1.5625 101.27 1.5625 Z M 101.318 -5.66406 C 117.773 -5.66406 130.762 -19.1406 130.762 -35.1074 C 130.762 -51.4648 117.773 -64.502 101.318 -64.502 C 84.9609 -64.502 71.8262 -51.5137 71.8262 -35.1074 C 71.875 -19.1406 84.9609 -5.66406 101.318 -5.66406 Z M 101.221 -26.5137 C 96.4844 -26.5137 92.7246 -30.4688 92.7246 -35.1074 C 92.7246 -39.8438 96.4844 -43.7012 101.221 -43.7012 C 106.006 -43.7012 109.863 -39.8438 109.863 -35.1074 C 109.863 -30.4688 106.006 -26.5137 101.221 -26.5137 Z"/>
  </g>
  <g id="Heavy-L" transform="matrix(1 0 0 1 2536.15 1556)">
   <path d="M 100.537 20.6055 C 153.906 20.6055 188.184 -22.168 188.184 -35.1562 C 188.184 -48.0957 153.857 -90.8691 100.537 -90.8691 C 47.998 -90.8691 12.8906 -48.0957 12.8906 -35.1562 C 12.8906 -22.168 47.9492 20.6055 100.537 20.6055 Z M 100.537 3.51562 C 63.0859 3.51562 34.8145 -26.6113 34.8145 -35.1562 C 34.8145 -42.2363 63.0859 -73.7793 100.537 -73.7793 C 137.891 -73.7793 166.26 -42.2363 166.26 -35.1562 C 166.26 -26.6113 137.891 3.51562 100.537 3.51562 Z M 100.586 -4.29688 C 117.725 -4.29688 131.396 -18.4082 131.396 -35.1562 C 131.396 -52.2949 117.725 -65.8691 100.586 -65.8691 C 83.3984 -65.8691 69.6289 -52.2949 69.6777 -35.1562 C 69.7266 -18.4082 83.3984 -4.29688 100.586 -4.29688 Z M 100.488 -25.8789 C 95.3613 -25.8789 91.2598 -30.127 91.2598 -35.1562 C 91.2598 -40.2344 95.3613 -44.3848 100.488 -44.3848 C 105.615 -44.3848 109.766 -40.2344 109.766 -35.1562 C 109.766 -30.127 105.615 -25.8789 100.488 -25.8789 Z"/>
  </g>
  <g id="Bold-L" transform="matrix(1 0 0 1 2240.32 1556)">
   <path d="M 99.6582 19.873 C 151.953 19.873 186.426 -22.2656 186.426 -35.1562 C 186.426 -48.0469 151.855 -90.1855 99.6582 -90.1855 C 48.1934 -90.1855 12.8906 -48.0469 12.8906 -35.1562 C 12.8906 -22.2656 48.0957 19.873 99.6582 19.873 Z M 99.6582 5.66406 C 60.5469 5.66406 30.5176 -26.416 30.5176 -35.1562 C 30.5176 -42.5781 60.5469 -75.9766 99.6582 -75.9766 C 138.721 -75.9766 168.799 -42.5781 168.799 -35.1562 C 168.799 -26.416 138.721 5.66406 99.6582 5.66406 Z M 99.707 -2.7832 C 117.676 -2.7832 132.08 -17.5781 132.08 -35.1562 C 132.08 -53.1738 117.676 -67.4316 99.707 -67.4316 C 81.6406 -67.4316 67.1875 -53.2227 67.2363 -35.1562 C 67.2852 -17.5781 81.6406 -2.7832 99.707 -2.7832 Z M 99.6582 -25.1465 C 94.0918 -25.1465 89.5996 -29.6875 89.5996 -35.1562 C 89.5996 -40.6738 94.0918 -45.166 99.6582 -45.166 C 105.225 -45.166 109.717 -40.6738 109.717 -35.1562 C 109.717 -29.6875 105.225 -25.1465 99.6582 -25.1465 Z"/>
  </g>
  <g id="Semibold-L" transform="matrix(1 0 0 1 1944.19 1556)">
   <path d="M 99.0723 19.3359 C 150.586 19.3359 185.254 -22.3633 185.254 -35.1562 C 185.254 -47.998 150.439 -89.6973 99.0723 -89.6973 C 48.3398 -89.6973 12.8906 -47.998 12.8906 -35.1562 C 12.8906 -22.3633 48.2422 19.3359 99.0723 19.3359 Z M 99.0723 7.17773 C 58.7891 7.17773 27.5879 -26.3184 27.5879 -35.1562 C 27.5879 -42.7734 58.7891 -77.5391 99.0723 -77.5391 C 139.307 -77.5391 170.557 -42.7734 170.557 -35.1562 C 170.557 -26.3184 139.307 7.17773 99.0723 7.17773 Z M 99.1211 -1.75781 C 117.627 -1.75781 132.568 -16.9922 132.568 -35.1562 C 132.568 -53.8086 117.627 -68.5547 99.1211 -68.5547 C 80.4688 -68.5547 65.5273 -53.8086 65.5762 -35.1562 C 65.6738 -16.9922 80.4688 -1.75781 99.1211 -1.75781 Z M 99.0723 -24.6582 C 93.2129 -24.6582 88.4766 -29.4434 88.4766 -35.1562 C 88.4766 -40.9668 93.2129 -45.7031 99.0723 -45.7031 C 104.932 -45.7031 109.668 -40.9668 109.668 -35.1562 C 109.668 -29.4434 104.932 -24.6582 99.0723 -24.6582 Z"/>
  </g>
  <g id="Medium-L" transform="matrix(1 0 0 1 1647.95 1556)">
   <path d="M 98.6328 18.9453 C 149.512 18.9453 184.326 -22.4121 184.326 -35.1562 C 184.326 -47.998 149.414 -89.3066 98.6328 -89.3066 C 48.4375 -89.3066 12.8906 -47.998 12.8906 -35.1562 C 12.8906 -22.4121 48.291 18.9453 98.6328 18.9453 Z M 98.6328 8.30078 C 57.4219 8.30078 25.3418 -26.2207 25.3418 -35.1562 C 25.3418 -42.9688 57.4219 -78.7109 98.6328 -78.7109 C 139.746 -78.7109 171.875 -42.9688 171.875 -35.1562 C 171.875 -26.2207 139.746 8.30078 98.6328 8.30078 Z M 98.6328 -0.976562 C 117.627 -0.976562 132.91 -16.5527 132.91 -35.1562 C 132.91 -54.248 117.627 -69.3359 98.6328 -69.3359 C 79.541 -69.3359 64.2578 -54.2969 64.3066 -35.1562 C 64.4043 -16.5527 79.541 -0.976562 98.6328 -0.976562 Z M 98.6328 -24.3164 C 92.5781 -24.3164 87.6465 -29.1992 87.6465 -35.1562 C 87.6465 -41.2109 92.5781 -46.0938 98.6328 -46.0938 C 104.688 -46.0938 109.619 -41.2109 109.619 -35.1562 C 109.619 -29.1992 104.688 -24.3164 98.6328 -24.3164 Z"/>
  </g>
  <g id="Regular-L" transform="matrix(1 0 0 1 1351.82 1556)">
   <path d="M 98.0469 18.457 C 148.193 18.457 183.154 -22.4609 183.154 -35.2051 C 183.154 -47.9492 147.998 -88.8184 98.0469 -88.8184 C 48.584 -88.8184 12.8906 -47.9492 12.8906 -35.2051 C 12.8906 -22.4609 48.4375 18.457 98.0469 18.457 Z M 98.0469 9.81445 C 55.7129 9.81445 22.4121 -26.0742 22.4121 -35.2051 C 22.4121 -43.2129 55.7129 -80.2246 98.0469 -80.2246 C 140.332 -80.2246 173.633 -43.2129 173.633 -35.2051 C 173.633 -26.0742 140.332 9.81445 98.0469 9.81445 Z M 98.0469 0.0488281 C 117.578 0.0488281 133.398 -16.0156 133.398 -35.2051 C 133.398 -54.8828 117.578 -70.4102 98.0469 -70.4102 C 78.3691 -70.4102 62.5488 -54.8828 62.6465 -35.2051 C 62.7441 -16.0156 78.3691 0.0488281 98.0469 0.0488281 Z M 98.0957 -23.8281 C 91.6992 -23.8281 86.5234 -28.9551 86.5234 -35.2051 C 86.5234 -41.5039 91.6992 -46.6309 98.0957 -46.6309 C 104.395 -46.6309 109.57 -41.5039 109.57 -35.2051 C 109.57 -28.9551 104.395 -23.8281 98.0957 -23.8281 Z"/>
  </g>
  <g id="Light-L" transform="matrix(1 0 0 1 1056.38 1556)">
   <path d="M 96.7773 17.9688 C 145.801 17.9688 180.615 -22.6562 180.615 -35.2051 C 180.615 -47.7539 145.557 -88.3301 96.7773 -88.3301 C 48.291 -88.3301 12.8906 -47.7539 12.8906 -35.2051 C 12.8906 -22.6562 48.0469 17.9688 96.7773 17.9688 Z M 96.7773 11.1328 C 53.2227 11.1328 20.4102 -25.7812 20.4102 -35.2051 C 20.4102 -43.8965 53.2227 -81.543 96.7773 -81.543 C 140.234 -81.543 173.096 -43.8965 173.096 -35.2051 C 173.096 -25.7812 140.234 11.1328 96.7773 11.1328 Z M 96.7773 0 C 116.162 0 132.08 -16.0156 132.08 -35.2051 C 132.08 -54.834 116.162 -70.4102 96.7773 -70.4102 C 77.1484 -70.4102 61.3281 -54.834 61.377 -35.2051 C 61.5234 -16.0156 77.1484 0 96.7773 0 Z M 96.8262 -24.2188 C 90.6738 -24.2188 85.6445 -29.1504 85.6445 -35.2051 C 85.6445 -41.3086 90.6738 -46.1914 96.8262 -46.1914 C 102.881 -46.1914 107.861 -41.3086 107.861 -35.2051 C 107.861 -29.1504 102.881 -24.2188 96.8262 -24.2188 Z"/>
  </g>
  <g id="Thin-L" transform="matrix(1 0 0 1 761.378 1556)">
   <path d="M 95.0684 17.334 C 142.627 17.334 177.197 -22.9004 177.197 -35.2051 C 177.197 -47.4609 142.285 -87.6953 95.0684 -87.6953 C 47.9004 -87.6953 12.8906 -47.4609 12.8906 -35.2051 C 12.8906 -22.9004 47.5098 17.334 95.0684 17.334 Z M 95.0684 12.8418 C 49.9512 12.8418 17.7246 -25.3906 17.7246 -35.2051 C 17.7246 -44.8242 49.9512 -83.3008 95.0684 -83.3008 C 140.137 -83.3008 172.412 -44.8242 172.412 -35.2051 C 172.412 -25.3906 140.137 12.8418 95.0684 12.8418 Z M 95.0684 -0.0488281 C 114.307 -0.0488281 130.371 -16.0645 130.371 -35.2051 C 130.371 -54.7363 114.307 -70.3613 95.0684 -70.3613 C 75.4883 -70.3613 59.668 -54.7363 59.7168 -35.2051 C 59.8633 -16.0645 75.4883 -0.0488281 95.0684 -0.0488281 Z M 95.1172 -24.7559 C 89.2578 -24.7559 84.4727 -29.3945 84.4727 -35.2051 C 84.4727 -41.0645 89.2578 -45.6543 95.1172 -45.6543 C 100.928 -45.6543 105.664 -41.0645 105.664 -35.2051 C 105.664 -29.3945 100.928 -24.7559 95.1172 -24.7559 Z"/>
  </g>
  <g id="Ultralight-L" transform="matrix(1 0 0 1 465.546 1556)">
   <path d="M 94.1895 16.9922 C 141.016 16.9922 175.439 -23.0469 175.439 -35.2051 C 175.439 -47.3633 140.576 -87.4023 94.1895 -87.4023 C 47.7051 -87.4023 12.8906 -47.3633 12.8906 -35.2051 C 12.8906 -23.0469 47.2656 16.9922 94.1895 16.9922 Z M 94.1895 13.7207 C 48.291 13.7207 16.3086 -25.1953 16.3086 -35.2051 C 16.3086 -45.3125 48.291 -84.1797 94.1895 -84.1797 C 140.088 -84.1797 172.021 -45.3125 172.021 -35.2051 C 172.021 -25.1953 140.088 13.7207 94.1895 13.7207 Z M 94.1895 -0.0488281 C 113.379 -0.0488281 129.492 -16.0645 129.492 -35.2051 C 129.492 -54.7363 113.379 -70.3125 94.1895 -70.3125 C 74.6582 -70.3125 58.7891 -54.7363 58.8867 -35.2051 C 59.0332 -16.0645 74.6582 -0.0488281 94.1895 -0.0488281 Z M 94.2383 -25.0488 C 88.5254 -25.0488 83.8379 -29.541 83.8379 -35.2051 C 83.8379 -40.918 88.5254 -45.3613 94.2383 -45.3613 C 99.9023 -45.3613 104.492 -40.918 104.492 -35.2051 C 104.492 -29.541 99.9023 -25.0488 94.2383 -25.0488 Z"/>
  </g>
  <g id="Black-M" transform="matrix(1 0 0 1 2854.57 1126)">
   <path d="M 78.8086 9.22852 C 121.729 9.22852 147.705 -25.0488 147.705 -35.1562 C 147.705 -45.166 121.729 -79.4434 78.8086 -79.4434 C 36.6211 -79.4434 9.96094 -45.166 9.96094 -35.1562 C 9.96094 -25.0488 36.6211 9.22852 78.8086 9.22852 Z M 78.8086 -8.64258 C 52.3438 -8.64258 33.9844 -28.7109 33.9844 -35.1562 C 33.9844 -40.3809 52.3438 -61.5723 78.8086 -61.5723 C 105.225 -61.5723 123.682 -40.3809 123.682 -35.1562 C 123.682 -28.7109 105.225 -8.64258 78.8086 -8.64258 Z M 78.8574 -14.1602 C 90.5762 -14.1602 99.7559 -23.7305 99.7559 -35.1562 C 99.7559 -46.6797 90.5762 -56.0059 78.8574 -56.0059 C 67.2363 -56.0059 57.9102 -46.7773 57.9102 -35.1562 C 57.8613 -23.7305 67.2363 -14.1602 78.8574 -14.1602 Z M 78.7109 -29.541 C 75.7324 -29.541 73.3398 -32.1289 73.3398 -35.1562 C 73.3398 -38.1348 75.7324 -40.6738 78.7109 -40.6738 C 81.8359 -40.6738 84.3262 -38.1348 84.3262 -35.1562 C 84.3262 -32.1289 81.8359 -29.541 78.7109 -29.541 Z"/>
  </g>
  <g id="Heavy-M" transform="matrix(1 0 0 1 2558.37 1126)">
   <path d="M 78.3203 8.64258 C 120.41 8.64258 146.68 -25.0977 146.68 -35.1562 C 146.68 -45.166 120.41 -78.8574 78.3203 -78.8574 C 36.8652 -78.8574 9.96094 -45.166 9.96094 -35.1562 C 9.96094 -25.0977 36.8652 8.64258 78.3203 8.64258 Z M 78.3203 -6.83594 C 50.5371 -6.83594 30.3223 -28.6133 30.3223 -35.1562 C 30.3223 -40.5273 50.5371 -63.4277 78.3203 -63.4277 C 106.055 -63.4277 126.318 -40.5273 126.318 -35.1562 C 126.318 -28.6133 106.055 -6.83594 78.3203 -6.83594 Z M 78.3691 -12.6953 C 90.8691 -12.6953 100.781 -22.9492 100.781 -35.1562 C 100.781 -47.6074 90.8691 -57.5195 78.3691 -57.5195 C 65.8691 -57.5195 55.8105 -47.6562 55.8594 -35.1562 C 55.8594 -22.9492 65.8691 -12.6953 78.3691 -12.6953 Z M 78.2715 -28.7598 C 74.7559 -28.7598 71.9727 -31.6895 71.9727 -35.1562 C 71.9727 -38.623 74.7559 -41.5039 78.2715 -41.5039 C 81.8359 -41.5039 84.668 -38.623 84.668 -35.1562 C 84.668 -31.6895 81.8359 -28.7598 78.2715 -28.7598 Z"/>
  </g>
  <g id="Bold-M" transform="matrix(1 0 0 1 2262.22 1126)">
   <path d="M 77.7344 7.95898 C 118.945 7.95898 145.557 -25.1465 145.557 -35.1562 C 145.557 -45.166 118.896 -78.2227 77.7344 -78.2227 C 37.207 -78.2227 9.96094 -45.166 9.96094 -35.1562 C 9.96094 -25.1465 37.1582 7.95898 77.7344 7.95898 Z M 77.7344 -4.83398 C 48.4375 -4.83398 26.2207 -28.5156 26.2207 -35.1562 C 26.2207 -40.6738 48.4375 -65.4785 77.7344 -65.4785 C 106.982 -65.4785 129.248 -40.6738 129.248 -35.1562 C 129.248 -28.5156 106.982 -4.83398 77.7344 -4.83398 Z M 77.7832 -11.0352 C 91.2109 -11.0352 101.953 -22.0215 101.953 -35.1562 C 101.953 -48.584 91.2109 -59.2773 77.7832 -59.2773 C 64.3066 -59.2773 53.5156 -48.6328 53.5645 -35.1562 C 53.6133 -22.0215 64.3066 -11.0352 77.7832 -11.0352 Z M 77.7344 -27.832 C 73.6816 -27.832 70.4102 -31.2012 70.4102 -35.1562 C 70.4102 -39.1602 73.6816 -42.4805 77.7344 -42.4805 C 81.7871 -42.4805 85.0586 -39.1602 85.0586 -35.1562 C 85.0586 -31.2012 81.7871 -27.832 77.7344 -27.832 Z"/>
  </g>
  <g id="Semibold-M" transform="matrix(1 0 0 1 1965.9 1126)">
   <path d="M 77.3438 7.4707 C 117.92 7.4707 144.775 -25.1953 144.775 -35.1562 C 144.775 -45.2148 117.871 -77.7832 77.3438 -77.7832 C 37.4023 -77.7832 9.96094 -45.2148 9.96094 -35.1562 C 9.96094 -25.1953 37.3535 7.4707 77.3438 7.4707 Z M 77.3438 -3.4668 C 47.0215 -3.4668 23.4375 -28.4668 23.4375 -35.1562 C 23.4375 -40.8203 47.0215 -66.8457 77.3438 -66.8457 C 107.617 -66.8457 131.299 -40.8203 131.299 -35.1562 C 131.299 -28.4668 107.617 -3.4668 77.3438 -3.4668 Z M 77.3926 -9.86328 C 91.4551 -9.86328 102.734 -21.3867 102.734 -35.1562 C 102.734 -49.2676 91.4551 -60.4492 77.3926 -60.4492 C 63.2812 -60.4492 51.9531 -49.3164 52.002 -35.1562 C 52.0508 -21.3867 63.2812 -9.86328 77.3926 -9.86328 Z M 77.3438 -27.2461 C 72.9492 -27.2461 69.3848 -30.8594 69.3848 -35.1562 C 69.3848 -39.5508 72.9492 -43.1152 77.3438 -43.1152 C 81.7871 -43.1152 85.3516 -39.5508 85.3516 -35.1562 C 85.3516 -30.8594 81.7871 -27.2461 77.3438 -27.2461 Z"/>
  </g>
  <g id="Medium-M" transform="matrix(1 0 0 1 1669.5 1126)">
   <path d="M 77.0996 7.12891 C 117.188 7.12891 144.141 -25.1953 144.141 -35.2051 C 144.141 -45.2148 117.09 -77.4902 77.0996 -77.4902 C 37.5977 -77.4902 9.96094 -45.2148 9.96094 -35.2051 C 9.96094 -25.1953 37.5 7.12891 77.0996 7.12891 Z M 77.0996 -2.44141 C 45.9473 -2.44141 21.2891 -28.3691 21.2891 -35.2051 C 21.2891 -40.918 45.9473 -67.9199 77.0996 -67.9199 C 108.105 -67.9199 132.812 -40.918 132.812 -35.2051 C 132.812 -28.3691 108.105 -2.44141 77.0996 -2.44141 Z M 77.0996 -8.98438 C 91.6504 -8.98438 103.32 -20.9473 103.32 -35.2051 C 103.32 -49.8047 91.6504 -61.377 77.0996 -61.377 C 62.4512 -61.377 50.7324 -49.8047 50.7812 -35.2051 C 50.8789 -20.9473 62.4512 -8.98438 77.0996 -8.98438 Z M 77.0508 -26.7578 C 72.3633 -26.7578 68.5547 -30.5664 68.5547 -35.2051 C 68.5547 -39.8438 72.3633 -43.6523 77.0508 -43.6523 C 81.7383 -43.6523 85.5469 -39.8438 85.5469 -35.2051 C 85.5469 -30.5664 81.7383 -26.7578 77.0508 -26.7578 Z"/>
  </g>
  <g id="Regular-M" transform="matrix(1 0 0 1 1373.16 1126)">
   <path d="M 76.709 6.64062 C 116.162 6.64062 143.408 -25.2441 143.408 -35.2051 C 143.408 -45.2148 116.113 -77.0508 76.709 -77.0508 C 37.793 -77.0508 9.96094 -45.2148 9.96094 -35.2051 C 9.96094 -25.2441 37.7441 6.64062 76.709 6.64062 Z M 76.709 -1.07422 C 44.5312 -1.07422 18.5059 -28.3203 18.5059 -35.2051 C 18.5059 -41.0156 44.5312 -69.3359 76.709 -69.3359 C 108.74 -69.3359 134.863 -41.0156 134.863 -35.2051 C 134.863 -28.3203 108.74 -1.07422 76.709 -1.07422 Z M 76.709 -7.86133 C 91.8945 -7.86133 104.102 -20.3125 104.102 -35.2051 C 104.102 -50.4883 91.8945 -62.5488 76.709 -62.5488 C 61.4258 -62.5488 49.1699 -50.4883 49.2188 -35.2051 C 49.3164 -20.3125 61.4258 -7.86133 76.709 -7.86133 Z M 76.709 -26.123 C 71.6309 -26.123 67.5293 -30.2246 67.5293 -35.2051 C 67.5293 -40.2344 71.6309 -44.2871 76.709 -44.2871 C 81.7383 -44.2871 85.8398 -40.2344 85.8398 -35.2051 C 85.8398 -30.2246 81.7383 -26.123 76.709 -26.123 Z"/>
  </g>
  <g id="Light-M" transform="matrix(1 0 0 1 1077.62 1126)">
   <path d="M 75.5371 6.20117 C 114.014 6.20117 141.064 -25.3906 141.064 -35.2051 C 141.064 -45.0195 113.867 -76.6113 75.5371 -76.6113 C 37.5488 -76.6113 9.96094 -45.0195 9.96094 -35.2051 C 9.96094 -25.3906 37.3535 6.20117 75.5371 6.20117 Z M 75.5371 0.0976562 C 42.334 0.0976562 16.6992 -28.0273 16.6992 -35.2051 C 16.6992 -41.6504 42.334 -70.5078 75.5371 -70.5078 C 108.691 -70.5078 134.375 -41.6504 134.375 -35.2051 C 134.375 -28.0273 108.691 0.0976562 75.5371 0.0976562 Z M 75.5371 -7.91016 C 90.625 -7.91016 102.93 -20.3125 102.93 -35.2051 C 102.93 -50.4395 90.625 -62.5 75.5371 -62.5 C 60.3027 -62.5 48.0469 -50.4395 48.0957 -35.2051 C 48.1934 -20.3125 60.3027 -7.91016 75.5371 -7.91016 Z M 75.5859 -26.5137 C 70.7031 -26.5137 66.748 -30.4199 66.748 -35.2051 C 66.748 -40.0391 70.7031 -43.8965 75.5859 -43.8965 C 80.3711 -43.8965 84.3262 -40.0391 84.3262 -35.2051 C 84.3262 -30.4199 80.3711 -26.5137 75.5859 -26.5137 Z"/>
  </g>
  <g id="Thin-M" transform="matrix(1 0 0 1 782.423 1126)">
   <path d="M 74.0234 5.66406 C 111.182 5.66406 138.037 -25.6348 138.037 -35.2051 C 138.037 -44.7754 110.938 -76.0254 74.0234 -76.0254 C 37.1582 -76.0254 9.96094 -44.7754 9.96094 -35.2051 C 9.96094 -25.6348 36.9141 5.66406 74.0234 5.66406 Z M 74.0234 1.66016 C 39.4043 1.66016 14.2578 -27.6855 14.2578 -35.2051 C 14.2578 -42.4805 39.4043 -72.1191 74.0234 -72.1191 C 108.594 -72.1191 133.74 -42.4805 133.74 -35.2051 C 133.74 -27.6855 108.594 1.66016 74.0234 1.66016 Z M 74.0234 -7.95898 C 88.9648 -7.95898 101.367 -20.3613 101.367 -35.2051 C 101.367 -50.3906 88.9648 -62.4512 74.0234 -62.4512 C 58.8379 -62.4512 46.582 -50.3906 46.6309 -35.2051 C 46.7285 -20.3613 58.8379 -7.95898 74.0234 -7.95898 Z M 74.0723 -27.002 C 69.4336 -27.002 65.6738 -30.6641 65.6738 -35.2051 C 65.6738 -39.7949 69.4336 -43.4082 74.0723 -43.4082 C 78.6133 -43.4082 82.3242 -39.7949 82.3242 -35.2051 C 82.3242 -30.6641 78.6133 -27.002 74.0723 -27.002 Z"/>
  </g>
  <g id="Ultralight-M" transform="matrix(1 0 0 1 486.493 1126)">
   <path d="M 73.2422 5.37109 C 109.766 5.37109 136.475 -25.7324 136.475 -35.2051 C 136.475 -44.6777 109.424 -75.7324 73.2422 -75.7324 C 37.0117 -75.7324 9.96094 -44.6777 9.96094 -35.2051 C 9.96094 -25.7324 36.6699 5.37109 73.2422 5.37109 Z M 73.2422 2.44141 C 37.8906 2.44141 13.0371 -27.5391 13.0371 -35.2051 C 13.0371 -42.9199 37.8906 -72.9004 73.2422 -72.9004 C 108.545 -72.9004 133.398 -42.9199 133.398 -35.2051 C 133.398 -27.5391 108.545 2.44141 73.2422 2.44141 Z M 73.2422 -7.95898 C 88.0859 -7.95898 100.586 -20.3613 100.586 -35.2051 C 100.586 -50.3418 88.0859 -62.4512 73.2422 -62.4512 C 58.0566 -62.4512 45.8008 -50.3418 45.8496 -35.2051 C 45.9961 -20.3613 58.0566 -7.95898 73.2422 -7.95898 Z M 73.291 -27.2461 C 68.7988 -27.2461 65.1367 -30.7617 65.1367 -35.2051 C 65.1367 -39.6973 68.7988 -43.1641 73.291 -43.1641 C 77.6855 -43.1641 81.2988 -39.6973 81.2988 -35.2051 C 81.2988 -30.7617 77.6855 -27.2461 73.291 -27.2461 Z"/>
  </g>
  <g id="Black-S" transform="matrix(1 0 0 1 2871.66 696)">
   <path d="M 61.7188 -0.439453 C 95.3125 -0.439453 115.674 -27.2461 115.674 -35.1562 C 115.674 -43.0176 95.3125 -69.8242 61.7188 -69.8242 C 28.7109 -69.8242 7.8125 -43.0176 7.8125 -35.1562 C 7.8125 -27.2461 28.7109 -0.439453 61.7188 -0.439453 Z M 61.7188 -14.2578 C 40.918 -14.2578 26.3672 -30.127 26.3672 -35.1562 C 26.3672 -39.2578 40.918 -56.0059 61.7188 -56.0059 C 82.5195 -56.0059 97.1191 -39.2578 97.1191 -35.1562 C 97.1191 -30.127 82.5195 -14.2578 61.7188 -14.2578 Z M 61.7676 -18.6035 C 70.9961 -18.6035 78.2715 -26.1719 78.2715 -35.1562 C 78.2715 -44.2871 70.9961 -51.6113 61.7676 -51.6113 C 52.5879 -51.6113 45.2148 -44.3359 45.2148 -35.1562 C 45.2148 -26.1719 52.5879 -18.6035 61.7676 -18.6035 Z M 61.6699 -30.7129 C 59.2773 -30.7129 57.373 -32.7637 57.373 -35.1562 C 57.373 -37.5488 59.2773 -39.5508 61.6699 -39.5508 C 64.1602 -39.5508 66.1133 -37.5488 66.1133 -35.1562 C 66.1133 -32.7637 64.1602 -30.7129 61.6699 -30.7129 Z"/>
  </g>
  <g id="Heavy-S" transform="matrix(1 0 0 1 2575.21 696)">
   <path d="M 61.4746 -0.878906 C 94.5312 -0.878906 115.137 -27.2461 115.137 -35.1562 C 115.137 -43.0664 94.5312 -69.4336 61.4746 -69.4336 C 28.9551 -69.4336 7.8125 -43.0664 7.8125 -35.1562 C 7.8125 -27.2461 28.9551 -0.878906 61.4746 -0.878906 Z M 61.4746 -13.0371 C 39.7461 -13.0371 23.7793 -30.0781 23.7793 -35.1562 C 23.7793 -39.3066 39.7461 -57.2754 61.4746 -57.2754 C 83.1543 -57.2754 99.1699 -39.3066 99.1699 -35.1562 C 99.1699 -30.0781 83.1543 -13.0371 61.4746 -13.0371 Z M 61.5234 -17.4805 C 71.3867 -17.4805 79.1992 -25.5371 79.1992 -35.1562 C 79.1992 -44.9707 71.3867 -52.7832 61.5234 -52.7832 C 51.6602 -52.7832 43.75 -45.0195 43.7988 -35.1562 C 43.7988 -25.5371 51.6602 -17.4805 61.5234 -17.4805 Z M 61.4258 -30.0781 C 58.6426 -30.0781 56.3965 -32.4219 56.3965 -35.1562 C 56.3965 -37.9395 58.6426 -40.2344 61.4258 -40.2344 C 64.3066 -40.2344 66.5527 -37.9395 66.5527 -35.1562 C 66.5527 -32.4219 64.3066 -30.0781 61.4258 -30.0781 Z"/>
  </g>
  <g id="Bold-S" transform="matrix(1 0 0 1 2278.8 696)">
   <path d="M 61.1816 -1.31836 C 93.7012 -1.31836 114.551 -27.2949 114.551 -35.2051 C 114.551 -43.0664 93.6523 -68.9941 61.1816 -68.9941 C 29.248 -68.9941 7.8125 -43.0664 7.8125 -35.2051 C 7.8125 -27.2949 29.1992 -1.31836 61.1816 -1.31836 Z M 61.1816 -11.6699 C 38.4277 -11.6699 20.8984 -30.0293 20.8984 -35.2051 C 20.8984 -39.3555 38.4277 -58.6914 61.1816 -58.6914 C 83.8867 -58.6914 101.514 -39.3555 101.514 -35.2051 C 101.514 -30.0293 83.8867 -11.6699 61.1816 -11.6699 Z M 61.2305 -16.2109 C 71.8262 -16.2109 80.2246 -24.8535 80.2246 -35.2051 C 80.2246 -45.752 71.8262 -54.1016 61.2305 -54.1016 C 50.6348 -54.1016 42.1387 -45.752 42.1875 -35.2051 C 42.1875 -24.8535 50.6348 -16.2109 61.2305 -16.2109 Z M 61.1816 -29.3457 C 57.959 -29.3457 55.3223 -31.9824 55.3223 -35.2051 C 55.3223 -38.3789 57.959 -41.0156 61.1816 -41.0156 C 64.4043 -41.0156 67.041 -38.3789 67.041 -35.2051 C 67.041 -31.9824 64.4043 -29.3457 61.1816 -29.3457 Z"/>
  </g>
  <g id="Semibold-S" transform="matrix(1 0 0 1 1982.28 696)">
   <path d="M 60.9863 -1.66016 C 93.0664 -1.66016 114.16 -27.2949 114.16 -35.2051 C 114.16 -43.1152 93.0664 -68.7012 60.9863 -68.7012 C 29.3945 -68.7012 7.8125 -43.1152 7.8125 -35.2051 C 7.8125 -27.2949 29.3945 -1.66016 60.9863 -1.66016 Z M 60.9863 -10.6934 C 37.5488 -10.6934 18.8965 -29.9805 18.8965 -35.2051 C 18.8965 -39.4043 37.5488 -59.668 60.9863 -59.668 C 84.375 -59.668 103.076 -39.4043 103.076 -35.2051 C 103.076 -29.9805 84.375 -10.6934 60.9863 -10.6934 Z M 61.0352 -15.332 C 72.1191 -15.332 80.9082 -24.3652 80.9082 -35.2051 C 80.9082 -46.2891 72.1191 -55.0293 61.0352 -55.0293 C 49.9023 -55.0293 41.0156 -46.2891 41.0645 -35.2051 C 41.1133 -24.3652 49.9023 -15.332 61.0352 -15.332 Z M 60.9863 -28.8086 C 57.4219 -28.8086 54.5898 -31.7383 54.5898 -35.2051 C 54.5898 -38.6719 57.4219 -41.5527 60.9863 -41.5527 C 64.502 -41.5527 67.3828 -38.6719 67.3828 -35.2051 C 67.3828 -31.7383 64.502 -28.8086 60.9863 -28.8086 Z"/>
  </g>
  <g id="Medium-S" transform="matrix(1 0 0 1 1685.72 696)">
   <path d="M 60.8398 -1.9043 C 92.627 -1.9043 113.867 -27.2949 113.867 -35.2051 C 113.867 -43.1152 92.627 -68.5059 60.8398 -68.5059 C 29.541 -68.5059 7.8125 -43.1152 7.8125 -35.2051 C 7.8125 -27.2949 29.541 -1.9043 60.8398 -1.9043 Z M 60.8398 -9.96094 C 36.8652 -9.96094 17.3828 -29.9805 17.3828 -35.2051 C 17.3828 -39.4043 36.8652 -60.4004 60.8398 -60.4004 C 84.7656 -60.4004 104.297 -39.4043 104.297 -35.2051 C 104.297 -29.9805 84.7656 -9.96094 60.8398 -9.96094 Z M 60.8398 -14.6484 C 72.3145 -14.6484 81.4453 -24.0234 81.4453 -35.2051 C 81.4453 -46.6797 72.3145 -55.7129 60.8398 -55.7129 C 49.3652 -55.7129 40.1855 -46.6797 40.2344 -35.2051 C 40.2832 -24.0234 49.3652 -14.6484 60.8398 -14.6484 Z M 60.8398 -28.418 C 57.0801 -28.418 54.0527 -31.4941 54.0527 -35.2051 C 54.0527 -38.916 57.0801 -41.9922 60.8398 -41.9922 C 64.5996 -41.9922 67.627 -38.916 67.627 -35.2051 C 67.627 -31.4941 64.5996 -28.418 60.8398 -28.418 Z"/>
  </g>
  <g id="Regular-S" transform="matrix(1 0 0 1 1389.2 696)">
   <path d="M 60.6445 -2.19727 C 92.041 -2.19727 113.477 -27.3438 113.477 -35.2051 C 113.477 -43.1152 92.041 -68.2129 60.6445 -68.2129 C 29.7363 -68.2129 7.8125 -43.1152 7.8125 -35.2051 C 7.8125 -27.3438 29.7363 -2.19727 60.6445 -2.19727 Z M 60.6445 -9.0332 C 35.9863 -9.0332 15.3809 -29.9316 15.3809 -35.2051 C 15.3809 -39.4531 35.9863 -61.377 60.6445 -61.377 C 85.2539 -61.377 105.859 -39.4531 105.859 -35.2051 C 105.859 -29.9316 85.2539 -9.0332 60.6445 -9.0332 Z M 60.6445 -13.7695 C 72.6074 -13.7695 82.1289 -23.5352 82.1289 -35.2051 C 82.1289 -47.2168 72.6074 -56.6406 60.6445 -56.6406 C 48.6328 -56.6406 39.0625 -47.2168 39.1113 -35.2051 C 39.1602 -23.5352 48.6328 -13.7695 60.6445 -13.7695 Z M 60.6445 -27.9297 C 56.5918 -27.9297 53.2715 -31.25 53.2715 -35.2051 C 53.2715 -39.209 56.5918 -42.5293 60.6445 -42.5293 C 64.6973 -42.5293 67.9688 -39.209 67.9688 -35.2051 C 67.9688 -31.25 64.6973 -27.9297 60.6445 -27.9297 Z"/>
  </g>
  <g id="Light-S" transform="matrix(1 0 0 1 1093.51 696)">
   <path d="M 59.6191 -2.58789 C 90.1367 -2.58789 111.426 -27.4902 111.426 -35.2051 C 111.426 -42.9688 90.0879 -67.8223 59.6191 -67.8223 C 29.4922 -67.8223 7.8125 -42.9688 7.8125 -35.2051 C 7.8125 -27.4902 29.4434 -2.58789 59.6191 -2.58789 Z M 59.6191 -8.00781 C 34.0332 -8.00781 13.7695 -29.6875 13.7695 -35.2051 C 13.7695 -39.9902 34.0332 -62.4023 59.6191 -62.4023 C 85.2051 -62.4023 105.469 -39.9902 105.469 -35.2051 C 105.469 -29.6875 85.2051 -8.00781 59.6191 -8.00781 Z M 59.6191 -13.8184 C 71.4844 -13.8184 81.1035 -23.5352 81.1035 -35.2051 C 81.1035 -47.168 71.4844 -56.5918 59.6191 -56.5918 C 47.6562 -56.5918 38.0859 -47.168 38.1348 -35.2051 C 38.1836 -23.5352 47.6562 -13.8184 59.6191 -13.8184 Z M 59.668 -28.2715 C 55.7617 -28.2715 52.5879 -31.3965 52.5879 -35.2051 C 52.5879 -39.0625 55.7617 -42.1875 59.668 -42.1875 C 63.4766 -42.1875 66.6504 -39.0625 66.6504 -35.2051 C 66.6504 -31.3965 63.4766 -28.2715 59.668 -28.2715 Z"/>
  </g>
  <g id="Thin-S" transform="matrix(1 0 0 1 798.146 696)">
   <path d="M 58.3008 -3.07617 C 87.6465 -3.07617 108.74 -27.6367 108.74 -35.2051 C 108.74 -42.7734 87.5 -67.334 58.3008 -67.334 C 29.1992 -67.334 7.8125 -42.7734 7.8125 -35.2051 C 7.8125 -27.6367 29.0039 -3.07617 58.3008 -3.07617 Z M 58.3008 -6.64062 C 31.4453 -6.64062 11.6699 -29.3945 11.6699 -35.2051 C 11.6699 -40.7227 31.4453 -63.8184 58.3008 -63.8184 C 85.1074 -63.8184 104.883 -40.7227 104.883 -35.2051 C 104.883 -29.3945 85.1074 -6.64062 58.3008 -6.64062 Z M 58.3008 -13.8184 C 70.0195 -13.8184 79.7363 -23.584 79.7363 -35.2051 C 79.7363 -47.1191 70.0195 -56.5918 58.3008 -56.5918 C 46.3867 -56.5918 36.7676 -47.1191 36.8164 -35.2051 C 36.9141 -23.584 46.3867 -13.8184 58.3008 -13.8184 Z M 58.3008 -28.6621 C 54.6387 -28.6621 51.6602 -31.5918 51.6602 -35.2051 C 51.6602 -38.8672 54.6387 -41.748 58.3008 -41.748 C 61.9141 -41.748 64.8926 -38.8672 64.8926 -35.2051 C 64.8926 -31.5918 61.9141 -28.6621 58.3008 -28.6621 Z"/>
  </g>
  <g id="Ultralight-S" transform="matrix(1 0 0 1 502.143 696)">
   <path d="M 57.5684 -3.36914 C 86.377 -3.36914 107.324 -27.7832 107.324 -35.2051 C 107.324 -42.6758 86.1328 -67.041 57.5684 -67.041 C 29.0527 -67.041 7.8125 -42.6758 7.8125 -35.2051 C 7.8125 -27.7832 28.8086 -3.36914 57.5684 -3.36914 Z M 57.5684 -5.9082 C 30.0781 -5.9082 10.5469 -29.248 10.5469 -35.2051 C 10.5469 -41.1133 30.0781 -64.5508 57.5684 -64.5508 C 85.0586 -64.5508 104.59 -41.1133 104.59 -35.2051 C 104.59 -29.248 85.0586 -5.9082 57.5684 -5.9082 Z M 57.5684 -13.8672 C 69.2871 -13.8672 79.0039 -23.584 79.0039 -35.2051 C 79.0039 -47.0703 69.2871 -56.543 57.5684 -56.543 C 45.7031 -56.543 36.084 -47.0703 36.1328 -35.2051 C 36.2305 -23.584 45.7031 -13.8672 57.5684 -13.8672 Z M 57.6172 -28.9062 C 54.1016 -28.9062 51.1719 -31.6895 51.1719 -35.2051 C 51.1719 -38.7695 54.1016 -41.5039 57.6172 -41.5039 C 61.1328 -41.5039 63.9648 -38.7695 63.9648 -35.2051 C 63.9648 -31.6895 61.1328 -28.9062 57.6172 -28.9062 Z"/>
  </g>
 </g>
</svg>
