<?xml version="1.0" encoding="UTF-8"?>
<svg width="760px" height="577px" viewBox="0 0 760 577" version="1.1" xmlns="http://www.w3.org/2000/svg" xmlns:xlink="http://www.w3.org/1999/xlink">
    <title>Group</title>
    <defs>
        <linearGradient x1="85.1049626%" y1="21.2126812%" x2="31.2345701%" y2="78.7873188%" id="linearGradient-1">
            <stop stop-color="#1AEAD8" offset="0%"></stop>
            <stop stop-color="#016DE2" offset="100%"></stop>
        </linearGradient>
        <linearGradient x1="50%" y1="0%" x2="50%" y2="100%" id="linearGradient-2">
            <stop stop-color="#0A9ADB" offset="0%"></stop>
            <stop stop-color="#064379" offset="100%"></stop>
        </linearGradient>
        <filter x="-10.4%" y="-18.6%" width="120.7%" height="137.2%" filterUnits="objectBoundingBox" id="filter-3">
            <feGaussianBlur stdDeviation="18.7000004" in="SourceGraphic"></feGaussianBlur>
        </filter>
        <linearGradient x1="50%" y1="11.3287922%" x2="50%" y2="100%" id="linearGradient-4">
            <stop stop-color="#FFFFFF" offset="0%"></stop>
            <stop stop-color="#B5E2F5" offset="100%"></stop>
        </linearGradient>
        <path d="M315.594109,210.199307 L331.964498,210.199307 C339.253698,210.199307 345.162762,216.111941 345.162762,223.405546 L345.162762,444.312821 C345.162762,456.709455 335.119374,466.758912 322.730227,466.758912 C310.34108,466.758912 300.297692,456.709455 300.297692,444.312821 L300.297692,224.93004 C299.987645,215.580295 292.83866,210.634395 285.697653,210.285386 L262.954697,210.42002 C255.696099,210.46299 249.834517,216.362917 249.834517,223.626028 L249.834517,444.312821 C249.834517,456.709455 239.791129,466.758912 227.401982,466.758912 C215.012835,466.758912 204.969447,456.709455 204.969447,444.312821 L204.969447,223.405546 C204.969447,216.111941 199.060384,210.199307 191.771184,210.199307 L167.209529,210.199307 C159.920329,210.199307 154.011266,216.111941 154.011266,223.405546 L154.011266,444.312821 C154.011266,456.709455 143.967878,466.758912 131.578731,466.758912 C119.189584,466.758912 109.146196,456.709455 109.146196,444.312821 L109.146196,196.349732 C109.146196,179.331321 122.934012,165.535174 139.942144,165.535174 L269.442639,165.535174 C285.928338,165.535174 299.388517,178.496794 300.199866,194.790911 L300.203888,194.792028 C300.203749,194.817448 300.203659,194.842838 300.203619,194.868196 C300.221817,195.252872 300.232966,195.639394 300.23694,196.027636 C300.79747,205.393277 308.329346,210.185196 315.594109,210.199307 L315.594109,210.199307 Z M621.093354,210.199307 L637.463743,210.199307 C644.752943,210.199307 650.662006,216.111941 650.662006,223.405546 L650.662006,444.312821 C650.662006,456.709455 640.618619,466.758912 628.229472,466.758912 C615.840325,466.758912 605.796937,456.709455 605.796937,444.312821 L605.796937,224.93004 C605.48689,215.580295 598.337905,210.634395 591.196898,210.285386 L568.453942,210.42002 C561.195344,210.46299 555.333761,216.362917 555.333761,223.626028 L555.333761,444.312821 C555.333761,456.709455 545.290374,466.758912 532.901227,466.758912 C520.51208,466.758912 510.468692,456.709455 510.468692,444.312821 L510.468692,223.405546 C510.468692,216.111941 504.559629,210.199307 497.270429,210.199307 L472.708774,210.199307 C465.419574,210.199307 459.51051,216.111941 459.51051,223.405546 L459.51051,444.312821 C459.51051,456.709455 449.467123,466.758912 437.077976,466.758912 C424.688829,466.758912 414.645441,456.709455 414.645441,444.312821 L414.645441,196.349732 C414.645441,179.331321 428.433257,165.535174 445.441389,165.535174 L574.941884,165.535174 C591.427583,165.535174 604.887761,178.496794 605.699111,194.790911 L605.703133,194.792028 C605.702994,194.817448 605.702904,194.842838 605.702864,194.868196 C605.721062,195.252872 605.732211,195.639394 605.736185,196.027636 C606.296715,205.393277 613.828591,210.185196 621.093354,210.199307 L621.093354,210.199307 Z" id="path-5"></path>
        <filter x="-1.2%" y="-1.5%" width="102.4%" height="106.0%" filterUnits="objectBoundingBox" id="filter-6">
            <feOffset dx="0" dy="7" in="SourceAlpha" result="shadowOffsetOuter1"></feOffset>
            <feGaussianBlur stdDeviation="1" in="shadowOffsetOuter1" result="shadowBlurOuter1"></feGaussianBlur>
            <feColorMatrix values="0 0 0 0 0.00481791977   0 0 0 0 0.274624883   0 0 0 0 0.566915761  0 0 0 0.502922858 0" type="matrix" in="shadowBlurOuter1"></feColorMatrix>
        </filter>
    </defs>
    <g id="Page-1" stroke="none" stroke-width="1" fill="none" fill-rule="evenodd">
        <g id="1024" transform="translate(-131, -217)">
            <g id="Group" transform="translate(131, 217)">
                <path d="M759.876512,175.860806 C759.783633,165.747301 759.723472,161.632456 759.633759,156.843237 C759.356175,142.632827 758.443211,128.252505 756.031508,115.40562 C753.405548,101.394674 749.841294,88.6712652 743.405159,75.9362478 C736.871924,63.0154873 727.912209,51.8476781 718.209457,41.8850889 C708.269229,32.1610109 697.123677,23.180961 684.230299,16.6324582 C671.527958,10.1810485 658.829839,6.60971356 644.852515,3.97764816 C632.030908,1.56193135 617.68101,0.644824363 603.499983,0.371486376 C598.728294,0.278614782 594.617316,0.217403959 584.527214,0.123477006 C574.952171,0.0337714888 553.375607,0 514.595207,0 C421.862314,0 426.065116,59.4948096 328.799065,59.4948096 L198.700074,59.4948096 C192.907765,59.4948096 185.047829,59.5285811 175.471731,59.6182866 C165.381629,59.7132689 161.275928,59.7744797 156.497906,59.8652406 C142.320046,60.139634 127.970147,61.0577963 115.150652,63.4735131 C101.170161,66.1045232 88.4741526,69.6758581 75.7707563,76.1272678 C62.8763235,82.6757705 51.7339377,91.6537098 41.7937095,101.379899 C32.0888467,111.342488 23.130187,122.509242 16.595896,135.432113 C10.1597618,148.165019 6.59550712,160.890538 3.97060294,174.899374 C1.56101057,187.747315 0.641713606,202.128692 0.371518404,216.340157 C0.279694253,221.127265 0.217422702,225.24211 0.124543101,235.355616 C0.0348298503,244.951995 0,252.829195 0,258.63367 L0,377.533583 C0,383.338058 0.0348298503,391.216313 0.124543101,400.814804 C0.217422702,410.925143 0.279694253,415.044209 0.371518404,419.826041 C0.641713606,434.039616 1.56101057,448.42416 3.97060294,461.267879 C6.59550712,475.279881 10.1597618,488.0054 16.595896,500.736196 C23.130187,513.659067 32.0888467,524.827932 41.7937095,534.78841 C51.7339377,544.512488 62.8763235,553.494649 75.7707563,560.039985 C88.4741526,566.492451 101.170161,570.063785 115.150652,572.695851 C127.970147,575.112623 142.320046,576.02973 156.497906,576.300957 C161.275928,576.39594 165.381629,576.456095 175.471731,576.551077 C185.047829,576.639728 192.907765,576.672444 198.700074,576.672444 L561.300981,576.672444 C567.093291,576.672444 574.952171,576.639728 584.527214,576.551077 C594.617316,576.456095 598.728294,576.39594 603.499983,576.300957 C617.68101,576.02973 632.030908,575.112623 644.852515,572.695851 C658.829839,570.063785 671.527958,566.492451 684.230299,560.039985 C697.123677,553.494649 708.269229,544.512488 718.209457,534.78841 C727.912209,524.827932 736.871924,513.659067 743.405159,500.736196 C749.841294,488.0054 753.405548,475.279881 756.031508,461.267879 C758.443211,448.42416 759.356175,434.039616 759.633759,419.826041 C759.723472,415.044209 759.783633,410.925143 759.876512,400.814804 C759.967281,391.216313 760,383.338058 760,377.533583 L760,199.139916 C760,193.334386 759.967281,185.457186 759.876512,175.860806 L759.876512,175.860806 Z" id="Path" fill="url(#linearGradient-1)"></path>
                <path d="M315.594109,221.204506 L331.964498,221.204506 C339.253698,221.204506 345.162762,227.117141 345.162762,234.410745 L345.162762,455.318021 C345.162762,467.714654 335.119374,477.764111 322.730227,477.764111 C310.34108,477.764111 300.297692,467.714654 300.297692,455.318021 L300.297692,235.935239 C299.987645,226.585495 292.83866,221.639595 285.697653,221.290586 L262.954697,221.42522 C255.696099,221.468189 249.834517,227.368116 249.834517,234.631228 L249.834517,455.318021 C249.834517,467.714654 239.791129,477.764111 227.401982,477.764111 C215.012835,477.764111 204.969447,467.714654 204.969447,455.318021 L204.969447,234.410745 C204.969447,227.117141 199.060384,221.204506 191.771184,221.204506 L167.209529,221.204506 C159.920329,221.204506 154.011266,227.117141 154.011266,234.410745 L154.011266,455.318021 C154.011266,467.714654 143.967878,477.764111 131.578731,477.764111 C119.189584,477.764111 109.146196,467.714654 109.146196,455.318021 L109.146196,207.354931 C109.146196,190.33652 122.934012,176.540373 139.942144,176.540373 L269.442639,176.540373 C285.928338,176.540373 299.388517,189.501993 300.199866,205.79611 L300.203888,205.797227 C300.203749,205.822648 300.203659,205.848037 300.203619,205.873396 C300.221817,206.258071 300.232966,206.644593 300.23694,207.032835 C300.79747,216.398477 308.329346,221.190395 315.594109,221.204506 L315.594109,221.204506 Z M621.093354,221.204506 L637.463743,221.204506 C644.752943,221.204506 650.662006,227.117141 650.662006,234.410745 L650.662006,455.318021 C650.662006,467.714654 640.618619,477.764111 628.229472,477.764111 C615.840325,477.764111 605.796937,467.714654 605.796937,455.318021 L605.796937,235.935239 C605.48689,226.585495 598.337905,221.639595 591.196898,221.290586 L568.453942,221.42522 C561.195344,221.468189 555.333761,227.368116 555.333761,234.631228 L555.333761,455.318021 C555.333761,467.714654 545.290374,477.764111 532.901227,477.764111 C520.51208,477.764111 510.468692,467.714654 510.468692,455.318021 L510.468692,234.410745 C510.468692,227.117141 504.559629,221.204506 497.270429,221.204506 L472.708774,221.204506 C465.419574,221.204506 459.51051,227.117141 459.51051,234.410745 L459.51051,455.318021 C459.51051,467.714654 449.467123,477.764111 437.077976,477.764111 C424.688829,477.764111 414.645441,467.714654 414.645441,455.318021 L414.645441,207.354931 C414.645441,190.33652 428.433257,176.540373 445.441389,176.540373 L574.941884,176.540373 C591.427583,176.540373 604.887761,189.501993 605.699111,205.79611 L605.703133,205.797227 C605.702994,205.822648 605.702904,205.848037 605.702864,205.873396 C605.721062,206.258071 605.732211,206.644593 605.736185,207.032835 C606.296715,216.398477 613.828591,221.190395 621.093354,221.204506 L621.093354,221.204506 Z" id="Combined-Shape" fill="url(#linearGradient-2)" filter="url(#filter-3)"></path>
                <g id="Combined-Shape">
                    <use fill="black" fill-opacity="1" filter="url(#filter-6)" xlink:href="#path-5"></use>
                    <use fill="url(#linearGradient-4)" fill-rule="evenodd" xlink:href="#path-5"></use>
                </g>
            </g>
        </g>
    </g>
</svg>