<?xml version="1.0" encoding="UTF-8"?>
<svg width="380px" height="289px" viewBox="0 0 380 289" version="1.1" xmlns="http://www.w3.org/2000/svg" xmlns:xlink="http://www.w3.org/1999/xlink">
    <title>Combined Shape</title>
    <g id="Page-1" stroke="none" stroke-width="1" fill="none" fill-rule="evenodd">
        <path d="M264.399022,0.000872393752 C264.601461,0.000925993875 264.802757,0.000982129609 265.002913,0.001040819 L267.350349,0.00186882194 C267.541455,0.00194822927 267.731438,0.00203026244 267.920303,0.00211493948 L269.589996,0.00294890468 C269.772187,0.00304960737 269.953272,0.00315300806 270.133256,0.00325912481 L271.199972,0.00392856226 C271.726754,0.00427972164 272.243698,0.00465565028 272.750918,0.00505683536 L273.752426,0.00589302512 C283.144222,0.0141594854 289.053152,0.0316607707 292.263607,0.0617385029 C296.391376,0.100163165 298.517868,0.127637388 300.46143,0.161791058 L300.89106,0.169497878 L300.89106,0.169497878 L301.533914,0.181564466 L301.533914,0.181564466 L301.749992,0.185743188 C308.840505,0.322412182 316.015454,0.780965677 322.426257,1.98882408 C329.41492,3.30485678 335.763979,5.09052425 342.11515,8.3162291 C348.561838,11.5904805 354.134614,16.0805054 359.104728,20.9425445 C363.956104,25.9238391 368.435962,31.5077436 371.70258,37.9681239 C374.920647,44.3356326 376.702774,50.6973368 378.015754,57.70281 C379.221606,64.1262527 379.678088,71.3164137 379.816879,78.4216183 C379.820957,78.6393101 379.824913,78.8542152 379.82877,79.0688404 L379.836359,79.4984604 C379.871227,81.5085444 379.898853,83.639825 379.938256,87.9304031 C379.977721,92.1027421 379.995239,95.6251076 379.999137,98.3816156 L379.999906,99.1854765 L379.999906,99.1854765 L380,99.5699578 L380,188.766792 C380,188.892976 379.999969,189.02112 379.999906,189.15121 L379.999137,189.95498 C379.995239,192.711261 379.977721,196.234145 379.938256,200.407402 C379.896038,205.003011 379.86734,207.122887 379.82877,209.266669 L379.820917,209.696485 L379.820917,209.696485 L379.816879,209.91302 C379.678088,217.019808 379.221606,224.21208 378.015754,230.63394 C376.702774,237.63994 374.920647,244.0027 371.70258,250.368098 C368.435962,256.829534 363.956104,262.413966 359.104728,267.394205 C354.134614,272.256244 348.561838,276.747324 342.11515,280.019993 C335.763979,283.246225 329.41492,285.031893 322.426257,286.347925 C316.015454,287.556312 308.840505,288.014865 301.749992,288.150479 C299.364147,288.19797 297.308658,288.228048 292.263607,288.275539 C287.476086,288.319864 283.546645,288.336222 280.650491,288.336222 L98.9664295,288.336128 C96.110524,288.334747 92.3157382,288.317937 87.7358653,288.275539 C82.6908143,288.228048 80.637964,288.19797 78.2489529,288.150479 C71.1600229,288.014865 63.9850737,287.556312 57.5753258,286.347925 C50.5850804,285.031893 44.2370763,283.246225 37.8853781,280.019993 C31.4381617,276.747324 25.8669689,272.256244 20.8968548,267.394205 C16.0444233,262.413966 11.5650935,256.829534 8.29794798,250.368098 C5.0798809,244.0027 3.29775356,237.63994 1.98530147,230.63394 C0.780505283,224.21208 0.320856803,217.019808 0.185759202,209.91302 C0.184367927,209.840568 0.182990221,209.768421 0.181625246,209.696485 L0.173581481,209.266669 C0.134059597,207.122887 0.104489551,205.003011 0.0622715506,200.407402 C0.0232657894,196.234145 0.00500989599,192.711261 0.000911103104,189.95498 L0.000911103104,128.128673 C0.00500989599,125.372512 0.0232657894,121.850147 0.0622715506,117.677808 C0.105896818,112.927525 0.13601688,110.824034 0.17756768,108.602309 L0.185759202,108.170078 C0.320856803,101.064346 0.780505283,93.8736575 1.98530147,87.4496871 C3.29775356,80.4452692 5.0798809,74.0825097 8.29794798,67.7160564 C11.5650935,61.2546208 16.0444233,55.6712438 20.8968548,50.6899493 C25.8669689,45.8268549 31.4381617,41.3378853 37.8853781,38.0636339 C44.2370763,34.837929 50.5850804,33.0522616 57.5753258,31.7367566 C63.9850737,30.5288982 71.1600229,30.069817 78.2489529,29.9326203 C78.3937414,29.92987 78.5372952,29.9271739 78.6803552,29.9245251 L79.1087946,29.9167132 C81.1795872,29.8795723 83.3023356,29.8508779 87.7358653,29.8091433 C92.1075622,29.7681908 95.7639213,29.7505529 98.5711828,29.7477951 L164.399532,29.7474048 C188.229715,29.7474048 199.878562,22.6050529 211.017121,15.319854 L212.379269,14.4275508 C223.495616,7.14235189 234.578045,5.68434189e-14 257.297604,5.68434189e-14 L257.297604,5.68434189e-14 Z M134.72132,82.7675868 L69.9710722,82.7675868 C61.467006,82.7675868 54.5730982,89.6656606 54.5730982,98.1748658 L54.5730982,98.1748658 L54.5730982,222.156411 C54.5730982,228.354728 59.5947921,233.379456 65.7893655,233.379456 C71.9839389,233.379456 77.0056328,228.354728 77.0056328,222.156411 L77.0056328,222.156411 L77.0056328,111.702773 C77.0056328,108.055971 79.9601647,105.099653 83.6047645,105.099653 L83.6047645,105.099653 L95.8855921,105.099653 C99.5301919,105.099653 102.484724,108.055971 102.484724,111.702773 L102.484724,111.702773 L102.484724,222.156411 C102.484724,228.354728 107.506418,233.379456 113.700991,233.379456 C119.895564,233.379456 124.917258,228.354728 124.917258,222.156411 L124.917258,222.156411 L124.917258,111.813014 C124.917258,108.181459 127.84805,105.231495 131.477349,105.21001 L131.477349,105.21001 L142.848827,105.142693 C146.41933,105.317198 149.993823,107.790148 150.148846,112.46502 L150.148846,112.46502 L150.148846,222.156411 C150.148846,228.354728 155.17054,233.379456 161.365113,233.379456 C167.559687,233.379456 172.581381,228.354728 172.581381,222.156411 L172.581381,222.156411 L172.581381,111.702773 C172.581381,108.055971 169.626849,105.099653 165.982249,105.099653 L165.982249,105.099653 L157.797055,105.099653 C154.164673,105.092598 150.398735,102.696639 150.11847,98.0138179 C150.116483,97.8196969 150.110909,97.6264359 150.101809,97.4340982 L150.101809,97.4340982 L150.101944,97.3960139 C149.694258,89.2483969 142.964169,82.7675868 134.72132,82.7675868 L134.72132,82.7675868 Z M287.470942,82.7675868 L222.720695,82.7675868 C214.216628,82.7675868 207.322721,89.6656606 207.322721,98.1748658 L207.322721,98.1748658 L207.322721,222.156411 C207.322721,228.354728 212.344415,233.379456 218.538988,233.379456 C224.733561,233.379456 229.755255,228.354728 229.755255,222.156411 L229.755255,222.156411 L229.755255,111.702773 C229.755255,108.055971 232.709787,105.099653 236.354387,105.099653 L236.354387,105.099653 L248.635215,105.099653 C252.279814,105.099653 255.234346,108.055971 255.234346,111.702773 L255.234346,111.702773 L255.234346,222.156411 C255.234346,228.354728 260.25604,233.379456 266.450613,233.379456 C272.645187,233.379456 277.666881,228.354728 277.666881,222.156411 L277.666881,222.156411 L277.666881,111.813014 C277.666881,108.181459 280.597672,105.231495 284.226971,105.21001 L284.226971,105.21001 L295.598449,105.142693 C299.168952,105.317198 302.743445,107.790148 302.898469,112.46502 L302.898469,112.46502 L302.898469,222.156411 C302.898469,228.354728 307.920163,233.379456 314.114736,233.379456 C320.309309,233.379456 325.331003,228.354728 325.331003,222.156411 L325.331003,222.156411 L325.331003,111.702773 C325.331003,108.055971 322.376471,105.099653 318.731872,105.099653 L318.731872,105.099653 L310.546677,105.099653 C306.914295,105.092598 303.148357,102.696639 302.868092,98.0138179 C302.866106,97.8196969 302.860531,97.6264359 302.851432,97.4340982 L302.851432,97.4340982 L302.851567,97.3960139 C302.443881,89.2483969 295.713791,82.7675868 287.470942,82.7675868 L287.470942,82.7675868 Z" id="Combined-Shape" fill="#FFFFFF"></path>
    </g>
</svg>